<?xml version="1.0" encoding="UTF-8"?>
<svg version="1.1" xmlns="http://www.w3.org/2000/svg" width="512" height="512">
<path d="M0 0 C1.35815643 -0.00418111 2.71630936 -0.00966287 4.07445592 -0.01631981 C7.77780632 -0.03069008 11.48093259 -0.02655641 15.18429482 -0.019153 C19.18904619 -0.01440294 23.19375033 -0.02694698 27.19848633 -0.03717041 C35.03100451 -0.05432464 42.86344236 -0.0552059 50.69597445 -0.04995751 C57.06103904 -0.04591026 63.42607995 -0.04736592 69.79114342 -0.05270576 C70.69823918 -0.05345419 71.60533494 -0.05420261 72.53991845 -0.05497371 C74.38280319 -0.05650522 76.22568793 -0.05804357 78.06857266 -0.05958868 C95.32948393 -0.0733001 112.59034981 -0.06788433 129.85126003 -0.05640347 C145.64427645 -0.04646024 161.4371759 -0.05943297 177.23017428 -0.08333766 C193.45528174 -0.10771121 209.68033466 -0.11734159 225.90546006 -0.11068493 C235.01134184 -0.10719041 244.11713354 -0.10944081 253.22300148 -0.12693596 C260.96963824 -0.1416356 268.71612138 -0.14232214 276.46275506 -0.12486505 C280.41496613 -0.11633645 284.36690248 -0.11425088 288.31909943 -0.1295166 C291.93673167 -0.14331738 295.55385262 -0.1386608 299.17145493 -0.11927737 C301.10012437 -0.11371473 303.02881955 -0.12782675 304.9574402 -0.14263147 C315.65615088 -0.05114523 315.65615088 -0.05114523 320.26542664 4.38768005 C323.36254329 8.51387628 323.69319717 12.04241458 323.64574337 17.04521084 C323.65040329 17.81232739 323.65506321 18.57944393 323.65986434 19.36980644 C323.67184903 21.9494591 323.66240565 24.52858845 323.65310669 27.10824585 C323.65727809 28.972698 323.66275453 30.83714762 323.6694265 32.7015925 C323.68392527 37.83227378 323.67962257 42.96279503 323.67225969 48.09348524 C323.66754127 53.62391329 323.68002608 59.15430605 323.6902771 64.6847229 C323.70749639 75.52198021 323.70829864 86.35917962 323.7030642 97.19644707 C323.69902716 106.00253811 323.7004605 114.808612 323.70581245 123.61470222 C323.70656088 124.86675572 323.7073093 126.11880921 323.7080804 127.40880372 C323.70961183 129.95212567 323.71115018 132.49544761 323.71269537 135.03876955 C323.72252814 152.12181773 323.72668363 169.2048601 323.71906948 186.28790951 C323.71877231 186.95608095 323.71847513 187.6242524 323.71816896 188.31267147 C323.71571995 193.73889429 323.7131084 199.16511703 323.71048482 204.59133976 C323.70038164 225.75907902 323.7087383 246.92673897 323.73197937 268.09446716 C323.7580423 291.87085401 323.77085299 315.64719959 323.76379162 339.42360502 C323.76029393 352.01495136 323.76256772 364.60623255 323.78004265 377.19756889 C323.7947335 387.91607815 323.79544092 398.6344764 323.77797174 409.35298341 C323.76943375 414.82407593 323.76738033 420.29496986 323.78262329 425.76605225 C323.79639711 430.77169128 323.7918018 435.77696024 323.77238405 440.78257746 C323.7686012 442.59611519 323.77161126 444.40968205 323.78199571 446.223194 C323.79508782 448.68401489 323.78365284 451.14354366 323.76599789 453.60430813 C323.7756484 454.31228095 323.78529891 455.02025377 323.79524186 455.74968031 C323.72160073 460.7314178 322.35147903 463.53090493 319.26542664 467.38768005 C314.86770383 471.15528267 310.3950074 470.79581008 304.88529968 470.72825623 C303.94822678 470.72869431 303.01115387 470.72913239 302.04568481 470.72958374 C298.95595792 470.72749784 295.86677721 470.70417582 292.77714539 470.6806488 C290.63195085 470.67505215 288.48675248 470.67078238 286.34155273 470.66778564 C280.70097734 470.65634237 275.06063443 470.62687942 269.42015076 470.59367371 C263.66222783 470.56296181 257.90426727 470.5492779 252.14628601 470.53416443 C240.85256419 470.50200941 229.55901476 470.45081912 218.26542664 470.38768005 C218.2863739 471.35592712 218.30732117 472.32417419 218.3289032 473.32176208 C218.40161176 476.9334265 218.4473372 480.54502696 218.4851532 484.1572113 C218.50519885 485.71689249 218.5324432 487.27649918 218.56718445 488.83592224 C218.61601789 491.08513319 218.63846478 493.33334595 218.65605164 495.58299255 C218.67669678 496.27385956 218.69734192 496.96472656 218.71861267 497.67652893 C218.72091859 502.71564908 217.40935555 505.50478731 214.26542664 509.38768005 C209.84807663 512.7321177 206.21450579 513.13632515 200.78788757 512.99754333 C193.53822625 511.74236909 187.27239675 507.83987762 180.89042664 504.32518005 C178.75608035 503.16197822 176.61867007 502.00676888 174.46986389 500.8704834 C173.14321501 500.16797004 171.82469061 499.4498168 170.51631165 498.71383667 C167.60811868 497.16464264 165.55429355 496.38041179 162.23808289 496.46385193 C158.74343818 497.54990117 155.75706697 499.02119303 152.53886414 500.7665863 C151.24639745 501.44787815 149.9534113 502.12818528 148.65995789 502.80760193 C146.65338552 503.87244841 144.65160471 504.94406777 142.65849304 506.03392029 C134.35161877 510.55435262 127.01233467 514.09581028 117.26542664 512.38768005 C112.67233598 510.21200553 110.44962227 507.92432661 108.26542664 503.38768005 C108.01402898 500.73259641 107.91360613 498.32614525 107.97245789 495.6806488 C107.97670273 494.95525406 107.98094757 494.22985931 107.98532104 493.48248291 C108.00203121 491.17966114 108.03966703 488.87773452 108.07792664 486.57518005 C108.09298348 485.00813546 108.10667013 483.44107706 108.11894226 481.87400818 C108.15190932 478.04489048 108.20363672 474.21643671 108.26542664 470.38768005 C107.65473013 470.39136723 107.04403362 470.3950544 106.41483116 470.3988533 C91.49710328 470.48751663 76.57940113 470.55354063 61.66147423 470.59492874 C54.44700481 470.6154801 47.23271219 470.64345684 40.01835632 470.68943787 C33.72412061 470.72953505 27.43001304 470.75516671 21.13565314 470.76403403 C17.80831388 470.76921063 14.48162902 470.78337585 11.1543541 470.81060028 C-13.32339554 471.0028057 -31.69212211 467.94399642 -49.92597961 450.26268005 C-59.59945434 439.98346592 -66.8411857 425.54639749 -66.87158775 411.25545883 C-66.8766623 409.98940583 -66.88173684 408.72335283 -66.88696516 407.41893458 C-66.88756682 406.01111654 -66.8880659 404.60329846 -66.88847351 403.19548035 C-66.89248896 401.70200271 -66.89692732 400.20852617 -66.90175307 398.71505094 C-66.913716 394.60480606 -66.91936641 390.49457293 -66.92393422 386.38431406 C-66.92989165 381.95321795 -66.94150141 377.52213585 -66.95222473 373.09104919 C-66.97674965 362.38435464 -66.99137816 351.67765543 -67.0042848 340.97094142 C-67.00799735 337.94556802 -67.01197055 334.92019507 -67.01603746 331.89482212 C-67.04127997 313.09956253 -67.06332882 294.30430219 -67.07576561 275.50902939 C-67.07869523 271.15510302 -67.0816569 266.80117668 -67.08467102 262.44725037 C-67.08541707 261.36512556 -67.08616312 260.28300076 -67.08693178 259.16808429 C-67.09957394 241.65481117 -67.13278113 224.14163983 -67.17447285 206.62841424 C-67.21694747 188.63841226 -67.24046722 170.64846229 -67.24568617 152.65841031 C-67.24909455 142.56167603 -67.26078157 132.46510066 -67.29378891 122.36841583 C-67.32186692 113.76550924 -67.33275497 105.16279414 -67.32159345 96.5598453 C-67.31642611 92.17500528 -67.31916718 87.79056577 -67.34405899 83.40578461 C-67.36671589 79.38083022 -67.36568602 75.35656018 -67.34685512 71.33159247 C-67.34407786 69.88593616 -67.34952501 68.44023179 -67.36466806 66.99465212 C-67.54664335 48.46995242 -61.73945495 33.2169698 -49.00410461 19.70018005 C-48.2551593 18.93705505 -47.50621399 18.17393005 -46.73457336 17.38768005 C-46.11969055 16.74830505 -45.50480774 16.10893005 -44.87129211 15.45018005 C-32.61827848 3.69568304 -16.45332624 -0.07973992 0 0 Z " fill="#524797" transform="translate(127.73457336425781,-0.3876800537109375)"/>
<path d="M0 0 C37.6251215 -0.16121214 37.6251215 -0.16121214 53.3828125 -0.1953125 C64.26635266 -0.21905398 75.14976902 -0.24697545 86.03320312 -0.30175781 C93.95930063 -0.34163523 101.88529777 -0.3674351 109.8114928 -0.37635398 C114.00813336 -0.38156722 118.2044868 -0.39381351 122.40103531 -0.42292023 C126.35237562 -0.45010374 130.303311 -0.45843915 134.25473595 -0.45243073 C135.70353967 -0.45352966 137.15235717 -0.46146639 138.60107994 -0.4768219 C140.58259615 -0.49679153 142.56433044 -0.48953876 144.54592896 -0.48101807 C146.20792171 -0.48654882 146.20792171 -0.48654882 147.90349007 -0.49219131 C152.68636325 0.26804802 155.79410499 2.35519127 158.65093607 6.2518329 C160.24314642 9.49531159 160.37289351 11.64934061 160.36914349 15.25310993 C160.37511663 16.52057098 160.38108978 17.78803202 160.38724393 19.09390098 C160.37868529 20.49801186 160.36984851 21.90212106 160.36076355 23.30622864 C160.36207176 24.79959852 160.36469847 26.29296773 160.36853105 27.78633326 C160.37524492 31.89109275 160.36323101 35.99561779 160.34819686 40.1003474 C160.33525375 44.52634036 160.33962474 48.95231986 160.34190369 53.37832642 C160.34347751 61.04704234 160.33405688 68.71568175 160.31719017 76.38437843 C160.29281956 87.47204427 160.28499688 98.55967307 160.2812262 109.64736279 C160.27465867 127.63594188 160.25468933 145.62448017 160.22631836 163.61303711 C160.19878559 181.08829548 160.17758257 198.56354272 160.16479492 216.03881836 C160.16399093 217.12679696 160.16318694 218.21477557 160.16235858 219.33572322 C160.1561204 227.84430214 160.15024959 236.35288131 160.14449489 244.86146057 C160.11618865 286.57434448 160.05583499 328.2871263 160 370 C107.2 370 54.4 370 0 370 C0 346.9 0 323.8 0 300 C9.64089844 299.96132813 9.64089844 299.96132813 19.4765625 299.921875 C23.55082105 299.89670548 27.62500544 299.87037178 31.69921875 299.83984375 C38.16455357 299.79150999 44.62971673 299.74746488 51.09521484 299.72900391 C56.30847833 299.71384861 61.52129248 299.67942271 66.73435593 299.63169098 C68.72219307 299.61686562 70.71009436 299.60895832 72.6979866 299.60811615 C75.48485341 299.60574824 78.27047669 299.57868277 81.05712891 299.54589844 C81.87712372 299.5509288 82.69711853 299.55595917 83.54196167 299.56114197 C88.81673251 299.46527679 91.79110057 298.45281482 96 295 C99.38570467 291.16286804 99.51291172 287.36598538 99.3515625 282.4375 C98.69125629 277.85937693 96.4711906 275.14811158 92.90730286 272.36686707 C88.9294366 270.49667512 85.51544934 270.56005624 81.1706543 270.56762695 C80.29210281 270.5574353 79.41355133 270.54724365 78.50837708 270.53674316 C75.61359266 270.50662502 72.71913923 270.49734899 69.82421875 270.48828125 C67.81353151 270.4714337 65.80285479 270.45328336 63.79219055 270.43388367 C58.50685923 270.38638591 53.22157059 270.356575 47.93609619 270.33044434 C41.59082072 270.29539481 35.24570919 270.23838264 28.9005661 270.18505096 C19.26706481 270.10653968 9.63377807 270.05593184 0 270 C0 256.8 0 243.6 0 230 C12.125 229.75 12.125 229.75 15.91455078 229.70214844 C22.16437556 229.51083755 26.30745286 229.30414375 31 225 C34.29799116 220.27287934 34.90379228 215.60351216 34 210 C31.79287558 205.58575116 29.57988038 202.89168972 25 201 C21.7 200.67 18.4 200.34 15 200 C15 184.16 15 168.32 15 152 C17.64 152.33 20.28 152.66 23 153 C42.73300455 154.34446277 60.08677663 151.62786185 75.625 138.5 C90.6764295 124.20114198 99.41415189 102.12715959 101.3125 81.625 C100.93926497 77.29547363 99.83052644 74.25469755 97 71 C80.9284468 60.2856312 55.33107297 58.20002984 36.80859375 61.6484375 C22.61467116 65.35947424 10.49783426 73.47858677 2.12890625 85.49609375 C1.57009766 86.24052734 1.57009766 86.24052734 1 87 C0.67 87 0.34 87 0 87 C0 58.29 0 29.58 0 0 Z " fill="#2E2654" transform="translate(291,0)"/>
<path d="M0 0 C1.37806749 -0.00174721 2.75613367 -0.00525486 4.13419282 -0.01035666 C7.89709468 -0.01925129 11.65953643 -0.00336977 15.42237973 0.01675558 C19.48904415 0.03409633 23.55568448 0.02817921 27.62237549 0.02514648 C34.66024503 0.02305329 41.69796576 0.0355591 48.73579788 0.05809784 C58.91118414 0.09066335 69.08649874 0.10102951 79.26193146 0.10604981 C95.77251125 0.11479533 112.2830118 0.14139072 128.79354858 0.17926025 C144.82804977 0.21599959 160.86252941 0.24430194 176.89706421 0.2612915 C177.88611951 0.2623424 178.8751748 0.26339329 179.89420147 0.26447603 C184.85620665 0.26969634 189.81821198 0.27475113 194.78021741 0.27972364 C235.91801702 0.32116253 277.05572943 0.39159071 318.19345093 0.48101807 C318.28616916 12.24225235 318.3572254 24.00339955 318.40069962 35.764925 C318.42156608 41.22641035 318.44986691 46.68764547 318.49520874 52.14898682 C318.53869949 57.42041353 318.56259512 62.6915997 318.5729599 67.96319199 C318.58034542 69.97343609 318.59476768 71.98366716 318.61637115 73.99380875 C318.64544783 76.81161096 318.64940512 79.62842177 318.64755249 82.4463501 C318.66193359 83.27569565 318.6763147 84.1050412 318.69113159 84.95951843 C318.653366 90.27502495 317.69061026 93.24630344 314.19345093 97.48101807 C309.79572813 101.24862069 305.32303169 100.8891481 299.81332397 100.82159424 C298.87625107 100.82203232 297.93917816 100.8224704 296.97370911 100.82292175 C293.88398221 100.82083585 290.7948015 100.79751384 287.70516968 100.77398682 C285.55997514 100.76839017 283.41477677 100.76412039 281.26957703 100.76112366 C275.62900163 100.74968038 269.98865872 100.72021743 264.34817505 100.68701172 C258.59025212 100.65629982 252.83229156 100.64261591 247.0743103 100.62750244 C235.78058848 100.59534742 224.48703905 100.54415713 213.19345093 100.48101807 C213.21439819 101.44926514 213.23534546 102.41751221 213.25692749 103.4151001 C213.32963605 107.02676452 213.37536149 110.63836497 213.41317749 114.25054932 C213.43322314 115.81023051 213.4604675 117.36983719 213.49520874 118.92926025 C213.54404218 121.17847121 213.56648907 123.42668397 213.58407593 125.67633057 C213.60472107 126.36719757 213.62536621 127.05806458 213.64663696 127.76986694 C213.64894288 132.80898709 212.33737985 135.59812533 209.19345093 139.48101807 C204.77610093 142.82545571 201.14253008 143.22966316 195.71591187 143.09088135 C188.46625054 141.8357071 182.20042105 137.93321563 175.81845093 134.41851807 C173.68410464 133.25531623 171.54669436 132.10010689 169.39788818 130.96382141 C168.0712393 130.26130806 166.75271491 129.54315481 165.44433594 128.80717468 C162.53614297 127.25798066 160.48231785 126.4737498 157.16610718 126.55718994 C153.67146247 127.64323918 150.68509126 129.11453104 147.46688843 130.85992432 C146.17442174 131.54121616 144.88143559 132.22152329 143.58798218 132.90093994 C141.58140981 133.96578642 139.57962901 135.03740579 137.58651733 136.1272583 C129.27964306 140.64769063 121.94035897 144.18914829 112.19345093 142.48101807 C107.58599492 140.29853891 105.43814856 137.99420765 103.19345093 133.48101807 C102.83268738 130.48802185 102.83268738 130.48802185 102.85287476 127.13018799 C102.85310135 125.86925827 102.85332794 124.60832855 102.8535614 123.30918884 C102.86887891 121.94328451 102.88452685 120.57738385 102.90048218 119.21148682 C102.90608181 117.80616205 102.91035017 116.40083139 102.91334534 114.99549866 C102.92476538 111.30792901 102.95420751 107.62071738 102.98745728 103.93328857 C103.01821982 100.16604454 103.03186384 96.3987423 103.04696655 92.63140869 C103.07908045 85.24778245 103.13024176 77.86445054 103.19345093 70.48101807 C102.59968218 70.48470524 102.00591343 70.48839241 101.39415169 70.49219131 C86.9117818 70.58072861 72.42943616 70.64681795 57.94685555 70.68826675 C50.94301731 70.70884658 43.9393603 70.73687876 36.93563843 70.78277588 C30.17291428 70.82707236 23.41037829 70.850176 16.64751816 70.86052704 C14.07120684 70.86790092 11.49490547 70.88230031 8.91867447 70.90393829 C5.30187229 70.93309986 1.68584059 70.93696857 -1.93106079 70.93511963 C-2.98914444 70.94950073 -4.04722809 70.96388184 -5.13737488 70.97869873 C-15.49677763 70.92163336 -24.20320982 67.61017057 -31.80654907 60.48101807 C-39.57647656 51.67157648 -42.20218193 43.47748593 -42.08389282 31.83258057 C-41.33188463 22.74493227 -36.59030096 14.93485603 -29.99404907 8.79351807 C-20.74303031 1.33301907 -11.63888245 -0.10739881 0 0 Z " fill="#BED8DD" transform="translate(132.80654907226563,369.51898193359375)"/>
<path d="M0 0 C0 112.2 0 224.4 0 340 C-9.9 340.33 -19.8 340.66 -30 341 C-36.03839357 342.43771276 -40.55197391 343.54539484 -46 346 C-47.00417969 346.44472656 -48.00835937 346.88945312 -49.04296875 347.34765625 C-56.01352845 350.79928512 -61.51564814 355.53506177 -67 361 C-67.55300781 361.52980469 -68.10601562 362.05960937 -68.67578125 362.60546875 C-77.6537964 372.01907493 -82.13440899 384.38782745 -84 397 C-84.33 397 -84.66 397 -85 397 C-85.1145529 353.44881645 -85.20260343 309.89764891 -85.25532665 266.34634429 C-85.26157986 261.19964595 -85.2680515 256.0529479 -85.2746582 250.90625 C-85.27662553 249.36938823 -85.27662553 249.36938823 -85.2786326 247.80147874 C-85.3003634 231.23206771 -85.33977207 214.66274381 -85.38576398 198.09338439 C-85.43259342 181.07984586 -85.4603091 164.06635282 -85.47044247 147.05275249 C-85.47728819 136.56233822 -85.4988756 126.07217024 -85.53958233 115.58183181 C-85.56610085 108.37906539 -85.57398045 101.1764255 -85.56750689 93.97361386 C-85.56431811 89.82371694 -85.56905508 85.67424909 -85.59602737 81.52442932 C-85.75555905 55.69496299 -83.94156527 36.30018355 -65 17 C-64.38511719 16.360625 -63.77023438 15.72125 -63.13671875 15.0625 C-45.77861832 -1.58938221 -22.98606547 0 0 0 Z " fill="#8DE16B" transform="translate(146,0)"/>
<path d="M0 0 C1.69603448 0.00112999 3.3920709 0.00049166 5.08810425 -0.00177002 C9.66605242 -0.00291219 14.24357673 0.02051608 18.82142687 0.04852581 C23.61533459 0.07362282 28.40925327 0.07588799 33.20321655 0.08062744 C42.26946431 0.0930329 51.33551789 0.1258215 60.40168035 0.1660254 C72.66109723 0.21920342 84.92056765 0.24070822 97.18007088 0.26403427 C116.47875374 0.30158475 135.77702694 0.38129171 155.07568359 0.45410156 C155.07568359 41.70410156 155.07568359 82.95410156 155.07568359 125.45410156 C121.07568359 142.45410156 121.07568359 142.45410156 109.07568359 142.45410156 C104.46822759 140.2716224 102.32038122 137.96729114 100.07568359 133.45410156 C99.71492004 130.46110535 99.71492004 130.46110535 99.73510742 127.10327148 C99.73533401 125.84234177 99.73556061 124.58141205 99.73579407 123.28227234 C99.75111157 121.91636801 99.76675952 120.55046734 99.78271484 119.18457031 C99.78831447 117.77924554 99.79258284 116.37391489 99.795578 114.96858215 C99.80699805 111.28101251 99.83644018 107.59380088 99.86968994 103.90637207 C99.90045249 100.13912803 99.9140965 96.37182579 99.92919922 92.60449219 C99.96131311 85.22086595 100.01247443 77.83753404 100.07568359 70.45410156 C99.48191484 70.45778873 98.8881461 70.46147591 98.27638435 70.46527481 C83.79401447 70.55381211 69.31166883 70.61990144 54.82908821 70.66135025 C47.82524997 70.68193008 40.82159297 70.70996225 33.81787109 70.75585938 C27.05514695 70.80015586 20.29261096 70.8232595 13.52975082 70.83361053 C10.95343951 70.84098442 8.37713813 70.85538381 5.80090714 70.87702179 C2.18410496 70.90618335 -1.43192674 70.91005207 -5.04882812 70.90820312 C-6.10691177 70.92258423 -7.16499542 70.93696533 -8.25514221 70.95178223 C-18.61454497 70.89471686 -27.32097716 67.58325406 -34.92431641 60.45410156 C-42.69424389 51.64465997 -45.31994926 43.45056943 -45.20166016 31.80566406 C-44.44965196 22.71801577 -39.70806829 14.90793952 -33.11181641 8.76660156 C-22.89555262 0.52767916 -12.59781904 -0.11809538 0 0 Z " fill="#F0F3F6" transform="translate(135.92431640625,369.5458984375)"/>
<path d="M0 0 C5.85326207 4.61541209 10.93503205 9.78286404 15.625 15.56640625 C16.07875 16.03949219 16.5325 16.51257813 17 17 C17.66 17 18.32 17 19 17 C20.17334963 15.55888596 21.28769269 14.06959052 22.375 12.5625 C31.47767951 0.96233442 44.45593985 -6.51006936 59 -9 C62.75451004 -9.27316422 66.48693283 -9.28638793 70.25 -9.25 C71.27633545 -9.24178223 72.3026709 -9.23356445 73.36010742 -9.22509766 C84.01656204 -9.06765063 93.29814475 -7.37366384 103.4375 -4.1875 C104.20811768 -3.95144043 104.97873535 -3.71538086 105.77270508 -3.47216797 C111.70228747 -1.49412127 114.99738045 1.37587783 118.8125 6.375 C121.63660781 12.61776464 119.44832955 19.36052956 117.8125 25.6875 C117.58546387 26.57308594 117.35842773 27.45867187 117.12451172 28.37109375 C111.90121513 48.12360165 101.86067007 66.99395806 83.76171875 77.60546875 C79.30909154 79.85382506 74.78216866 81.59269514 70 83 C68.78828125 83.3609375 67.5765625 83.721875 66.328125 84.09375 C61.37265312 85.3059176 56.51359823 85.25634073 51.4375 85.1875 C50.53064453 85.18685547 49.62378906 85.18621094 48.68945312 85.18554688 C43.61015886 85.15239702 39.10067013 84.72866716 34 84 C33.67 99.51 33.34 115.02 33 131 C23.1 131 13.2 131 3 131 C3 115.16 3 99.32 3 83 C-0.96 83.99 -0.96 83.99 -5 85 C-8.0460736 85.34426691 -11.06070128 85.33452947 -14.125 85.3125 C-14.95394775 85.30686035 -15.78289551 85.3012207 -16.63696289 85.29541016 C-34.75056855 84.94246829 -49.66149779 78.58013666 -62.33984375 65.60546875 C-75.1969612 50.94615706 -83.65167428 29.8915217 -83.38671875 10.38671875 C-82.91386035 6.24562548 -82.10899418 4.18664477 -79.05859375 1.3828125 C-57.79177128 -12.90268115 -21.44006003 -14.12605962 0 0 Z " fill="#00A662" transform="translate(273,69)"/>
<path d="M0 0 C1.72573837 0.00084767 3.45147783 0.00036841 5.17721558 -0.00132751 C9.83147082 -0.00218345 14.48549112 0.01537674 19.13969207 0.03639436 C24.01501616 0.05522863 28.89034644 0.0569169 33.76570129 0.06047058 C42.98416283 0.06977129 52.20251684 0.09435821 61.42093116 0.12451905 C71.92157587 0.1581247 82.42222589 0.17456454 92.92291105 0.18960536 C114.51092473 0.22090962 136.09883556 0.27424032 157.68676758 0.34057617 C157.68676758 10.24057617 157.68676758 20.14057617 157.68676758 30.34057617 C154.4878331 30.34604462 154.4878331 30.34604462 151.22427368 30.35162354 C131.12504081 30.38787433 111.02595702 30.44609599 90.92684364 30.52447891 C80.59372327 30.56424955 70.26067884 30.59665209 59.92749023 30.61157227 C50.91867995 30.624599 41.9100369 30.65158981 32.90132082 30.69518924 C28.13342023 30.71778101 23.36572573 30.73348822 18.59776688 30.73246002 C14.1046178 30.73171206 9.61192392 30.7497173 5.11889267 30.781744 C3.47508064 30.79022177 1.83121744 30.79200742 0.18739319 30.78637886 C-12.29133855 30.74936154 -22.9709432 32.27956017 -32.31323242 41.34057617 C-39.96382728 50.69130322 -42.37857629 59.31106832 -41.31323242 71.34057617 C-39.75729631 79.7037328 -35.19063274 87.32437855 -28.56323242 92.65307617 C-20.15141157 98.25579154 -12.45000375 99.93407512 -2.43774414 99.88647461 C-0.72380211 99.90198112 -0.72380211 99.90198112 1.02476501 99.9178009 C4.76901618 99.94709476 8.51272361 99.9487253 12.25708008 99.94995117 C14.86596703 99.96494179 17.47484452 99.98167077 20.08370972 100.00006104 C26.22804483 100.04046177 32.37227424 100.06092398 38.51672161 100.07403493 C45.51812372 100.08995933 52.51934733 100.12839746 59.52064538 100.16862822 C73.90931233 100.2508089 88.29791904 100.30206603 102.68676758 100.34057617 C102.68676758 110.24057617 102.68676758 120.14057617 102.68676758 130.34057617 C87.15213709 130.43116523 71.61763911 130.50472524 56.08281517 130.54782486 C48.86834576 130.56837622 41.65405314 130.59635296 34.43969727 130.64233398 C28.14546155 130.68243117 21.85135399 130.70806283 15.55699408 130.71693015 C12.22965482 130.72210675 8.90296997 130.73627197 5.57569504 130.7634964 C-18.9020546 130.95570181 -37.27078117 127.89689254 -55.50463867 110.21557617 C-68.12524133 96.80468909 -72.85788209 80.61133719 -72.58666992 62.66479492 C-71.9561569 45.24453173 -64.65820619 30.55560285 -52.31323242 18.34057617 C-51.42764648 17.4047168 -51.42764648 17.4047168 -50.52416992 16.44995117 C-46.35793208 12.37548069 -41.648839 9.7210132 -36.50073242 7.09057617 C-35.86127686 6.76105957 -35.22182129 6.43154297 -34.56298828 6.09204102 C-23.24980397 0.57307025 -12.35569652 -0.08554273 0 0 Z " fill="#2681FE" transform="translate(133.313232421875,339.659423828125)"/>
<path d="M0 0 C18.15 0 36.3 0 55 0 C55 13.2 55 26.4 55 40 C89.65 40 124.3 40 160 40 C160 61 160 61 156 67 C151.6022772 70.76760262 147.12958077 70.40813003 141.61987305 70.34057617 C140.68280014 70.34101425 139.74572723 70.34145233 138.78025818 70.34190369 C135.69053128 70.33981778 132.60135057 70.31649577 129.51171875 70.29296875 C127.36652422 70.2873721 125.22132584 70.28310233 123.0761261 70.28010559 C117.4355507 70.26866231 111.79520779 70.23919936 106.15472412 70.20599365 C100.3968012 70.17528176 94.63884063 70.16159785 88.88085938 70.14648438 C77.58713755 70.11432935 66.29358812 70.06313906 55 70 C55.02094727 70.96824707 55.04189453 71.93649414 55.06347656 72.93408203 C55.13618512 76.54574645 55.18191056 80.15734691 55.21972656 83.76953125 C55.23977222 85.32921244 55.26701657 86.88881913 55.30175781 88.44824219 C55.35059126 90.69745314 55.37303815 92.9456659 55.390625 95.1953125 C55.41127014 95.8861795 55.43191528 96.57704651 55.45318604 97.28884888 C55.45549765 102.34043138 54.24767564 105.16807541 51 109 C46 112 46 112 34 112 C22.78 106.39 11.56 100.78 0 95 C0 63.65 0 32.3 0 0 Z " fill="#E20059" transform="translate(291,400)"/>
<path d="M0 0 C6.47643151 5.10679343 14.24431112 11.48862224 18 19 C18.09119671 20.90981946 18.11752537 22.82287186 18.11352539 24.73486328 C18.11341209 26.53650436 18.11341209 26.53650436 18.11329651 28.37454224 C18.10813522 29.67664642 18.10297394 30.97875061 18.09765625 32.3203125 C18.09579138 33.66266833 18.0943678 35.00502484 18.09336853 36.34738159 C18.08954878 39.88195675 18.07972312 43.41649087 18.06866455 46.9510498 C18.05843878 50.55720464 18.05386841 54.1633661 18.04882812 57.76953125 C18.03810038 64.84637096 18.02103045 71.9231828 18 79 C16.73807413 79.48202978 15.47529104 79.96181574 14.2121582 80.44067383 C13.50904007 80.70809891 12.80592194 80.97552399 12.08149719 81.25105286 C-5.52600895 87.58644042 -27.30769794 87.21316691 -44.25 79.3125 C-64.40066197 68.39421304 -74.35439743 50.28098702 -81.08984375 29.20703125 C-83.249957 21.59564508 -85.11449745 12.28174471 -82.08203125 4.70703125 C-74.97562364 -4.73344572 -59.60912061 -6.93592391 -48.60009766 -8.67041016 C-32.02147912 -10.77192518 -14.30300634 -9.4237199 0 0 Z " fill="#8DE16B" transform="translate(273,69)"/>
<path d="M0 0 C1.09905518 -0.00935994 1.09905518 -0.00935994 2.22031349 -0.01890898 C4.65859789 -0.03477625 7.09587384 -0.0222602 9.53416443 -0.00964355 C11.28899211 -0.01506744 13.04381523 -0.02219159 14.79862976 -0.03088379 C19.55271275 -0.04908707 24.30644771 -0.04206235 29.06053662 -0.02936745 C34.03986869 -0.01922587 39.01917137 -0.0286362 43.99850464 -0.03491211 C52.35859008 -0.04218446 60.71853407 -0.03261091 69.07859802 -0.0135498 C78.74048521 0.00822525 88.40203485 0.0011613 98.06391388 -0.02085543 C106.3647464 -0.03901267 114.66547736 -0.04156637 122.96632332 -0.03110075 C127.92179424 -0.02486853 132.87710652 -0.0240229 137.83256721 -0.0372467 C142.49074214 -0.04880953 147.14848212 -0.04077158 151.80661011 -0.01766968 C153.51501176 -0.01238521 155.22345007 -0.01389191 156.93183708 -0.02272034 C159.26608568 -0.03367007 161.59894513 -0.01992095 163.93310547 0 C165.23849053 0.0015081 166.5438756 0.0030162 167.88881779 0.00457001 C173.20133629 0.76551154 176.23984308 3.22227276 179.77806091 7.13293457 C181.98213984 11.71063696 182.20022482 15.51345868 181.40306091 20.50793457 C179.03307138 25.43022052 176.12024578 27.85300576 171.40306091 30.50793457 C167.88881779 31.01129913 167.88881779 31.01129913 163.93310547 31.01586914 C162.83639028 31.02522908 162.83639028 31.02522908 161.71751922 31.03477812 C159.27846439 31.05067627 156.84041338 31.03811703 154.40135193 31.0255127 C152.64829426 31.0309353 150.89524115 31.03805874 149.14219666 31.04675293 C144.38798748 31.06497414 139.63412589 31.05792336 134.87991071 31.04523659 C129.90104065 31.03510111 124.9222001 31.04450394 119.94332886 31.05078125 C111.58146326 31.05805673 103.21973902 31.04847325 94.8578949 31.02941895 C85.19661642 31.00765753 75.53567571 31.01469668 65.87440544 31.03672457 C57.57442671 31.05488988 49.27454953 31.05743114 40.97455734 31.04696989 C36.01959858 31.04074027 31.06479844 31.03988458 26.10984993 31.05311584 C21.45004382 31.0646899 16.79067208 31.05662019 12.13091278 31.03353882 C10.42293201 31.02825973 8.71491454 31.02975181 7.00694847 31.03858948 C4.67080924 31.04956095 2.33605177 31.03576379 0 31.01586914 C-1.30576209 31.01436104 -2.61152418 31.01285294 -3.95685482 31.01129913 C-8.89424784 30.32853783 -12.9022516 28.56789305 -16.15553284 24.61340332 C-18.4780289 19.5452008 -19.9083373 15.18605736 -17.93678284 9.65637207 C-14.26566722 2.18700263 -7.98365023 0.00922079 0 0 Z " fill="#00429B" transform="translate(209.59693908691406,269.4920654296875)"/>
<path d="M0 0 C18.15 0 36.3 0 55 0 C55 31.35 55 62.7 55 95 C21 112 21 112 9 112 C4.41813982 109.82964518 2.09996921 107.57424159 0 103 C-0.4257854 99.65733342 -0.37898248 96.34279517 -0.34057617 92.97729492 C-0.34101425 91.97194702 -0.34145233 90.96659912 -0.34190369 89.93078613 C-0.33981672 86.61381488 -0.31648943 83.29735152 -0.29296875 79.98046875 C-0.28737248 77.67833228 -0.28310253 75.37619223 -0.28010559 73.0740509 C-0.2686593 67.01919668 -0.23919369 60.96455885 -0.20599365 54.90979004 C-0.16988832 47.64272788 -0.15613062 40.37559331 -0.13863373 33.1084671 C-0.10955652 22.07216097 -0.05206725 11.0363295 0 0 Z " fill="#FF8493" transform="translate(236,400)"/>
<path d="M0 0 C52.8 0 105.6 0 160 0 C160 9.9 160 19.8 160 30 C107.2 30 54.4 30 0 30 C0 20.1 0 10.2 0 0 Z " fill="#00429B" transform="translate(291,340)"/>
<path d="M0 0 C34.65 0 69.3 0 105 0 C105 21 105 21 101 27 C96.6022772 30.76760262 92.12958077 30.40813003 86.61987305 30.34057617 C85.68280014 30.34101425 84.74572723 30.34145233 83.78025818 30.34190369 C80.69053128 30.33981778 77.60135057 30.31649577 74.51171875 30.29296875 C72.36652422 30.2873721 70.22132584 30.28310233 68.0761261 30.28010559 C62.4355507 30.26866231 56.79520779 30.23919936 51.15472412 30.20599365 C45.3968012 30.17528176 39.63884063 30.16159785 33.88085938 30.14648438 C22.58712111 30.11432931 11.29361628 30.06156538 0 30 C0 20.1 0 10.2 0 0 Z " fill="#00429B" transform="translate(346,440)"/>
<path d="M0 0 C1.30363495 -0.00087616 1.30363495 -0.00087616 2.63360596 -0.00177002 C5.48540203 0.0010005 8.33613232 0.03204316 11.18774414 0.06347656 C13.17313567 0.07094263 15.1585346 0.07663384 17.14393616 0.08062744 C22.35385707 0.09585491 27.56332757 0.13511191 32.77307129 0.17944336 C38.0954784 0.22045836 43.41795872 0.23865175 48.74047852 0.25878906 C59.17234825 0.30160904 69.60376629 0.37193534 80.03540039 0.45410156 C80.03540039 10.35410156 80.03540039 20.25410156 80.03540039 30.45410156 C68.55214924 30.54455099 57.06913556 30.61790328 45.58560848 30.66135025 C40.25306375 30.68220497 34.92077584 30.71048423 29.58837891 30.75585938 C24.44014023 30.79939218 19.29214826 30.82325459 14.1437397 30.83361053 C12.18176962 30.84098853 10.21981269 30.8553961 8.25794792 30.87702179 C5.50500422 30.90615454 2.7530736 30.91005344 0 30.90820312 C-1.2105732 30.92977478 -1.2105732 30.92977478 -2.44560242 30.95178223 C-8.07005542 30.91100746 -11.3182464 29.65153472 -15.96459961 26.45410156 C-18.80355675 23.00323887 -19.84997485 19.27080295 -20.46459961 14.89160156 C-19.86273566 10.75378689 -18.83942429 7.54507847 -15.96459961 4.45410156 C-10.45567222 0.68787851 -6.59579242 -0.11753289 0 0 Z " fill="#2680FE" transform="translate(210.964599609375,269.5458984375)"/>
<path d="M0 0 C1.06347153 -0.0038269 2.12694305 -0.00765381 3.22264099 -0.01159668 C5.46248323 -0.01430934 7.70235749 -0.00699366 9.94213867 0.00976562 C13.36383816 0.03120454 16.78344305 0.00992976 20.20507812 -0.015625 C22.38672337 -0.01298203 24.56836731 -0.00785768 26.75 0 C27.76888809 -0.00809692 28.78777618 -0.01619385 29.83753967 -0.02453613 C35.8204932 0.05421053 39.24414146 0.56586791 43.80859375 4.53125 C47.50995698 8.71963471 48.40265581 11.92610244 48.12890625 17.35546875 C47.44614271 21.993265 45.68188382 24.74315896 42.24609375 27.84375 C38.9065365 30.15575117 37.20530291 30.66152309 33.19458008 30.70825195 C31.75717216 30.72750481 31.75717216 30.72750481 30.29072571 30.74714661 C29.25119247 30.75453354 28.21165924 30.76192047 27.140625 30.76953125 C26.07245041 30.777603 25.00427582 30.78567474 23.9037323 30.79399109 C21.63823066 30.80784096 19.37270808 30.81855906 17.10717773 30.82641602 C13.65242533 30.84359421 10.19863831 30.88746925 6.74414062 30.93164062 C4.54297579 30.94177048 2.34180281 30.95028567 0.140625 30.95703125 C-0.88878708 30.97453934 -1.91819916 30.99204742 -2.97880554 31.01008606 C-9.27887237 30.99116342 -13.05236283 30.25199734 -18.19140625 26.53125 C-21.03036339 23.08038731 -22.07678149 19.34795139 -22.69140625 14.96875 C-22.0895423 10.83093533 -21.06623093 7.62222691 -18.19140625 4.53125 C-12.15610365 0.21705097 -7.29925645 -0.05812137 0 0 Z " fill="#7C4A3B" transform="translate(278.19140625,199.46875)"/>
<path d="M0 0 C3.815625 0.0825 7.63125 0.165 11.5625 0.25 C11.5625 10.15 11.5625 20.05 11.5625 30.25 C5.8390625 30.37375 5.8390625 30.37375 0 30.5 C-1.18924072 30.53641602 -2.37848145 30.57283203 -3.60375977 30.61035156 C-10.11892394 30.67836068 -14.22132891 30.28261053 -19.4375 26.25 C-22.27645714 22.79913731 -23.32287524 19.06670139 -23.9375 14.6875 C-23.08908588 8.85465291 -21.25800403 5.63763962 -16.5625 2.05859375 C-11.36113088 -0.76772098 -5.75489645 -0.17622202 0 0 Z " fill="#B38D6E" transform="translate(279.4375,199.75)"/>
<path d="M0 0 C4.95 1.32 9.9 2.64 15 4 C15 19.84 15 35.68 15 52 C10.05 52 5.1 52 0 52 C0 34.84 0 17.68 0 0 Z " fill="#007845" transform="translate(291,148)"/>
</svg>
