<?xml version="1.0" encoding="UTF-8"?>
<svg version="1.1" xmlns="http://www.w3.org/2000/svg" width="512" height="512">
<path d="M0 0 C1.01755371 0.31348389 1.01755371 0.31348389 2.05566406 0.63330078 C18.50483055 5.87426433 33.4127694 14.44730773 47 25 C47.93457031 25.72574219 48.86914062 26.45148437 49.83203125 27.19921875 C55.68581397 32.03896037 55.68581397 32.03896037 57.0625 36.25 C57.041875 37.1575 57.02125 38.065 57 39 C56.55000489 42.8707753 56.55000489 42.8707753 58.46875 44.60546875 C59.1390625 45.12753906 59.809375 45.64960937 60.5 46.1875 C63.77778382 48.84313856 66.32398281 51.56734948 68.9375 54.875 C71.52522302 58.03952487 71.52522302 58.03952487 75.1875 59.44140625 C76.30125 59.43947266 76.30125 59.43947266 77.4375 59.4375 C80.42526665 59.52402817 81.69416353 59.769916 84.11328125 61.58984375 C95.87451277 74.16812609 104.73864791 89.85826795 113.44140625 104.609375 C114.10378296 105.72928833 114.10378296 105.72928833 114.77954102 106.87182617 C115.55187264 108.21857847 116.29605836 109.58221196 116.99975586 110.96606445 C119.34056337 115.50690193 122.21944455 118.00132296 126.4375 120.6875 C132.91287194 125.0432081 138.52969879 129.9491362 144.16015625 135.3359375 C146.89143027 137.98018794 146.89143027 137.98018794 149.62109375 140.0390625 C152.15737755 142.12972665 154.03258825 144.37678433 156 147 C155.93941406 146.38068604 155.87882812 145.76137207 155.81640625 145.12329102 C155.53983674 142.27010418 155.26988266 139.4163268 155 136.5625 C154.90460938 135.58861328 154.80921875 134.61472656 154.7109375 133.61132812 C152.40860341 109.02568909 156.30231021 84.71953685 171.875 64.8125 C173.23882108 63.19881857 174.6138756 61.59456416 176 60 C176.66515625 59.19046875 177.3303125 58.3809375 178.015625 57.546875 C196.80663578 35.41524008 225.40688653 22.16441365 252.5 13.375 C253.25869385 13.1270166 254.0173877 12.8790332 254.79907227 12.62353516 C259.27580306 11.25638681 263.28925627 10.33825267 268 11 C273.22218791 14.73683506 275.58146762 20.45725255 278.25 26.125 C278.72308594 27.12402344 279.19617188 28.12304688 279.68359375 29.15234375 C287.20500343 45.50586453 293.48567489 63.10788296 296 81 C296.27070312 82.81951172 296.27070312 82.81951172 296.546875 84.67578125 C299.66598088 110.45445457 295.53719343 135.64790165 279.90234375 156.84375 C260.26354015 181.5048226 230.6079004 200.04717802 200 208 C199.01 208 198.02 208 197 208 C197.27674561 208.78310547 197.55349121 209.56621094 197.83862305 210.37304688 C218.18654416 268.40591075 220.57567952 328.92029026 194.0625 385.84375 C186.88043249 400.61169604 178.30741826 414.23409239 168 427 C167.55865723 427.55558594 167.11731445 428.11117188 166.66259766 428.68359375 C154.29080082 444.1936705 140.15371422 457.50773063 124 469 C123.38334473 469.44537109 122.76668945 469.89074219 122.13134766 470.34960938 C105.26224014 482.45325124 86.64476188 491.40015597 67 498 C66.16033691 498.28214355 65.32067383 498.56428711 64.45556641 498.85498047 C31.31963354 509.70842152 -7.77237652 512.6084172 -42 505 C-42.93440918 504.80132324 -43.86881836 504.60264648 -44.83154297 504.39794922 C-59.40995368 501.2390175 -73.27413535 496.82707069 -87 491 C-88.12245117 490.52457764 -88.12245117 490.52457764 -89.26757812 490.03955078 C-105.82833773 482.90244057 -121.11128092 473.4906059 -135 462 C-135.57202148 461.52949219 -136.14404297 461.05898438 -136.73339844 460.57421875 C-179.91428191 424.86106035 -208.76998727 373.37057472 -214.79428101 317.40701294 C-215.1274164 313.5091658 -215.16253079 309.62502962 -215.16796875 305.71484375 C-215.17129715 304.85548721 -215.17462555 303.99613068 -215.17805481 303.11073303 C-215.18308513 301.30144784 -215.18546435 299.4921535 -215.18530273 297.68286133 C-215.18747499 294.9687497 -215.20563353 292.25505487 -215.22460938 289.54101562 C-215.3198235 260.6660982 -215.3198235 260.6660982 -211 254 C-208.67313547 252.83656773 -207.15278587 252.80104012 -204.5625 252.75 C-203.78003906 252.72421875 -202.99757812 252.6984375 -202.19140625 252.671875 C-200 253 -200 253 -198.23046875 254.19140625 C-196.5669859 256.636462 -196.66712057 258.24942414 -196.75 261.1875 C-196.77320313 262.53908203 -196.77320313 262.53908203 -196.796875 263.91796875 C-196.9456489 266.17532654 -197.19446596 268.42668511 -197.5 270.66821289 C-198.03859383 274.91892798 -198.17718893 279.10948211 -198.203125 283.390625 C-198.21018463 284.16875046 -198.21724426 284.94687592 -198.22451782 285.74858093 C-198.47058234 309.53629096 -198.47058234 309.53629096 -195 333 C-194.70198486 334.34408936 -194.70198486 334.34408936 -194.39794922 335.71533203 C-182.98834955 386.16541956 -152.66317413 432.00473903 -108.83862305 460.06005859 C-79.94100206 478.04179209 -46.02127899 490.99465041 -11.609375 491.203125 C-10.83124954 491.21018463 -10.05312408 491.21724426 -9.25141907 491.22451782 C14.53629096 491.47058234 14.53629096 491.47058234 38 488 C38.89605957 487.80132324 39.79211914 487.60264648 40.71533203 487.39794922 C66.88450422 481.47962889 92.26919776 470.9194355 114 455 C115.04027344 454.24332031 116.08054687 453.48664063 117.15234375 452.70703125 C139.3110018 436.28242641 157.24437836 415.88700763 171 392 C171.35271973 391.4009082 171.70543945 390.80181641 172.06884766 390.18457031 C197.3292016 346.92886056 203.17032955 292.98273754 191.17773438 244.6940918 C183.58933779 216.1473967 170.35743572 189.41805697 151 167 C150.34128906 166.23171875 149.68257813 165.4634375 149.00390625 164.671875 C138.97733458 153.26549989 128.50954599 142.66045492 116 134 C113.11612221 135.35216838 110.64582025 136.89752336 108.109375 138.8203125 C107.40039062 139.35527344 106.69140625 139.89023438 105.9609375 140.44140625 C105.23132813 140.99699219 104.50171875 141.55257812 103.75 142.125 C103.00492187 142.68832031 102.25984375 143.25164062 101.4921875 143.83203125 C99.65925189 145.21848254 97.82862987 146.60787768 96 148 C98.72166713 150.86524131 101.48046876 153.10404334 104.75 155.3125 C141.02697941 181.40476594 163.8855883 222.79628437 171.30859375 266.37109375 C178.24275873 311.23839882 167.93628064 358.27144089 141.17578125 395.15625 C137.56485627 399.87573543 133.87239642 404.49203259 130 409 C129.20722656 409.928125 128.41445313 410.85625 127.59765625 411.8125 C121.90143444 418.29161485 115.78513923 423.69543306 109 429 C108.21109375 429.66644531 107.4221875 430.33289063 106.609375 431.01953125 C75.50677895 457.12717396 32.17181127 469.67382547 -8 468 C-9.155 467.95875 -10.31 467.9175 -11.5 467.875 C-21.62182304 467.33275948 -21.62182304 467.33275948 -26 464 C-26.8125 460.8125 -26.8125 460.8125 -27 458 C-28.175625 457.9175 -29.35125 457.835 -30.5625 457.75 C-36.38864809 457.12014615 -41.92196317 455.5115494 -47.546875 453.9375 C-51.73569724 452.78165221 -51.73569724 452.78165221 -56 452 C-57.02196992 452.97753644 -58.01979625 453.9805881 -59 455 C-64.6370918 456.75679412 -68.17329795 455.14102365 -73.25 452.75 C-74.03358887 452.38865967 -74.81717773 452.02731934 -75.62451172 451.6550293 C-116.50444314 432.28419336 -148.6378378 397.19099503 -164.3515625 354.80322266 C-180.197326 310.15378927 -178.36937261 261.50928023 -158.375 218.5 C-151.4684717 204.11414897 -142.5324325 190.98133856 -132 179 C-131.17628906 178.05511719 -130.35257812 177.11023438 -129.50390625 176.13671875 C-124.65008561 170.67709402 -119.65529477 165.62849544 -114 161 C-117.15066744 157.79662622 -120.37525967 154.71696509 -123.70556641 151.70141602 C-129.18328015 146.73398359 -134.28051171 141.70271502 -139 136 C-139.7940625 135.09378906 -140.588125 134.18757812 -141.40625 133.25390625 C-154.41753879 118.36000112 -165.19871733 102.14780408 -175 85 C-175.42780762 84.25959473 -175.85561523 83.51918945 -176.29638672 82.75634766 C-177.46503137 80.7217656 -178.61233779 78.67703524 -179.75 76.625 C-180.38421875 75.48289062 -181.0184375 74.34078125 -181.671875 73.1640625 C-183.10230235 69.75627971 -183.47172694 67.65207955 -183 64 C-172.67182609 44.30815092 -140.0568152 28.75029618 -121 19 C-120.15147461 18.56349121 -119.30294922 18.12698242 -118.42871094 17.67724609 C-82.88503671 -0.41919078 -39.46335285 -12.37378075 0 0 Z " fill="#000101" transform="translate(215,4)"/>
<path d="M0 0 C0.6084375 0.3403125 1.216875 0.680625 1.84375 1.03125 C4.88316239 2.71186626 7.93856375 4.35982076 11 6 C11.59441895 6.32097656 12.18883789 6.64195312 12.80126953 6.97265625 C28.90978809 15.60448652 44.90157441 20.56120506 63 23 C63 23.66 63 24.32 63 25 C61.49609375 26.48046875 61.49609375 26.48046875 59.4375 28.1875 C58.33728516 29.13496094 58.33728516 29.13496094 57.21484375 30.1015625 C55.87809977 31.24734305 54.53795484 32.38919571 53.19140625 33.5234375 C44.72262721 41.22943968 37.25569292 54.23948364 36.53125 65.84765625 C36.49678881 67.58562709 36.48720688 69.32423462 36.5 71.0625 C36.50644531 71.98208496 36.51289063 72.90166992 36.51953125 73.84912109 C36.86523348 86.90620347 40.95666596 98.33411761 50 108 C60.81552057 117.64518439 74.02153808 119.00368806 87.88769531 118.25390625 C96.53236051 117.54866215 105.10640722 116.18574048 113.67578125 114.875 C118.18580465 114.21281272 122.4500441 113.6068735 127 114 C133.76982544 120.76982544 132.3070506 135.44001015 132.34375 144.21484375 C132.35743588 145.56044136 132.37222933 146.9060281 132.38806152 148.25160217 C132.43576547 152.48016998 132.46901552 156.70878091 132.5 160.9375 C132.53597845 165.84330923 132.57827417 170.74890611 132.63594055 175.65451241 C132.6556452 177.59284965 132.66412104 179.53129091 132.67224121 181.4697113 C132.75791567 189.16500821 133.48004893 196.45585816 135 204 C135.21372253 205.10195961 135.21372253 205.10195961 135.4317627 206.22618103 C137.23985251 214.48190867 140.63870441 221.34184529 147.74609375 226.19140625 C154.18973975 229.91238493 159.98409903 229.84413839 167.140625 228.33984375 C179.6120655 224.92645186 188.88075061 217.96256126 198 209 C198.62648438 208.38640625 199.25296875 207.7728125 199.8984375 207.140625 C205.48635158 201.22401009 209.29626004 194.18225249 213 187 C213.38671875 186.25105469 213.7734375 185.50210938 214.171875 184.73046875 C218.02038981 175.52670928 216.72017509 163.20352892 215 153.625 C213.00541668 142.25009366 211.25387689 127.03735837 218 117 C226.98089534 105.14741307 239.05744073 96.988982 252 90 C252.66 90 253.32 90 254 90 C256.43286975 97.78518321 257.15626125 105.37372918 257.203125 113.49609375 C257.20882507 114.28790543 257.21452515 115.0797171 257.22039795 115.89552307 C257.22978871 117.56534517 257.23635815 119.2351853 257.24023438 120.9050293 C257.24985511 123.39992727 257.28089961 125.89396943 257.3125 128.38867188 C257.57503672 168.04669822 240.29570914 205.74045933 213 234 C211.72382812 235.37091797 211.72382812 235.37091797 210.421875 236.76953125 C190.43304604 257.68598551 164.80751328 270.37024134 137.125 277.875 C136.42576416 278.06618408 135.72652832 278.25736816 135.00610352 278.4543457 C120.80207185 282.05230842 106.87561644 282.21077771 92.35595703 281.88354492 C90.04460472 281.83548054 87.73354185 281.80553442 85.421875 281.77734375 C84.7188324 281.75558578 84.01578979 281.73382782 83.29144287 281.71141052 C79.45889672 281.66891574 79.45889672 281.66891574 76.09863281 283.32641602 C74.81628249 285.12405548 74.81628249 285.12405548 74 288 C63.74374107 287.51735252 53.44952735 285.01379924 44 281 C44 279.948125 44 278.89625 44 277.8125 C43.34847292 273.77808098 43.34847292 273.77808098 39.9375 271.5625 C36.46384456 269.65417224 32.88219037 267.9537247 29.32250977 266.2121582 C26.53576512 264.83437904 23.77414761 263.40881554 21.00976562 261.98681641 C19.13042438 261.06403977 17.23581723 260.2677045 15.296875 259.48046875 C11.53602127 257.64905775 9.46162841 256.40876053 7 253 C5.70566334 246.62735923 6.45333872 240.02728987 6.87939453 233.58886719 C7.50005923 220.26593514 2.03889354 207.72497248 -4.86328125 196.6328125 C-6.8637285 191.9994742 -6.44786672 188.29466107 -4.8203125 183.58984375 C-4.26833692 182.36638753 -3.70236642 181.14918072 -3.125 179.9375 C-2.81981445 179.26775146 -2.51462891 178.59800293 -2.20019531 177.90795898 C-1.14574354 175.59945906 -0.07284834 173.30000423 1 171 C2.3121403 168.15584723 3.61944074 165.3095693 4.92236328 162.46118164 C5.7874746 160.57234996 6.6579838 158.68597837 7.53466797 156.80249023 C14.21889068 142.38362947 14.21889068 142.38362947 13.35546875 126.8515625 C12.64773639 125.19902486 11.8304247 123.59441543 11 122 C10.67 121.01 10.34 120.02 10 119 C8.15337801 117.87538327 8.15337801 117.87538327 6 117 C5.39438232 116.68087646 4.78876465 116.36175293 4.16479492 116.03295898 C-1.35066655 113.16192641 -6.97819051 111.20759027 -12.90820312 109.37695312 C-20.77905353 106.77226233 -24.33508906 102.01026154 -28.1875 94.8125 C-28.56479248 94.12631592 -28.94208496 93.44013184 -29.33081055 92.7331543 C-30.56165906 90.49293441 -31.78111885 88.24675066 -33 86 C-34.33023484 83.56172771 -35.66383098 81.12542062 -37.00317383 78.69213867 C-37.85699092 77.14036631 -38.70602532 75.58594989 -39.54956055 74.02856445 C-41.33172262 70.78231359 -42.90090019 68.10838542 -45.41796875 65.35546875 C-47 63 -47 63 -46.5 60.1875 C-46.005 59.135625 -45.51 58.08375 -45 57 C-44.71511719 56.3915625 -44.43023437 55.783125 -44.13671875 55.15625 C-36.62836658 39.58337142 -27.0387913 26.34993302 -15 14 C-14.46987305 13.45472656 -13.93974609 12.90945312 -13.39355469 12.34765625 C-11.76884969 10.68355864 -10.13702073 9.0269798 -8.5 7.375 C-7.99549316 6.86565918 -7.49098633 6.35631836 -6.97119141 5.83154297 C-4.73591566 3.60687891 -2.63539257 1.75692838 0 0 Z " fill="#96C8E7" transform="translate(115,174)"/>
<path d="M0 0 C0.78761719 0.51691406 1.57523438 1.03382813 2.38671875 1.56640625 C3.37027344 2.17613281 4.35382813 2.78585938 5.3671875 3.4140625 C11.68406187 7.77662982 17.55434036 12.25897134 23.1796875 17.51171875 C25.09519973 19.29500978 27.05197642 20.96986044 29.07421875 22.62890625 C45.90125193 37.07438717 61.10294182 61.49727183 67.38671875 82.56640625 C67.44140625 84.9921875 67.44140625 84.9921875 66.38671875 87.56640625 C63.9758264 89.49757417 61.29754394 90.87426989 58.57421875 92.31640625 C50.98851161 96.54607052 44.18341325 101.1354027 37.38671875 106.56640625 C36.72414063 107.05238281 36.0615625 107.53835938 35.37890625 108.0390625 C26.62667959 114.77003502 20.21444817 125.73884465 18.38671875 136.56640625 C17.54710225 147.59131824 18.12837462 158.44339396 19.92578125 169.33203125 C22.1055379 184.62727283 18.49612517 195.32728054 9.38671875 207.56640625 C2.01515417 216.30496808 -8.13139784 224.69876255 -19.67578125 226.97265625 C-21.79048862 227.0749808 -23.5459775 227.04766117 -25.61328125 226.56640625 C-33.38886014 219.29793033 -34.2374074 209.23962993 -34.80932617 199.08584595 C-34.90399354 195.41827874 -34.94163791 191.75467899 -34.95703125 188.0859375 C-34.97072303 186.73840719 -34.98551725 185.39088768 -35.00134277 184.04338074 C-35.05696551 179.10772754 -35.09283467 174.17197249 -35.12896729 169.23614502 C-35.16044944 165.03872327 -35.19979049 160.84151221 -35.2492218 156.64426231 C-35.26898106 154.702505 -35.27741402 152.7606428 -35.28552246 150.81880188 C-35.423716 138.47117785 -36.68566964 124.00562884 -45.61328125 114.56640625 C-51.50634421 110.21676454 -58.74899987 111.09431461 -65.71679688 111.94555664 C-68.99986744 112.45847328 -72.27499035 113.00898068 -75.55078125 113.56640625 C-107.452975 118.57225991 -107.452975 118.57225991 -117.640625 112.17578125 C-123.69327932 107.23777416 -128.79464475 101.30368226 -130.61328125 93.56640625 C-131.80965639 81.0476354 -130.74733764 70.62197164 -122.86328125 60.37890625 C-121.46628789 58.75757819 -120.05025923 57.15240417 -118.61328125 55.56640625 C-118.0409375 54.90125 -117.46859375 54.23609375 -116.87890625 53.55078125 C-110.98262971 47.13271033 -103.625965 42.43794218 -96.36132812 37.70922852 C-94.95246 36.78815146 -93.56935616 35.82773227 -92.1953125 34.85546875 C-88.4370414 32.97917607 -84.60585488 32.45474459 -80.48828125 31.75390625 C-54.60559372 26.93273745 -27.95031026 16.58142555 -6.2421875 1.57421875 C-2.97521809 -0.49364605 -2.97521809 -0.49364605 0 0 Z " fill="#B9EA6B" transform="translate(296.61328125,162.43359375)"/>
<path d="M0 0 C2.43286975 7.78518321 3.15626125 15.37372918 3.203125 23.49609375 C3.20882507 24.28790543 3.21452515 25.0797171 3.22039795 25.89552307 C3.22978871 27.56534517 3.23635815 29.2351853 3.24023438 30.9050293 C3.24985511 33.39992727 3.28089961 35.89396943 3.3125 38.38867188 C3.57503672 78.04669822 -13.70429086 115.74045933 -41 144 C-41.85078125 144.91394531 -42.7015625 145.82789063 -43.578125 146.76953125 C-69.00358364 173.37491387 -107.47332434 190.87337938 -144.37109375 192.11328125 C-146.91871031 192.12301736 -149.45441477 192.09526099 -152 192 C-149.60150272 190.40100181 -147.74141549 189.40693006 -145.11328125 188.37109375 C-129.38529216 182.04381791 -115.21118176 174.74808008 -102 164 C-101.44070801 163.54753906 -100.88141602 163.09507812 -100.30517578 162.62890625 C-90.10627544 154.32348451 -81.15389791 145.35206855 -73 135 C-73.33 134.34 -73.66 133.68 -74 133 C-73.33355469 132.62230469 -72.66710937 132.24460937 -71.98046875 131.85546875 C-56.5414629 122.63525127 -44.82327338 108.56494543 -38.8046875 91.546875 C-36.73032405 82.40356425 -37.38433496 72.80009053 -39 63.625 C-40.99458332 52.25009366 -42.74612311 37.03735837 -36 27 C-29.39518823 18.28326267 -12.16724716 0 0 0 Z " fill="#5FB4FC" transform="translate(369,264)"/>
<path d="M0 0 C28.65835486 -1.60868104 55.90774089 13.86913145 77.140625 31.80859375 C80.11575846 33.71492927 82.65646084 32.65676662 86 32 C91.82530131 32 93.99302119 35.03497908 98 39 C107 48.3627907 107 48.3627907 107 51 C106.34 51 105.68 51 105 51 C103.70476321 56.65405834 103.70476321 56.65405834 105.59765625 61.88671875 C106.41105469 62.81097656 107.22445312 63.73523438 108.0625 64.6875 C108.98980931 65.79386775 109.90990391 66.90630701 110.82421875 68.0234375 C111.5829126 68.94914551 111.5829126 68.94914551 112.35693359 69.89355469 C115.59119356 74.03994324 118.46613385 78.4348648 121.375 82.8125 C121.96933838 83.69574951 122.56367676 84.57899902 123.17602539 85.48901367 C126.51609399 90.51734373 129.42501732 95.53926087 132 101 C120.73485579 100.35815945 109.81221839 97.95664815 98.78686523 95.6965332 C97.18230059 95.36976129 95.57756527 95.04382629 93.97265625 94.71875 C93.18984787 94.560009 92.40703949 94.40126801 91.60050964 94.23771667 C87.21723311 93.37045441 82.88709629 92.70221016 78.43359375 92.28125 C65.33609338 90.94871871 65.33609338 90.94871871 60.34375 85.421875 C57.41146586 81.64996881 54.95921784 77.63186843 52.5390625 73.51855469 C49.98250453 69.33494872 47.01321254 65.47294581 44.0625 61.5625 C42.88636296 59.97257923 41.71188811 58.38142755 40.5390625 56.7890625 C39.35948496 55.19262708 38.17979735 53.59627298 37 52 C28.44152752 40.4203348 19.926781 28.81238265 11.52392578 17.11914062 C10.00698815 15.00971758 8.48611486 12.90317417 6.96484375 10.796875 C6.03886244 9.51056066 5.11307057 8.22410992 4.1875 6.9375 C3.76049805 6.34735107 3.33349609 5.75720215 2.89355469 5.14916992 C0 1.11434965 0 1.11434965 0 0 Z " fill="#07AF28" transform="translate(182,15)"/>
<path d="M0 0 C0.94955566 0.19264938 1.89911133 0.38529877 2.87744141 0.58378601 C5.89900458 1.19830738 8.91826402 1.82337392 11.9375 2.44921875 C14.9200912 3.06031812 17.90312739 3.66920642 20.88623047 4.27780151 C22.824242 4.67331448 24.76207044 5.06972577 26.69970703 5.46707153 C34.76250657 7.11616187 42.84168185 8.65840943 50.9375 10.13671875 C50.9375 10.79671875 50.9375 11.45671875 50.9375 12.13671875 C49.63085938 13.30664063 49.63085938 13.30664063 47.78125 14.60546875 C47.09667725 15.08910889 46.41210449 15.57274902 45.70678711 16.07104492 C44.58348999 16.84605347 44.58348999 16.84605347 43.4375 17.63671875 C42.66865479 18.17208252 41.89980957 18.70744629 41.10766602 19.2590332 C33.5421526 24.48418613 25.81823833 29.40353665 17.9375 34.13671875 C17.32148926 34.51393066 16.70547852 34.89114258 16.07080078 35.27978516 C-5.23836531 48.26796116 -29.3558668 57.59889291 -54.0625 61.13671875 C-55.3309375 61.32234375 -56.599375 61.50796875 -57.90625 61.69921875 C-71.70910409 63.36249718 -85.62914833 62.65198835 -99.0625 59.13671875 C-99.0625 58.47671875 -99.0625 57.81671875 -99.0625 57.13671875 C-97.71166992 55.93847656 -97.71166992 55.93847656 -95.79296875 54.58984375 C-95.07890869 54.08203369 -94.36484863 53.57422363 -93.62915039 53.05102539 C-92.84403076 52.5018042 -92.05891113 51.95258301 -91.25 51.38671875 C-89.58529522 50.20402852 -87.92125337 49.02040473 -86.2578125 47.8359375 C-85.39575195 47.22411621 -84.53369141 46.61229492 -83.64550781 45.98193359 C-79.60708897 43.09702153 -75.61516701 40.15033612 -71.625 37.19921875 C-70.83891357 36.61881836 -70.05282715 36.03841797 -69.24291992 35.44042969 C-67.64626301 34.26153022 -66.04982735 33.08233103 -64.45361328 31.90283203 C-59.71134559 28.40011971 -54.96355073 24.90490147 -50.21630859 21.40893555 C-46.0929493 18.37181917 -41.97226159 15.33116905 -37.85546875 12.28515625 C-37.00082031 11.65351563 -36.14617187 11.021875 -35.265625 10.37109375 C-33.63587948 9.16649924 -32.00692216 7.96083732 -30.37890625 6.75390625 C-28.9250486 5.67997656 -27.46616901 4.61279957 -26.00146484 3.55371094 C-24.31266208 2.31953677 -22.6623016 1.03309639 -21.01953125 -0.26171875 C-14.56683643 -3.75657327 -6.84789606 -1.43772912 0 0 Z " fill="#48C95B" transform="translate(260.0625,120.86328125)"/>
<path d="M0 0 C2.33839466 2.14262208 3.75803123 4.15720409 5.1640625 6.9921875 C5.55899902 7.77376221 5.95393555 8.55533691 6.36083984 9.3605957 C6.7780127 10.19034912 7.19518555 11.02010254 7.625 11.875 C16.97353448 30.24734857 16.97353448 30.24734857 34 41 C34.67675781 41.25330078 35.35351562 41.50660156 36.05078125 41.76757812 C40.34035259 43.37548147 40.34035259 43.37548147 44.65649414 44.90991211 C50.74971811 47.05864278 50.74971811 47.05864278 53 50 C53.53262384 55.88346718 51.32445663 61.57983103 49 66.875 C48.69674805 67.59187988 48.39349609 68.30875977 48.08105469 69.04736328 C45.63962843 74.73870821 42.94839175 80.30234263 40.25 85.875 C35.77121599 95.173578 31.58029213 104.44137912 33 115 C34.29033246 118.58837329 36.02675499 121.88601071 37.8125 125.25 C43.64340971 136.86504199 46.71296001 146.82344272 46 160 C15.6233353 134.58279076 -2.08764523 95.92719112 -5.80151367 56.82519531 C-7.16414583 37.42989474 -6.88246646 18.35324388 0 0 Z " fill="#B8E86A" transform="translate(62,255)"/>
<path d="M0 0 C6.15101986 1.60707652 12.41070465 2.57465222 18.67773438 3.61572266 C25.70908833 4.82628435 32.65802665 6.08232902 39.55273438 7.92822266 C36.08651664 11.56711176 32.57379172 14.48346351 28.42773438 17.36572266 C27.17807145 18.24325627 25.92942898 19.12224433 24.68164062 20.00244141 C24.01535645 20.47214355 23.34907227 20.9418457 22.66259766 21.42578125 C18.86347485 24.13115058 15.11589065 26.90624905 11.36523438 29.67822266 C10.56400146 30.26974121 9.76276855 30.86125977 8.93725586 31.47070312 C6.47514727 33.28906398 4.01385149 35.10852015 1.55273438 36.92822266 C-8.04764989 44.02458116 -17.65705769 51.10777962 -27.32226562 58.11572266 C-28.06549072 58.65656494 -28.80871582 59.19740723 -29.57446289 59.75463867 C-30.93552311 60.73863038 -32.30354695 61.71309762 -33.67993164 62.67553711 C-35.16586731 63.72876765 -36.60412486 64.84880958 -38.02929688 65.98291016 C-40.44726562 66.92822266 -40.44726562 66.92822266 -43.65429688 65.89306641 C-44.87072989 65.24395214 -46.07197287 64.5658705 -47.25976562 63.86572266 C-48.22958374 63.32057007 -48.22958374 63.32057007 -49.21899414 62.7644043 C-60.08762956 56.45623629 -70.27342425 48.49852184 -79.44726562 39.92822266 C-78.09735197 36.77744257 -76.78451584 35.14159148 -73.98242188 33.18603516 C-73.27472656 32.68458984 -72.56703125 32.18314453 -71.83789062 31.66650391 C-71.06960937 31.13412109 -70.30132812 30.60173828 -69.50976562 30.05322266 C-67.86452543 28.89016236 -66.22001738 27.72606585 -64.57617188 26.56103516 C-63.72684082 25.96194336 -62.87750977 25.36285156 -62.00244141 24.74560547 C-58.74123132 22.42605187 -55.5192184 20.0568025 -52.30615234 17.67114258 C-50.7262144 16.50376761 -49.13784169 15.34772753 -47.54150391 14.20288086 C-43.52984753 11.31173285 -39.76953215 8.36507156 -36.16210938 4.97900391 C-23.92309438 -6.04032509 -15.2284028 -4.28813448 0 0 Z " fill="#48C95B" transform="translate(183.447265625,106.07177734375)"/>
<path d="M0 0 C8.42050448 5.08990622 16.04997201 10.70994837 23.2421875 17.42578125 C25.15769973 19.20907228 27.11447642 20.88392294 29.13671875 22.54296875 C45.96375193 36.98844967 61.16544182 61.41133433 67.44921875 82.48046875 C67.50390625 84.90625 67.50390625 84.90625 66.44921875 87.48046875 C64.03835339 89.41161505 61.36020173 90.7886761 58.63671875 92.23046875 C52.02505032 95.90801409 46.02258206 99.79774383 40.0625 104.47265625 C37.26629984 106.62100735 34.40074727 108.5531163 31.44921875 110.48046875 C31.24167969 109.26875 31.03414063 108.05703125 30.8203125 106.80859375 C24.05600615 69.20678542 5.53628222 38.02205341 -21.55078125 11.48046875 C-17.74159308 8.29171653 -13.81301717 5.6282024 -9.55078125 3.10546875 C-8.9475 2.72519531 -8.34421875 2.34492188 -7.72265625 1.953125 C-4.92994234 0.30785224 -3.24368237 -0.66065812 0 0 Z " fill="#95D428" transform="translate(296.55078125,162.51953125)"/>
<path d="M0 0 C1.53881836 1.46435547 1.53881836 1.46435547 2.83984375 3.3671875 C3.33798584 4.0780249 3.83612793 4.7888623 4.34936523 5.52124023 C5.13549194 6.68635132 5.13549194 6.68635132 5.9375 7.875 C7.09260122 9.53074993 8.24888993 11.18567195 9.40625 12.83984375 C9.99921875 13.69562012 10.5921875 14.55139648 11.203125 15.43310547 C14.04194087 19.48844651 16.98873833 23.46176724 19.9375 27.4375 C21.112183 29.02849536 22.2866611 30.61964202 23.4609375 32.2109375 C24.64051504 33.80737292 25.82020265 35.40372702 27 37 C37.78028517 51.58579124 48.46698347 66.23445022 59 81 C55.33219361 82.22260213 53.47559304 81.68946757 49.69921875 80.92578125 C48.42159668 80.67231934 47.14397461 80.41885742 45.82763672 80.15771484 C44.44752544 79.87629861 43.06748113 79.59455376 41.6875 79.3125 C38.87169635 78.74567122 36.05505058 78.18310159 33.23828125 77.62109375 C32.5366687 77.48036438 31.83505615 77.33963501 31.11218262 77.19464111 C26.82857506 76.34163321 22.54006476 75.56104494 18.23046875 74.84765625 C17.23120361 74.68031982 16.23193848 74.5129834 15.20239258 74.34057617 C13.36693177 74.0383377 11.52955128 73.74745618 9.69018555 73.4699707 C3.22696727 72.38735778 -0.05959535 70.47497052 -4.18359375 65.21484375 C-4.92738281 64.13332031 -5.67117187 63.05179687 -6.4375 61.9375 C-7.31489657 60.67863395 -8.19389245 59.42088154 -9.07421875 58.1640625 C-9.77877197 57.15520996 -9.77877197 57.15520996 -10.49755859 56.12597656 C-13.19190221 52.31344095 -15.97360954 48.5654831 -18.75 44.8125 C-19.33426758 44.02149902 -19.91853516 43.23049805 -20.52050781 42.41552734 C-21.72575999 40.78394752 -22.93133058 39.15260286 -24.13720703 37.52148438 C-27.92107251 32.39962819 -31.69419436 27.26984595 -35.46972656 22.1418457 C-36.2948877 21.02169067 -36.2948877 21.02169067 -37.13671875 19.87890625 C-37.61842529 19.2247876 -38.10013184 18.57066895 -38.59643555 17.89672852 C-39.59996198 16.54059756 -40.63077609 15.20449018 -41.67895508 13.88256836 C-43 12 -43 12 -43 10 C-33.93931313 6.22255032 -24.88536072 3.27315148 -15.3125 1.0625 C-14.36874512 0.83925049 -13.42499023 0.61600098 -12.45263672 0.38598633 C-11.55689941 0.1877124 -10.66116211 -0.01056152 -9.73828125 -0.21484375 C-8.94462158 -0.39136475 -8.15096191 -0.56788574 -7.33325195 -0.74975586 C-4.58699792 -1.04429498 -2.63365079 -0.83999258 0 0 Z " fill="#48C85A" transform="translate(165,17)"/>
<path d="M0 0 C0.28823904 5.42733029 -0.59813282 9.74180898 -2.5625 14.75 C-2.83425049 15.4502832 -3.10600098 16.15056641 -3.38598633 16.87207031 C-14.60839982 44.76330385 -41.68011551 61.74943263 -68.1953125 73.25 C-71.74292849 74.72433392 -75.31284702 75.92737368 -79 77 C-77.10372917 71.08850586 -74.99761948 65.32385456 -72.6015625 59.59765625 C-72.28472504 58.8350499 -71.96788757 58.07244354 -71.64144897 57.28672791 C-70.97576192 55.68699428 -70.30847706 54.08792467 -69.63964844 52.48950195 C-68.62973923 50.07383608 -67.62705551 47.65526067 -66.625 45.23632812 C-65.34608761 42.15104062 -64.0337275 39.08337728 -62.6965332 36.02294922 C-61.66631048 33.65231143 -60.82456875 31.41856279 -60.07495117 28.93408203 C-58.49677126 24.30209068 -56.48403697 22.07670001 -52.18652344 19.84204102 C-47.24984694 17.53695965 -42.1675149 15.64375816 -37.0625 13.75 C-35.32361379 13.0787656 -33.58596771 12.40430922 -31.84960938 11.7265625 C-28.47859815 10.41327795 -25.10137883 9.11829828 -21.71923828 7.83398438 C-16.28112182 5.74931097 -10.9613687 3.42690999 -5.65014648 1.04003906 C-3 0 -3 0 0 0 Z " fill="#07AF27" transform="translate(495,118)"/>
<path d="M0 0 C0.66 0 1.32 0 2 0 C2.44802979 1.0923999 2.89605957 2.1847998 3.35766602 3.31030273 C5.05546451 7.44983689 6.75341928 11.58930692 8.45141602 15.72875977 C9.17964728 17.50413351 9.90783882 19.27952354 10.63598633 21.05493164 C11.34333984 22.77962451 12.05097116 24.50420346 12.75888062 26.22866821 C13.46441311 27.94987594 14.16804481 29.67186403 14.86978149 31.3946228 C16.57529246 35.57390141 18.30991457 39.73446756 20.12451172 43.86767578 C20.45603745 44.6349147 20.78756317 45.40215363 21.12913513 46.19264221 C21.74979686 47.62525776 22.38206085 49.05292743 23.0282135 50.47422791 C25.80604199 56.94272835 24.52599485 60.81427252 22.05053711 67.08740234 C21.21602749 69.08965863 20.37456244 71.08902563 19.52734375 73.0859375 C19.0848378 74.14285797 18.64233185 75.19977844 18.18641663 76.28872681 C16.77610625 79.65337174 15.35693822 83.01419706 13.9375 86.375 C12.97792852 88.65990978 12.0189374 90.94506338 11.06054688 93.23046875 C8.71375026 98.82315585 6.35967631 104.41273587 4 110 C1.80932024 107.16361633 0.32948744 104.6983357 -0.90234375 101.32421875 C-1.23347168 100.4211499 -1.56459961 99.51808105 -1.90576172 98.58764648 C-2.41647217 97.15207397 -2.41647217 97.15207397 -2.9375 95.6875 C-3.29086426 94.70144775 -3.64422852 93.71539551 -4.00830078 92.69946289 C-12.76292273 67.90816728 -18.32019762 39.20333129 -8 14 C-2.49319372 2.49319372 -2.49319372 2.49319372 0 0 Z " fill="#48C85A" transform="translate(398,80)"/>
<path d="M0 0 C10.05930702 1.06774767 19.87340701 2.67735768 29.7734375 4.7265625 C34.77153776 5.75942407 39.77826544 6.74206006 44.7890625 7.7109375 C45.5725708 7.86248795 46.3560791 8.01403839 47.16333008 8.17018127 C50.34204987 8.78450016 53.52091049 9.39807869 56.70007324 10.01010132 C66.49262008 11.89649503 76.25800559 13.86486171 86 16 C83.57787659 18.5005795 81.17802752 20.72755883 78.33984375 22.7421875 C77.2866394 23.49532227 77.2866394 23.49532227 76.2121582 24.26367188 C75.461521 24.79541016 74.71088379 25.32714844 73.9375 25.875 C72.32490149 27.02777993 70.71294432 28.18145746 69.1015625 29.3359375 C68.26657227 29.93374023 67.43158203 30.53154297 66.57128906 31.14746094 C61.50080552 34.80059701 56.48229353 38.52444694 51.45874023 42.24169922 C47.00142002 45.53672353 42.51984966 48.79120607 38 52 C33.66008864 48.59142728 30.15888248 45.02731321 26.8125 40.625 C26.34400635 40.0170459 25.8755127 39.4090918 25.39282227 38.78271484 C23.91956577 36.86180274 22.45872803 34.93196088 21 33 C20.53368164 32.38769531 20.06736328 31.77539062 19.58691406 31.14453125 C14.17709981 24.02255824 9.07704275 16.75848401 4.3125 9.1875 C3.87800537 8.49930176 3.44351074 7.81110352 2.99584961 7.10205078 C0 2.25360939 0 2.25360939 0 0 Z " fill="#48C85A" transform="translate(55,82)"/>
<path d="M0 0 C0.96067383 0.17289551 1.92134766 0.34579102 2.91113281 0.52392578 C3.95172852 0.71100098 4.99232422 0.89807617 6.06445312 1.09082031 C9.39594289 1.72282497 12.7160136 2.39730801 16.03613281 3.08642578 C17.18339844 3.32039062 18.33066406 3.55435547 19.51269531 3.79541016 C22.31311261 4.36716202 25.11252078 4.94341369 27.91113281 5.52392578 C27.91113281 6.18392578 27.91113281 6.84392578 27.91113281 7.52392578 C26.60449219 8.69384766 26.60449219 8.69384766 24.75488281 9.99267578 C24.07031006 10.47631592 23.3857373 10.95995605 22.68041992 11.45825195 C21.93155518 11.97492432 21.18269043 12.49159668 20.41113281 13.02392578 C19.25786499 13.82697144 19.25786499 13.82697144 18.08129883 14.64624023 C10.51578542 19.87139317 2.79187114 24.79074368 -5.08886719 29.52392578 C-5.70487793 29.9011377 -6.32088867 30.27834961 -6.95556641 30.66699219 C-28.27173712 43.65943758 -52.3791224 52.96986842 -77.08886719 56.52392578 C-78.96251953 56.80816406 -78.96251953 56.80816406 -80.87402344 57.09814453 C-86.10065082 57.73411804 -91.33203774 57.6312675 -96.58886719 57.58642578 C-97.60207031 57.58191406 -98.61527344 57.57740234 -99.65917969 57.57275391 C-102.13580545 57.56107171 -104.61230375 57.5446916 -107.08886719 57.52392578 C-107.08886719 57.19392578 -107.08886719 56.86392578 -107.08886719 56.52392578 C-106.41726562 56.49556641 -105.74566406 56.46720703 -105.05371094 56.43798828 C-75.2510663 53.59231641 -44.80850956 30.7413818 -22.08886719 12.52392578 C-20.55359375 11.29609375 -20.55359375 11.29609375 -18.98730469 10.04345703 C-13.78137257 6.02969391 -13.78137257 6.02969391 -9.40527344 1.20361328 C-6.12279174 -1.17660111 -3.90976217 -0.56787034 0 0 Z " fill="#07AF27" transform="translate(283.0888671875,125.47607421875)"/>
<path d="M0 0 C-2.09731009 6.63876097 -4.58458027 13.04869608 -7.28125 19.46484375 C-7.69175598 20.44860489 -8.10226196 21.43236603 -8.52520752 22.44593811 C-9.84698121 25.6111226 -11.17337342 28.77434684 -12.5 31.9375 C-13.4067984 34.10602661 -14.31337338 36.27464665 -15.21972656 38.44335938 C-21.4380411 53.31315069 -27.68214173 68.17219159 -34 83 C-37.15471868 79.34436112 -38.68410491 75.26559818 -40.43359375 70.83203125 C-40.75280289 70.03778244 -41.07201202 69.24353363 -41.40089417 68.42521667 C-42.41873234 65.88985906 -43.42845884 63.35136998 -44.4375 60.8125 C-45.44445007 58.29210275 -46.45312039 55.77240846 -47.46339417 53.25334167 C-48.09011933 51.68923445 -48.71473148 50.12427814 -49.33677673 48.55830383 C-51.18515158 43.92869499 -53.15597041 39.37764729 -55.25038147 34.8535614 C-56 33 -56 33 -56 31 C-43.0944767 19.53222731 -18.24053759 0 0 0 Z " fill="#48C95B" transform="translate(466,35)"/>
<path d="M0 0 C4.44566822 4.15537272 7.93652602 8.76736842 11.5 13.6875 C12.10440918 14.51459473 12.70881836 15.34168945 13.33154297 16.19384766 C18.16300881 22.81530318 22.96214571 29.46090138 27.73632812 36.1237793 C29.8831505 39.1128643 32.03036922 42.0369843 34.3671875 44.8828125 C36 47 36 47 36 49 C28.69452189 48.48398993 21.70670354 47.46316143 14.5625 45.875 C3.87873258 43.57382767 -6.83230524 41.44596542 -17.5625 39.375 C-20.54299247 38.79960185 -23.52347537 38.22415458 -26.50390625 37.6484375 C-27.21218063 37.51170624 -27.92045502 37.37497498 -28.65019226 37.23410034 C-35.77349358 35.85602423 -42.88756477 34.43302977 -50 33 C-46.23857369 29.17062018 -42.45084078 25.89642634 -38.125 22.75 C-37.47080078 22.27328857 -36.81660156 21.79657715 -36.14257812 21.30541992 C-24.73285425 13.11252848 -12.43999813 6.47585718 0 0 Z " fill="#47C75A" transform="translate(107,34)"/>
<path d="M0 0 C7.76411473 9.12459405 10.62528304 23.47588348 13.4375 34.8125 C13.69635986 35.82465576 13.95521973 36.83681152 14.22192383 37.87963867 C15.9803403 45.32893029 16.28485625 52.36291911 16 60 C7.88228749 63.48713099 -0.23768078 66.96893677 -8.36083984 70.44335938 C-10.62707903 71.41273688 -12.89307362 72.38268667 -15.15869141 73.35351562 C-17.81251544 74.48950994 -20.46830976 75.62072855 -23.125 76.75 C-23.90464111 77.08451172 -24.68428223 77.41902344 -25.48754883 77.76367188 C-30.76997228 80 -30.76997228 80 -33 80 C-30.67102529 72.65833138 -27.85058435 65.60149518 -24.875 58.5 C-24.09288725 56.6233271 -23.31078845 54.74664835 -22.52906799 52.86981201 C-21.96262017 51.51030422 -21.3957445 50.15097462 -20.82847595 48.79180908 C-18.35894195 42.87257884 -15.91051198 36.9447493 -13.46484375 31.015625 C-12.29979492 28.1941661 -11.13448 25.37281728 -9.96905518 22.55151367 C-9.19760646 20.68284008 -8.42689587 18.8138616 -7.65692139 16.94458008 C-6.57178415 14.3110438 -5.48351837 11.67882119 -4.39453125 9.046875 C-4.06589584 8.24719299 -3.73726044 7.44751099 -3.39866638 6.62359619 C-1.11395534 1.11395534 -1.11395534 1.11395534 0 0 Z " fill="#06AE27" transform="translate(480,41)"/>
<path d="M0 0 C11.23383526 4.1926278 20.14216561 12.17188535 29 20 C29.92425781 20.81210937 30.84851563 21.62421875 31.80078125 22.4609375 C39.41474883 29.2314762 46.25450342 36.12525174 52.6328125 44.08203125 C54.15704029 45.96090609 55.71246449 47.81510768 57.3046875 49.63671875 C62.95875101 56.13425731 67.83902463 62.96929329 72.625 70.125 C73.25365967 71.06263184 73.88231934 72.00026367 74.5300293 72.96630859 C79 79.74230027 79 79.74230027 79 82 C77.02030146 81.88372713 75.04124787 81.7564632 73.0625 81.625 C71.96035156 81.55539063 70.85820312 81.48578125 69.72265625 81.4140625 C68.49417969 81.27742188 67.26570313 81.14078125 66 81 C65.26338135 80.93192139 64.5267627 80.86384277 63.76782227 80.79370117 C59.22813187 80.13562979 56.6583364 79.18056426 53.76953125 75.53515625 C52.75874259 74.06118036 51.7742836 72.56890995 50.8125 71.0625 C49.69422299 69.41563714 48.5743794 67.76983717 47.453125 66.125 C46.88529297 65.27550781 46.31746094 64.42601563 45.73242188 63.55078125 C42.95940529 59.4678504 40.01003891 55.52029407 37.0625 51.5625 C35.88747262 49.97175897 34.71299595 48.380611 33.5390625 46.7890625 C32.35948496 45.19262708 31.17979735 43.59627298 30 42 C22.90413123 32.3992465 15.82044793 22.79021469 8.8125 13.125 C8.27165771 12.3817749 7.73081543 11.6385498 7.17358398 10.87280273 C4.61357311 7.33178817 2.16861358 3.80066298 0 0 Z " fill="#47C85A" transform="translate(189,25)"/>
<path d="M0 0 C-4.73694416 17.20258669 -16.9197133 29.5575157 -30 41 C-30.33 40.34 -30.66 39.68 -31 39 C-30.18511463 36.64797471 -29.30602531 34.41093322 -28.32421875 32.12890625 C-28.03899857 31.45077377 -27.75377838 30.7726413 -27.45991516 30.07395935 C-26.85397626 28.63751708 -26.24426169 27.20266264 -25.63110352 25.76928711 C-24.69420303 23.57817625 -23.76897998 21.38242807 -22.84570312 19.18554688 C-22.25589182 17.79137732 -21.66541849 16.39748761 -21.07421875 15.00390625 C-20.65845833 14.01941246 -20.65845833 14.01941246 -20.23429871 13.01502991 C-17.71990452 7.15301403 -16.07545465 4.73487335 -10.125 2.3125 C-9.07570313 1.87550781 -8.02640625 1.43851563 -6.9453125 0.98828125 C-4 0 -4 0 0 0 Z " fill="#46C659" transform="translate(455,135)"/>
<path d="M0 0 C-2.23811399 7.00406547 -4.87005265 13.77276643 -7.6875 20.5625 C-8.31108398 22.07553711 -8.31108398 22.07553711 -8.94726562 23.61914062 C-9.96215979 26.0805506 -10.97978253 28.54079283 -12 31 C-12.33 31 -12.66 31 -13 31 C-13.24234375 30.09378906 -13.4846875 29.18757813 -13.734375 28.25390625 C-14.06953125 27.03574219 -14.4046875 25.81757812 -14.75 24.5625 C-15.07484375 23.36753906 -15.3996875 22.17257813 -15.734375 20.94140625 C-17.07010088 16.44671192 -19.01788522 12.24087442 -21 8 C-17.87745057 6.66087415 -14.75157642 5.32969342 -11.625 4 C-10.73554688 3.6184375 -9.84609375 3.236875 -8.9296875 2.84375 C-8.07890625 2.4828125 -7.228125 2.121875 -6.3515625 1.75 C-5.56604004 1.41484375 -4.78051758 1.0796875 -3.97119141 0.734375 C-2 0 -2 0 0 0 Z " fill="#07AC27" transform="translate(466,35)"/>
<path d="M0 0 C0.66 0 1.32 0 2 0 C2 7.59 2 15.18 2 23 C-8.75 28 -8.75 28 -11 28 C-8.94661139 21.48529224 -6.50465317 15.21269971 -3.8125 8.9375 C-3.44447266 8.07189453 -3.07644531 7.20628906 -2.69726562 6.31445312 C-1.80127408 4.20829117 -0.90215345 2.10352808 0 0 Z " fill="#44C257" transform="translate(458,93)"/>
</svg>
