<?xml version="1.0" encoding="UTF-8"?>
<svg version="1.1" xmlns="http://www.w3.org/2000/svg" width="512" height="512">
<path d="M0 0 C0.86625 0.66 1.7325 1.32 2.625 2 C3.429375 2.53625 4.23375 3.0725 5.0625 3.625 C9.79788639 8.0138947 13.19186301 13.61143836 16.5 19.125 C21.01237021 25.22997146 26.76489009 29.58389961 33.25 33.4375 C42.42568753 39.08407694 48.23316135 48.13306073 50.875 58.5 C51.1225 59.655 51.37 60.81 51.625 62 C52.59953125 61.67773438 53.5740625 61.35546875 54.578125 61.0234375 C65.10173769 58.03557762 78.00921107 58.79482589 87.625 64 C96.02347253 68.9965596 102.15145368 76.38697825 107.125 84.6875 C110.28214211 89.81607022 113.56371253 92.82613142 118.625 96 C130.48256992 103.57737629 138.44803622 111.50448379 142 125.6875 C142.86931548 130.49946851 143.86908569 136.51182861 141.625 141 C142.35976563 141.25910156 143.09453125 141.51820313 143.8515625 141.78515625 C154.35642239 146.38658079 160.9280907 157.1882126 165.0625 167.4375 C169.20535034 181.1931979 167.67573871 196.22005501 161.15234375 208.8515625 C153.84759048 221.38879861 143.31952046 229.06106981 129.4375 232.8125 C125.03807031 233.82294966 121.12202417 234.30661528 116.625 234 C116.51285156 234.89138672 116.51285156 234.89138672 116.3984375 235.80078125 C114.4802418 247.89293648 108.20621984 257.62937497 98.5625 265.0625 C92.04030926 269.66691921 84.76411079 274 76.625 274 C76.625 284.89 76.625 295.78 76.625 307 C106.325 307 136.025 307 166.625 307 C166.625 372.67 166.625 438.34 166.625 506 C-2.335 506 -171.295 506 -345.375 506 C-345.375 450.89 -345.375 395.78 -345.375 339 C-329.55694765 340.97725654 -318.05828998 343.81568457 -304.26049805 350.82641602 C-295.97205806 354.95791964 -288.5910752 356.29257382 -279.375 356 C-279.70113281 355.52691406 -280.02726562 355.05382812 -280.36328125 354.56640625 C-287.48383803 343.79105042 -289.85783981 331.82723025 -287.625 319.0625 C-284.89242741 306.65206614 -278.28351446 296.82118781 -268.375 289 C-269.035 286.03 -269.695 283.06 -270.375 280 C-272.416875 280.4640625 -272.416875 280.4640625 -274.5 280.9375 C-278.11096093 281.74183727 -281.71724791 282.43726891 -285.375 283 C-286.03101744 281.48353179 -286.6742664 279.96153825 -287.3125 278.4375 C-287.67214844 277.59058594 -288.03179687 276.74367188 -288.40234375 275.87109375 C-289.5124509 272.59427144 -289.97226139 269.42963722 -290.375 266 C-289.11042969 265.6596875 -287.84585938 265.319375 -286.54296875 264.96875 C-284.88231027 264.48087293 -283.22218027 263.99119447 -281.5625 263.5 C-280.72912109 263.28085937 -279.89574219 263.06171875 -279.03710938 262.8359375 C-274.42852302 261.50494176 -274.42852302 261.50494176 -271.21264648 258.17407227 C-270.45818038 256.1324769 -269.89677501 254.11163575 -269.375 252 C-264.09678368 239.77768514 -257.19683843 232.57920968 -245.00390625 226.89453125 C-234.95441857 223.28485018 -222.60938275 223.5497999 -212.83203125 227.7421875 C-201.18666527 233.70372621 -193.46843285 241.76437197 -189.29296875 254.23046875 C-188.29068354 258.34623567 -187.99137319 262.03484518 -188 266.25 C-188.00016113 266.99145264 -188.00032227 267.73290527 -188.00048828 268.49682617 C-188.16596253 276.52058538 -190.7812999 282.92591467 -194.375 290 C-175.20086259 287.74548216 -158.74747386 282.27588162 -142.375 272 C-141.5396875 271.47792969 -140.704375 270.95585937 -139.84375 270.41796875 C-139.1321875 269.97066406 -138.420625 269.52335937 -137.6875 269.0625 C-132.25277449 265.6786143 -127.63820191 265.34855255 -121.375 266 C-115.20884765 267.79891264 -110.85355079 271.67139194 -107.375 277 C-105.40336536 280.963388 -105.10510888 284.21911582 -105.125 288.625 C-105.11726563 290.31496094 -105.11726563 290.31496094 -105.109375 292.0390625 C-105.44686252 297.07159695 -106.47273085 302.03751965 -107.375 307 C-82.625 307 -57.875 307 -32.375 307 C-32.375 274.33 -32.375 241.66 -32.375 208 C-34.685 207.67 -36.995 207.34 -39.375 207 C-42.91015625 205.546875 -42.91015625 205.546875 -46.4375 203.75 C-47.60410156 203.16734375 -48.77070313 202.5846875 -49.97265625 201.984375 C-61.33799133 195.35568358 -68.52939976 184.4427354 -72.375 172 C-72.375 170.68 -72.375 169.36 -72.375 168 C-73.17421875 167.98582031 -73.9734375 167.97164062 -74.796875 167.95703125 C-88.76652062 167.35036824 -100.92368072 162.03438586 -110.5625 151.8125 C-121.72142572 138.58215694 -123.73238874 124.73649898 -122.375 108 C-119.99710392 94.94292993 -112.06559536 83.70009381 -101.375 76 C-99.07421875 75.2578125 -99.07421875 75.2578125 -97.375 75 C-97.705 74.34 -98.035 73.68 -98.375 73 C-99.13955997 61.14932044 -96.12618869 49.85272685 -88.4375 40.69140625 C-83.72056077 35.69650453 -78.65851816 32.09960344 -72.8125 28.53515625 C-67.13518471 24.95953941 -63.92231303 19.98170447 -60.19140625 14.55859375 C-45.78365913 -5.73618983 -22.21491596 -13.16439464 0 0 Z M-14.375 223 C-14.375 250.72 -14.375 278.44 -14.375 307 C9.715 307 33.805 307 58.625 307 C58.625 296.11 58.625 285.22 58.625 274 C54.335 272.68 50.045 271.36 45.625 270 C42.37142512 268.06432887 39.56944514 266.28479348 36.625 264 C35.59375 263.2575 34.5625 262.515 33.5 261.75 C25.39722679 253.99952127 21.18483145 244.7914463 18.625 234 C17.53703125 233.85304687 16.4490625 233.70609375 15.328125 233.5546875 C5.76774888 232.1399918 -1.92166411 229.90266169 -10.375 225 C-11.695 224.34 -13.015 223.68 -14.375 223 Z " fill="#010202" transform="translate(345.375,6)"/>
<path d="M0 0 C17.27492412 8.01947393 37.26472168 12.08093615 55.9296875 5.29882812 C60.06759462 3.64604338 64.10765324 1.7990898 68.13134766 -0.11279297 C70.84322406 -1.40034965 73.57814648 -2.6360525 76.3125 -3.875 C77.15425781 -4.26429688 77.99601563 -4.65359375 78.86328125 -5.0546875 C84.7011052 -7.63741766 90.33565577 -7.22238488 96.625 -7.25 C97.77613281 -7.270625 98.92726563 -7.29125 100.11328125 -7.3125 C111.17582143 -7.36295628 118.95885435 -4.14054608 128.8125 0.5 C145.76346473 8.22513785 165.74382456 11.90684917 183.9296875 5.29882812 C189.77774965 2.96296422 195.44031078 0.23482495 201.109375 -2.5 C213.85178273 -8.54724435 227.64536521 -10.13044995 241.40625 -6.3203125 C246.40024879 -4.48556077 251.17871696 -2.24414075 256 0 C273.31071575 8.03608934 293.28004108 12.06310038 311.97802734 5.28271484 C318.41832004 2.72189965 324.64818749 -0.27602355 330.8125 -3.4375 C334 -5 334 -5 337 -5 C337 37.57 337 80.14 337 124 C238.66 124 140.32 124 39 124 C39 119.05 39 114.1 39 109 C37.80548908 105.37052451 36.94677962 103.09158399 35 100 C34.61070312 99.33871094 34.22140625 98.67742187 33.8203125 97.99609375 C30.07030803 92.32670829 25.04029052 89.12181208 19.31640625 85.6640625 C17 83 17 83 16.79492188 80.82177734 C17.0172207 78.15263326 17.44635569 75.62024623 18 73 C18.24230347 71.81736572 18.24230347 71.81736572 18.48950195 70.61083984 C19.04623738 68.17362676 19.68920664 65.77903967 20.375 63.375 C20.75060059 62.05266357 20.75060059 62.05266357 21.13378906 60.70361328 C24.79775808 48.54203827 29.93028743 35.60456886 37 25 C14.369773 25.38289182 -5.35390593 28.64136257 -23 44 C-26.17101634 41.32661166 -27.74784788 37.90388898 -29.5390625 34.25 C-29.86538666 33.59547852 -30.19171082 32.94095703 -30.52792358 32.26660156 C-31.21478989 30.88616261 -31.89878281 29.50429067 -32.58007812 28.12109375 C-33.62269819 26.00467246 -34.67381246 23.89264785 -35.7265625 21.78125 C-36.39372868 20.43774794 -37.06041187 19.09400589 -37.7265625 17.75 C-38.04009674 17.11868164 -38.35363098 16.48736328 -38.67666626 15.83691406 C-39.95146678 13.2451599 -41.08510867 10.74467399 -42 8 C-48.15344129 19.59277953 -54.18888103 31.23167249 -60 43 C-63.1412162 41.55075707 -65.73885895 39.76295769 -68.5 37.6875 C-82.03867988 28.08843598 -96.82339678 25.8059006 -113 25.9375 C-114.59134766 25.94426758 -114.59134766 25.94426758 -116.21484375 25.95117188 C-118.80995598 25.96286157 -121.40494709 25.97924724 -124 26 C-123.26136719 26.94617188 -122.52273437 27.89234375 -121.76171875 28.8671875 C-88.39187118 72.14266922 -88.39187118 72.14266922 -89.09765625 91.70703125 C-90 94 -90 94 -92.1875 95.15234375 C-93.115625 95.41144531 -94.04375 95.67054688 -95 95.9375 C-100.77092186 97.78869182 -105.15158043 100.42023383 -110 104 C-110.886875 104.5775 -111.77375 105.155 -112.6875 105.75 C-117.83986807 110.76311488 -120.82300852 117.64601703 -124 124 C-129.61 124 -135.22 124 -141 124 C-141 81.43 -141 38.86 -141 -5 C-137.19555808 -4.23911162 -135.05689353 -3.70722434 -131.77734375 -2.0390625 C-130.9980249 -1.65097412 -130.21870605 -1.26288574 -129.41577148 -0.86303711 C-128.59794189 -0.45448486 -127.7801123 -0.04593262 -126.9375 0.375 C-110.20610866 8.43612897 -92.24384223 10.95190003 -74 6 C-67.43839042 3.61577142 -61.17145871 0.52994993 -54.890625 -2.5 C-35.92937037 -11.49856152 -18.4579127 -8.59152093 0 0 Z " fill="#68D4F2" transform="translate(158,371)"/>
<path d="M0 0 C0.66 0 1.32 0 2 0 C3.20166016 1.35766602 3.20166016 1.35766602 4.5390625 3.25390625 C5.03269287 3.94049316 5.52632324 4.62708008 6.03491211 5.33447266 C6.55964111 6.06972168 7.08437012 6.8049707 7.625 7.5625 C16.79920395 20.01874311 26.29715445 27.75215579 42.0625 30.5625 C51.53456568 31.58516537 60.70419786 29.75534944 70 28 C69.855625 28.74121094 69.71125 29.48242188 69.5625 30.24609375 C66.64833847 46.77991299 66.31192364 62.56986522 76 77 C81.92714064 85.14262525 89.75239306 90.45139926 98 96 C96.8966341 99.31009771 96.3904388 99.70259666 93.6484375 101.6015625 C92.96499268 102.08689453 92.28154785 102.57222656 91.57739258 103.07226562 C90.85060303 103.58466797 90.12381348 104.09707031 89.375 104.625 C78.39920419 112.64953432 70.45713929 122.11842956 68 136 C67.87771706 138.65894301 67.81013853 141.27878318 67.8125 143.9375 C67.8115332 145.05789673 67.8115332 145.05789673 67.81054688 146.20092773 C67.87374978 152.94137352 68.71017343 159.37812251 70 166 C69.25878906 165.855625 68.51757812 165.71125 67.75390625 165.5625 C50.09105749 162.44934183 34.8172601 162.69727867 19.46484375 173.09375 C12.84547986 178.21300448 8.74775536 184.70479453 4.578125 191.875 C4.05734375 192.57625 3.5365625 193.2775 3 194 C2.01 194 1.02 194 0 194 C-1.33105469 192.62646484 -1.33105469 192.62646484 -2.671875 190.7109375 C-3.17203125 190.01613281 -3.6721875 189.32132813 -4.1875 188.60546875 C-4.9609375 187.50138672 -4.9609375 187.50138672 -5.75 186.375 C-11.1368905 178.69729266 -16.43821717 172.89426722 -25 168.75 C-25.969375 168.27046875 -26.93875 167.7909375 -27.9375 167.296875 C-34.03085723 164.71652474 -39.53023069 163.665053 -46.125 163.75 C-46.858396 163.75386719 -47.59179199 163.75773438 -48.34741211 163.76171875 C-55.02234442 163.86600325 -61.44382366 164.72297087 -68 166 C-67.855625 165.35417969 -67.71125 164.70835937 -67.5625 164.04296875 C-64.64915879 149.25371581 -63.74762174 133.36068876 -71.765625 120.07421875 C-77.8511382 111.22147416 -85.19489422 105.33709522 -94.09375 99.48046875 C-94.7228125 98.99191406 -95.351875 98.50335938 -96 98 C-96 97.34 -96 96.68 -96 96 C-93.69672716 94.24555389 -91.37887236 92.58331188 -89 90.9375 C-77.27858614 82.55505463 -69.35572675 73.32865626 -66 59 C-65.72987389 55.93159074 -65.71525851 52.89115416 -65.75 49.8125 C-65.75580078 48.56762817 -65.75580078 48.56762817 -65.76171875 47.29760742 C-65.85342925 40.73330071 -66.56576526 34.41563931 -68 28 C-66.09541016 28.35964844 -66.09541016 28.35964844 -64.15234375 28.7265625 C-48.95573101 31.4174749 -34.1828027 32.26420076 -20.63671875 23.46484375 C-12.5969932 17.53301263 -6.93611589 10.19583742 -1.48046875 1.90625 C-0.99191406 1.2771875 -0.50335938 0.648125 0 0 Z " fill="#030200" transform="translate(98,2)"/>
<path d="M0 0 C6.07294084 4.02248296 9.59177541 9.21920164 13.3125 15.375 C18.0879843 23.01368495 24.06308758 27.83431479 31.6875 32.5 C38.39568936 36.6468807 43.08494653 41.21724306 45.52734375 48.8515625 C47.42056693 57.20677883 44.97237099 64.0952176 42 71.9375 C42.61746094 72.08445312 43.23492187 72.23140625 43.87109375 72.3828125 C53.18708699 74.85006185 60.00802449 78.86083198 65.7109375 86.71484375 C69.28431255 92.87620861 70.55764858 97.68542805 70.5 104.75 C70.49572998 105.54245117 70.49145996 106.33490234 70.48706055 107.15136719 C70.29703931 113.70743547 68.8484485 118.5496721 65 123.9375 C64.278125 125.01 63.55625 126.0825 62.8125 127.1875 C55.67478115 134.16660288 47.21317433 138.23250864 37.1875 138.1875 C31.49074117 138.11500678 26.48145119 137.44962447 21 135.9375 C21.04640625 136.96488281 21.0928125 137.99226562 21.140625 139.05078125 C21.5084813 150.51956912 20.4758271 159.1646019 12.875 168.3125 C8.53249306 172.83504454 3.90156998 175.81784349 -2 177.9375 C-2.66 177.9375 -3.32 177.9375 -4 177.9375 C-4.67764251 169.23846496 -5.18962387 160.54867316 -5.50255299 151.82885838 C-5.65295767 147.77631648 -5.85555233 143.74197939 -6.18774414 139.69995117 C-8.22544507 114.25451362 -8.22544507 114.25451362 -2.70183563 107.30397797 C4.06007672 100.70513118 13.01527417 96.82718697 21.6855011 93.38780212 C25.09202312 91.89723409 27.92687245 90.01367051 31 87.9375 C31.66 87.9375 32.32 87.9375 33 87.9375 C30.36 83.3175 27.72 78.6975 25 73.9375 C16.72851597 78.61631925 8.57193201 83.37968946 0.546875 88.46875 C-2 89.9375 -2 89.9375 -4 89.9375 C-3.67322266 87.99037109 -3.67322266 87.99037109 -3.33984375 86.00390625 C-2.58103113 78.15870401 -2.4709425 70.92079954 -7.50097656 64.44189453 C-14.23803817 56.55902833 -22.12792263 49.65849161 -30 42.9375 C-33.18086518 44.44696511 -35.29869906 46.01691825 -37.75 48.5625 C-38.36359375 49.19414062 -38.9771875 49.82578125 -39.609375 50.4765625 C-40.06828125 50.95867187 -40.5271875 51.44078125 -41 51.9375 C-39.55244338 55.52386765 -37.84043664 56.96322096 -34.6484375 59.078125 C-28.21889346 63.90316991 -21.37525244 69.04929537 -19.46258545 77.23846436 C-17.7126642 89.64252218 -18.88877777 102.51610499 -20 114.9375 C-23.93376885 113.49037861 -27.37360673 111.62936875 -30.95703125 109.4609375 C-32.06884766 108.790625 -33.18066406 108.1203125 -34.32617188 107.4296875 C-35.4883301 106.72403878 -36.65043887 106.0183086 -37.8125 105.3125 C-38.99393526 104.59861835 -40.17557392 103.88507321 -41.35742188 103.171875 C-44.24029871 101.43038205 -47.12105724 99.68548618 -50 97.9375 C-50.30341309 98.70731201 -50.60682617 99.47712402 -50.91943359 100.27026367 C-52.02887108 103.00876448 -53.28985722 105.61484977 -54.625 108.25 C-55.29402344 109.57451172 -55.29402344 109.57451172 -55.9765625 110.92578125 C-56.31429687 111.58964844 -56.65203125 112.25351563 -57 112.9375 C-56.31373535 113.18822266 -55.6274707 113.43894531 -54.92041016 113.69726562 C-51.53792945 115.13373126 -48.4273427 116.91109888 -45.2734375 118.78125 C-44.64394196 119.15100952 -44.01444641 119.52076904 -43.36587524 119.9017334 C-42.04211928 120.68010659 -40.71932987 121.46012567 -39.39746094 122.24169922 C-37.37635083 123.43670131 -35.3525294 124.62699503 -33.328125 125.81640625 C-32.03890313 126.57525014 -30.74983527 127.33435576 -29.4609375 128.09375 C-28.55618179 128.62663635 -28.55618179 128.62663635 -27.63314819 129.17028809 C-25.04242255 130.70270367 -22.5054616 132.26719227 -20 133.9375 C-19.63923645 135.84841919 -19.63923645 135.84841919 -19.65942383 138.20361328 C-19.65965042 139.08437531 -19.65987701 139.96513733 -19.66011047 140.87258911 C-19.67559433 141.82471283 -19.69107819 142.77683655 -19.70703125 143.7578125 C-19.71127609 144.73160858 -19.71552094 145.70540466 -19.71989441 146.70870972 C-19.73672214 149.82691805 -19.77438189 152.94448617 -19.8125 156.0625 C-19.82754154 158.17316777 -19.84123086 160.28384564 -19.85351562 162.39453125 C-19.88663891 167.57574023 -19.93687849 172.75657439 -20 177.9375 C-28.22595252 176.41066853 -34.85358471 171.50766977 -40 164.9375 C-43.94507662 157.87222641 -45.15488709 151.73228364 -45.0625 143.6875 C-45.05798828 142.94242188 -45.05347656 142.19734375 -45.04882812 141.4296875 C-45.03709246 139.5989236 -45.0191585 137.76820127 -45 135.9375 C-45.96486328 136.1540625 -45.96486328 136.1540625 -46.94921875 136.375 C-57.77399437 138.59863436 -68.22990499 139.89985836 -78 133.9375 C-79.04800781 133.30134766 -79.04800781 133.30134766 -80.1171875 132.65234375 C-87.73091153 127.49512313 -92.25683205 120.3264518 -94.5234375 111.46484375 C-96.43957007 101.30305871 -93.95582911 93.42373377 -88.6015625 84.64453125 C-83.68731385 78.19613899 -76.36917962 74.89998427 -69 71.9375 C-68.01 71.9375 -67.02 71.9375 -66 71.9375 C-66.28875 71.18726563 -66.5775 70.43703125 -66.875 69.6640625 C-70.08939554 60.80215256 -71.95053788 53.62866649 -68 44.75 C-64.01317997 37.62272397 -58.29379811 33.67585235 -51.4375 29.5 C-44.17622915 24.98298875 -39.97041376 19.61586507 -35.5625 12.375 C-27.88520828 -0.04668548 -14.29815721 -7.39224454 0 0 Z " fill="#9ED166" transform="translate(425,85.0625)"/>
<path d="M0 0 C2.83838844 -0.30296773 4.91949649 -0.2979571 7.68994141 0.4362793 C10.97134913 3.48475691 13.07087879 7.08719176 15.31494141 10.9362793 C15.93755859 11.93788086 16.56017578 12.93948242 17.20166016 13.97143555 C18.73098829 16.44188868 20.22412161 18.92780224 21.68994141 21.4362793 C26.08884435 20.81125903 29.48803521 19.18936174 33.42431641 17.1628418 C34.06177795 16.83843109 34.6992395 16.51402039 35.35601807 16.17977905 C38.0647933 14.80106335 40.76627971 13.40832697 43.46826172 12.01635742 C61.51678125 2.74227599 80.14194344 -2.68151535 100.51245117 2.92114258 C115.53358302 7.75311506 126.91111437 17.22370831 136.68994141 29.4362793 C137.42986328 30.35022461 138.16978516 31.26416992 138.93212891 32.20581055 C139.67720703 33.16874023 140.42228516 34.13166992 141.18994141 35.1237793 C141.88087891 36.01452148 142.57181641 36.90526367 143.28369141 37.82299805 C144.68994141 40.4362793 144.68994141 40.4362793 144.72900391 42.8425293 C143.27949451 46.46085351 141.0172991 49.2688678 138.56494141 52.2487793 C138.06357666 52.86825439 137.56221191 53.48772949 137.0456543 54.12597656 C136.04865932 55.35259029 135.04722436 56.5756108 134.04101562 57.79467773 C132.9303615 59.14416063 131.84040046 60.51064825 130.75634766 61.8815918 C122.1466447 72.41144434 107.11276851 81.20997878 93.52978516 83.22143555 C72.0021346 84.85007486 56.14023101 78.71569731 37.19384766 69.17456055 C36.4692334 68.81007813 35.74461914 68.4455957 34.99804688 68.07006836 C33.61806166 67.37292639 32.24062516 66.67070839 30.86621094 65.96264648 C27.8252135 64.41258142 25.01585382 63.18165659 21.68994141 62.4362793 C21.32344482 63.07243164 20.95694824 63.70858398 20.5793457 64.36401367 C18.88629487 67.24782511 17.1336159 70.09050749 15.37744141 72.9362793 C14.801875 73.93788086 14.22630859 74.93948242 13.63330078 75.97143555 C9.17127624 83.06243672 9.17127624 83.06243672 4.93286133 84.13208008 C-7.1342117 84.25977397 -18.1646202 79.32694906 -27.06005859 71.3112793 C-35.42229262 62.41528566 -38.78793697 50.62617352 -38.55615234 38.7097168 C-37.74721936 27.94962415 -32.89343317 18.50043769 -25.06005859 11.1237793 C-17.4913171 4.8270952 -9.512335 1.7965063 0 0 Z " fill="#020302" transform="translate(294.31005859375,395.563720703125)"/>
<path d="M0 0 C6.50769415 4.0258241 10.1502704 10.09344979 14.109375 16.4609375 C18.73244727 23.81632199 24.06252102 27.74212276 31.28417969 32.39208984 C37.99057992 36.76677252 43.95887572 41.90435483 45.76171875 50.08984375 C46.94879523 59.00390883 46.17378949 65.30829029 40.8125 72.625 C35.4770055 79.03775625 30.33440773 83.58371475 23.08203125 87.7421875 C16.01144094 91.84884349 12.47458856 97.00463361 8.76171875 104.08984375 C8.42914063 104.70472656 8.0965625 105.31960937 7.75390625 105.953125 C5.9078008 109.9948413 5.66118934 113.61583673 5.56201172 118.05224609 C5.34955226 127.18800298 5.34955226 127.18800298 3.21875 130.45703125 C-0.99635541 134.08984375 -0.99635541 134.08984375 -4.23828125 134.08984375 C-4.19529404 133.31850601 -4.15230682 132.54716827 -4.10801697 131.75245667 C-3.59849611 122.05464616 -3.29519839 112.36259224 -3.17578125 102.65234375 C-3.16625805 101.88984566 -3.15673485 101.12734756 -3.14692307 100.34174347 C-2.41611321 76.72463114 -2.41611321 76.72463114 -12.53450012 56.24116516 C-17.75371209 50.96764588 -23.74039328 46.64680224 -30.23828125 43.08984375 C-33.41914643 44.59930886 -35.53698031 46.169262 -37.98828125 48.71484375 C-38.601875 49.34648438 -39.21546875 49.978125 -39.84765625 50.62890625 C-40.3065625 51.11101562 -40.76546875 51.593125 -41.23828125 52.08984375 C-39.79072463 55.6762114 -38.07871789 57.11556471 -34.88671875 59.23046875 C-28.45717471 64.05551366 -21.61353369 69.20163912 -19.7008667 77.39080811 C-17.95094545 89.79486593 -19.12705902 102.66844874 -20.23828125 115.08984375 C-27.04307313 111.4198974 -33.77792066 107.66182466 -40.42578125 103.71484375 C-41.18697266 103.26496094 -41.94816406 102.81507812 -42.73242188 102.3515625 C-44.56868488 101.26597305 -46.40363213 100.17815847 -48.23828125 99.08984375 C-50.48711542 101.28732046 -52.282218 103.44042788 -53.98828125 106.08984375 C-54.436875 106.77046875 -54.88546875 107.45109375 -55.34765625 108.15234375 C-56.57079656 110.23155724 -56.57079656 110.23155724 -55.23828125 113.08984375 C-52.93355727 114.66523181 -50.6605173 116.08135313 -48.24609375 117.46875 C-47.54435028 117.88148666 -46.84260681 118.29422333 -46.11959839 118.71946716 C-43.87231111 120.03886492 -41.61807003 121.34581492 -39.36328125 122.65234375 C-37.11731682 123.96517316 -34.87280189 125.28045499 -32.62838745 126.59593201 C-31.23065479 127.41388498 -29.83170794 128.22976743 -28.431427 129.04335022 C-25.64791966 130.66205874 -22.9184801 132.30304452 -20.23828125 134.08984375 C-19.8775177 136.00076294 -19.8775177 136.00076294 -19.89770508 138.35595703 C-19.89793167 139.23671906 -19.89815826 140.11748108 -19.89839172 141.02493286 C-19.91387558 141.97705658 -19.92935944 142.9291803 -19.9453125 143.91015625 C-19.94955734 144.88395233 -19.95380219 145.85774841 -19.95817566 146.86105347 C-19.97500339 149.9792618 -20.01266314 153.09682992 -20.05078125 156.21484375 C-20.06582279 158.32551152 -20.07951211 160.43618939 -20.09179688 162.546875 C-20.12492016 167.72808398 -20.17515974 172.90891814 -20.23828125 178.08984375 C-28.34060249 176.61661829 -34.59017585 171.67578902 -39.73046875 165.328125 C-45.92011493 156.13986785 -45.71827445 146.71635989 -45.23828125 136.08984375 C-46.22054687 136.30640625 -46.22054687 136.30640625 -47.22265625 136.52734375 C-59.54677002 139.03394316 -69.78662892 139.42275536 -80.68359375 132.546875 C-85.86437473 128.81089928 -89.43395918 124.83363595 -92.23828125 119.08984375 C-92.78162109 117.99736328 -92.78162109 117.99736328 -93.3359375 116.8828125 C-96.09574123 108.34056286 -95.49859753 97.47476185 -91.73828125 89.40234375 C-85.81521044 79.43894158 -77.72314742 75.45321031 -67.23828125 71.08984375 C-67.54750009 69.63081117 -67.86076924 68.17263653 -68.17578125 66.71484375 C-68.43681641 65.49667969 -68.43681641 65.49667969 -68.703125 64.25390625 C-69.16158818 62.06038075 -69.16158818 62.06038075 -70.23828125 60.08984375 C-71.27540503 52.38549569 -69.64606669 46.4542559 -65.23828125 40.08984375 C-61.3335995 35.70811943 -56.72838183 32.73516778 -51.73828125 29.71484375 C-44.37037451 25.13920042 -39.48942351 19.47557498 -35.23828125 11.96484375 C-27.94657536 -0.79067445 -13.92303952 -6.33396137 0 0 Z " fill="#B1DA7D" transform="translate(334.23828125,18.91015625)"/>
<path d="M0 0 C0.66 0 1.32 0 2 0 C3.20166016 1.35766602 3.20166016 1.35766602 4.5390625 3.25390625 C5.03269287 3.94049316 5.52632324 4.62708008 6.03491211 5.33447266 C6.55964111 6.06972168 7.08437012 6.8049707 7.625 7.5625 C16.79920395 20.01874311 26.29715445 27.75215579 42.0625 30.5625 C51.53456568 31.58516537 60.70419786 29.75534944 70 28 C69.855625 28.74121094 69.71125 29.48242188 69.5625 30.24609375 C66.64833847 46.77991299 66.31192364 62.56986522 76 77 C81.92714064 85.14262525 89.75239306 90.45139926 98 96 C96.8966341 99.31009771 96.3904388 99.70259666 93.6484375 101.6015625 C92.96499268 102.08689453 92.28154785 102.57222656 91.57739258 103.07226562 C90.85060303 103.58466797 90.12381348 104.09707031 89.375 104.625 C78.39920419 112.64953432 70.45713929 122.11842956 68 136 C67.87771706 138.65894301 67.81013853 141.27878318 67.8125 143.9375 C67.8115332 145.05789673 67.8115332 145.05789673 67.81054688 146.20092773 C67.87374978 152.94137352 68.71017343 159.37812251 70 166 C69.25878906 165.855625 68.51757812 165.71125 67.75390625 165.5625 C50.09105749 162.44934183 34.8172601 162.69727867 19.46484375 173.09375 C12.84547986 178.21300448 8.74775536 184.70479453 4.578125 191.875 C4.05734375 192.57625 3.5365625 193.2775 3 194 C2.01 194 1.02 194 0 194 C-1.33105469 192.62646484 -1.33105469 192.62646484 -2.671875 190.7109375 C-3.17203125 190.01613281 -3.6721875 189.32132813 -4.1875 188.60546875 C-4.9609375 187.50138672 -4.9609375 187.50138672 -5.75 186.375 C-11.1368905 178.69729266 -16.43821717 172.89426722 -25 168.75 C-25.969375 168.27046875 -26.93875 167.7909375 -27.9375 167.296875 C-34.03085723 164.71652474 -39.53023069 163.665053 -46.125 163.75 C-46.858396 163.75386719 -47.59179199 163.75773438 -48.34741211 163.76171875 C-55.02234442 163.86600325 -61.44382366 164.72297087 -68 166 C-67.855625 165.35417969 -67.71125 164.70835937 -67.5625 164.04296875 C-64.64915879 149.25371581 -63.74762174 133.36068876 -71.765625 120.07421875 C-77.8511382 111.22147416 -85.19489422 105.33709522 -94.09375 99.48046875 C-94.7228125 98.99191406 -95.351875 98.50335938 -96 98 C-96 97.34 -96 96.68 -96 96 C-93.69672716 94.24555389 -91.37887236 92.58331188 -89 90.9375 C-77.27858614 82.55505463 -69.35572675 73.32865626 -66 59 C-65.72987389 55.93159074 -65.71525851 52.89115416 -65.75 49.8125 C-65.75580078 48.56762817 -65.75580078 48.56762817 -65.76171875 47.29760742 C-65.85342925 40.73330071 -66.56576526 34.41563931 -68 28 C-66.09541016 28.35964844 -66.09541016 28.35964844 -64.15234375 28.7265625 C-48.95573101 31.4174749 -34.1828027 32.26420076 -20.63671875 23.46484375 C-12.5969932 17.53301263 -6.93611589 10.19583742 -1.48046875 1.90625 C-0.99191406 1.2771875 -0.50335938 0.648125 0 0 Z M-1.3046875 29.28515625 C-1.82289062 29.87167969 -2.34109375 30.45820312 -2.875 31.0625 C-13.70393427 42.06932231 -29.65826409 47.28725625 -44.83984375 47.859375 C-46.98008867 47.76019595 -46.98008867 47.76019595 -48 49 C-48.21373579 50.72046734 -48.42126156 52.44197469 -48.59448242 54.16699219 C-50.15594848 69.53335696 -55.19452179 83.57706589 -66 95 C-66.99 95.495 -66.99 95.495 -68 96 C-66.65001615 99.01606147 -65.12609526 101.03493339 -62.8125 103.375 C-52.1292253 115.32956209 -48.65090423 130.42318845 -48 146 C-46.87464844 146.07476562 -45.74929687 146.14953125 -44.58984375 146.2265625 C-26.96923023 147.63590268 -12.58842208 152.9774944 0 166 C3.27732107 164.54259085 5.62708006 162.67325777 8.3125 160.3125 C12.52046268 156.89002369 16.73808308 154.40043829 21.625 152.125 C22.23384033 151.83923096 22.84268066 151.55346191 23.4699707 151.2590332 C30.1995436 148.24874378 36.65903588 146.83381026 44 146.375 C45.7015625 146.26285156 45.7015625 146.26285156 47.4375 146.1484375 C48.283125 146.09945312 49.12875 146.05046875 50 146 C50.09796875 144.99582031 50.1959375 143.99164063 50.296875 142.95703125 C52.14439019 125.4304286 56.90287965 110.38105205 70 98 C68.63710651 94.95353221 67.06976355 92.88245987 64.75 90.5 C60.34157569 85.57725952 57.62178947 80.02710223 55 74 C54.73727295 73.39865234 54.4745459 72.79730469 54.20385742 72.17773438 C52.08385412 66.99622158 51.30555146 62.05474484 50.8125 56.5 C50.73064453 55.67757812 50.64878906 54.85515625 50.56445312 54.0078125 C50.36661362 52.00614225 50.18191276 50.00318047 50 48 C48.58460938 47.96132813 48.58460938 47.96132813 47.140625 47.921875 C30.1098808 47.16951281 16.36598631 41.75166033 3.99609375 29.7578125 C1.76933042 27.79686632 0.91682395 27.09690095 -1.3046875 29.28515625 Z " fill="#010000" transform="translate(98,2)"/>
<path d="M0 0 C3.52852325 2.66074899 5.93165321 5.84195683 8.16015625 9.62890625 C8.53140625 10.22316406 8.90265625 10.81742187 9.28515625 11.4296875 C11.66717 17.41662385 11.19761626 25.60330996 9.1328125 31.625 C5.84753692 37.60401954 1.42916418 41.87341093 -4.83984375 44.62890625 C-7.93627285 45.32794858 -10.64436133 45.52746236 -13.83984375 45.62890625 C-13.83984375 51.23890625 -13.83984375 56.84890625 -13.83984375 62.62890625 C20.86652546 62.11460645 54.80327463 61.54833063 83.9609375 39.84765625 C87.16015625 37.62890625 87.16015625 37.62890625 90.03515625 37.75390625 C92.16015625 38.62890625 92.16015625 38.62890625 93.16015625 39.62890625 C93.99915707 56.96825646 87.53859946 71.59056159 76.39453125 84.70703125 C68.75255891 92.86274963 59.26355061 98.86874153 49.28515625 103.75390625 C48.37624634 104.21518921 48.37624634 104.21518921 47.44897461 104.68579102 C42.93886273 106.77732062 39.93891401 106.83545038 35.16015625 105.62890625 C32.48933997 104.61388559 29.92622658 103.41925233 27.34765625 102.19140625 C12.22453801 95.38118895 -6.73142415 93.78175535 -22.83984375 98.62890625 C-27.06436833 100.27055545 -31.17404181 102.14121531 -35.2734375 104.0703125 C-40.80225108 106.48651909 -40.80225108 106.48651909 -43.83984375 106.62890625 C-50.27380352 102.80330855 -53.42219533 95.528832 -55.421875 88.6171875 C-57.02767821 80.97836663 -55.54121838 74.42577573 -51.83984375 67.62890625 C-47.189567 60.74194748 -40.6339777 56.2399401 -33.83984375 51.62890625 C-32.83050781 50.94054687 -32.83050781 50.94054687 -31.80078125 50.23828125 C-30.48909474 49.35553488 -29.16629504 48.48930709 -27.83984375 47.62890625 C-28.2265625 47.14421875 -28.61328125 46.65953125 -29.01171875 46.16015625 C-36.91076004 35.9930734 -39.93137375 27.63370653 -38.83984375 14.62890625 C-36.80585255 7.15460123 -31.14005082 1.67503463 -24.71484375 -2.30859375 C-16.51879067 -5.23707114 -7.46284685 -4.25928333 0 0 Z " fill="#E3E6EA" transform="translate(129.83984375,251.37109375)"/>
<path d="M0 0 C2.62183476 0.00338582 5.24368089 0.00148306 7.86550903 -0.00531006 C13.50496454 -0.01159039 19.14274896 0.02592511 24.78178406 0.09354401 C32.93448824 0.191241 41.08638775 0.22233789 49.23961383 0.23739991 C62.46846844 0.2636374 75.69643308 0.3434232 88.92480469 0.45703125 C101.77176472 0.56724865 114.61848268 0.65215496 127.46582031 0.703125 C128.25825935 0.70627768 129.05069838 0.70943036 129.86715072 0.71267858 C133.84274708 0.72833949 137.81834515 0.74350388 141.79394436 0.75842142 C174.75455954 0.88274068 207.71405969 1.09491923 240.67382812 1.36230469 C240.67382812 7.63230469 240.67382812 13.90230469 240.67382812 20.36230469 C238.92070312 20.83667969 237.16757812 21.31105469 235.36132812 21.79980469 C228.31737558 23.93621227 221.86698111 26.97102802 215.29956055 30.27612305 C204.05316167 35.85181241 189.59079163 36.08348601 177.31445312 33.71386719 C174.64151702 32.76618984 172.20073465 31.65009112 169.67382812 30.36230469 C168.45316541 29.78515276 167.23033026 29.21258269 166.00585938 28.64355469 C164.03371029 27.72600853 162.06293511 26.80650506 160.09814453 25.87329102 C143.40425841 17.97323706 122.46371403 16.19694208 104.81054688 22.36230469 C100.39027601 24.14212236 96.09372127 26.15823723 91.79492188 28.20996094 C91.13145752 28.52489502 90.46799316 28.8398291 89.78442383 29.16430664 C88.49366985 29.78056112 87.20677062 30.40497868 85.92456055 31.03881836 C78.82670883 34.46056838 72.14895255 34.5683495 64.42382812 34.61230469 C63.08771484 34.64324219 63.08771484 34.64324219 61.72460938 34.67480469 C51.8694056 34.73201922 43.82852474 31.70312524 35.11132812 27.36230469 C17.89199967 19.03500194 -1.53764369 16.15682502 -20.32617188 21.36230469 C-25.7643997 23.2616039 -30.93516225 25.67214587 -36.09960938 28.20996094 C-42.84671528 31.50180737 -48.6678819 34.22794872 -56.32617188 34.36230469 C-53.76522737 31.70948774 -51.17059654 29.41780472 -48.20117188 27.23730469 C-38.64117215 20.14186242 -38.64117215 20.14186242 -32.20752716 10.48116684 C-26.05757939 -3.07798419 -12.91784712 -0.23227922 0 0 Z " fill="#CA9A73" transform="translate(255.326171875,328.6376953125)"/>
<path d="M0 0 C2.9861363 1.33726973 4.95277786 2.81704318 7.25 5.125 C11.17336201 8.64937604 15.37641907 10.97591123 20.0625 13.3125 C20.73506836 13.64975098 21.40763672 13.98700195 22.10058594 14.33447266 C28.94460546 17.64604103 35.30683685 19.21983205 42.9375 19.625 C43.62134766 19.66367187 44.30519531 19.70234375 45.00976562 19.7421875 C46.67279513 19.83522412 48.33635847 19.91863787 50 20 C50.11214844 21.68802734 50.11214844 21.68802734 50.2265625 23.41015625 C51.63590268 41.03076977 56.9774944 55.41157792 70 68 C68.71768484 70.79447927 67.34450379 72.88410616 65.25 75.125 C54.39221611 87.62469268 51.56045519 102.00533431 50 118 C49.21238281 118.02578125 48.42476563 118.0515625 47.61328125 118.078125 C29.9243481 118.99920554 14.61062452 125.45454667 2 138 C-1.04646779 136.63710651 -3.11754013 135.06976355 -5.5 132.75 C-10.42274048 128.34157569 -15.97289777 125.62178947 -22 123 C-22.90202148 122.60590942 -22.90202148 122.60590942 -23.82226562 122.20385742 C-29.00377842 120.08385412 -33.94525516 119.30555146 -39.5 118.8125 C-40.32242188 118.73064453 -41.14484375 118.64878906 -41.9921875 118.56445312 C-43.99385775 118.36661362 -45.99681953 118.18191276 -48 118 C-48.01417969 117.16339844 -48.02835938 116.32679688 -48.04296875 115.46484375 C-48.74367061 98.36393071 -54.56965753 84.28275614 -66.4609375 71.8125 C-68 70 -68 70 -68 68 C-66.9790625 67.01 -66.9790625 67.01 -65.9375 66 C-54.17070372 54.56654073 -49.22493865 39.40257108 -48.24609375 23.44140625 C-48 21 -48 21 -47 20 C-45.31300242 19.80477512 -43.6251233 19.61529146 -41.93432617 19.45629883 C-25.77394942 17.88507361 -11.06115758 12.2569584 0 0 Z M-32 32 C-32.95519531 32.8353125 -32.95519531 32.8353125 -33.9296875 33.6875 C-38.48133072 37.90704908 -41.30948573 42.44269638 -44 48 C-44.59167969 49.01900391 -44.59167969 49.01900391 -45.1953125 50.05859375 C-50.03523621 59.55229026 -49.62780022 72.97292307 -47.1171875 83.15625 C-44.69967604 90.52085443 -41.24945322 96.33104404 -36 102 C-35.45472656 102.62390625 -34.90945312 103.2478125 -34.34765625 103.890625 C-26.6400482 112.23297724 -16.17313917 117.81928638 -4.765625 118.46875 C-2.92737428 118.5030759 -1.08852632 118.51284223 0.75 118.5 C1.71719971 118.49355469 2.68439941 118.48710937 3.6809082 118.48046875 C17.50148822 118.12879416 28.60665586 112.60819345 38.28515625 102.6484375 C49.25779896 89.7273816 50.88183386 77.01199953 50.22216797 60.67089844 C49.41196393 50.93064328 44.43648211 43.11163757 38 36 C36.8553125 34.700625 36.8553125 34.700625 35.6875 33.375 C23.24670343 22.38080768 11.4788049 18.97703537 -4.91796875 19.5546875 C-15.66718203 20.26692484 -24.09314492 24.80631224 -32 32 Z " fill="#F7C127" transform="translate(98,30)"/>
<path d="M0 0 C7.64473859 5.46833948 14.23768035 12.48001837 16 22 C16.91011422 33.8464048 15.53278992 42.10959848 7.875 51.3125 C1.93249325 57.55949883 -5.23721679 61.52367239 -13.8828125 62.23828125 C-25.86433132 62.51255698 -33.17204731 59.67100029 -41.8671875 51.37109375 C-44.74602648 48.17062624 -46.56358336 45.03601848 -48 41 C-48.35320312 40.0615625 -48.70640625 39.123125 -49.0703125 38.15625 C-51.33880753 30.45480468 -51.00895263 22.19018087 -47.25 15.05078125 C-46.63125 14.03564453 -46.63125 14.03564453 -46 13 C-45.5875 12.31292969 -45.175 11.62585938 -44.75 10.91796875 C-34.66133346 -4.07172613 -15.89363985 -8.75916152 0 0 Z " fill="#F9D56E" transform="translate(116,70)"/>
<path d="M0 0 C6.39947434 4.90032955 11.14175716 9.9265548 15 17 C6.35609465 29.0069682 -3.33566088 37.54512998 -18 41 C-21.21309297 41.34282397 -24.39538885 41.4151067 -27.625 41.4375 C-28.43839844 41.47037109 -29.25179687 41.50324219 -30.08984375 41.53710938 C-42.57307678 41.64388664 -53.8752348 34.78853975 -64.74316406 29.26904297 C-66.78650378 28.2314639 -68.83423758 27.20298 -70.8828125 26.17578125 C-80.83538961 21.16461039 -80.83538961 21.16461039 -82 20 C-82.04092937 17.66702567 -82.04241723 15.33294775 -82 13 C-77.08110472 10.47820773 -72.15545506 7.97029989 -67.22338867 5.47436523 C-65.55062068 4.6255003 -63.87967365 3.77303611 -62.21069336 2.91674805 C-41.5915383 -7.65512044 -21.19966718 -13.62594238 0 0 Z " fill="#F9D46E" transform="translate(404,421)"/>
<path d="M0 0 C14.41556209 4.84531419 24.55796529 14.86058341 32 28 C32 28.66 32 29.32 32 30 C32.66 30 33.32 30 34 30 C34.27183105 29.13036621 34.54366211 28.26073242 34.82373047 27.36474609 C35.9518017 24.13787235 37.27977748 21.2123552 38.8203125 18.1640625 C39.35527344 17.10058594 39.89023438 16.03710938 40.44140625 14.94140625 C40.99699219 13.84699219 41.55257812 12.75257813 42.125 11.625 C42.68832031 10.50738281 43.25164062 9.38976562 43.83203125 8.23828125 C45.21774567 5.4903391 46.60716947 2.7443402 48 0 C50.81279628 1.40639814 51.22225794 3.16413077 52.56640625 5.98828125 C53.05173828 7.00470703 53.53707031 8.02113281 54.03710938 9.06835938 C54.79217773 10.67420898 54.79217773 10.67420898 55.5625 12.3125 C56.32336914 13.90094727 56.32336914 13.90094727 57.09960938 15.52148438 C61.19601984 24.15612854 61.19601984 24.15612854 62 28 C65.84916914 24.80204981 69.55038275 21.51078662 73.00390625 17.88671875 C81.00459496 9.5089384 88.94612166 1.49120144 101 0 C100.8138916 0.59425781 100.6277832 1.18851562 100.43603516 1.80078125 C98.48490822 8.14903991 96.86196989 14.52892732 95.375 21 C94.94758149 22.85469102 94.51800292 24.708886 94.0859375 26.5625 C93.9007959 27.36816406 93.7156543 28.17382812 93.52490234 29.00390625 C93 31 93 31 92 33 C90.32744141 32.76216797 90.32744141 32.76216797 88.62109375 32.51953125 C68.92241997 30.083697 49.84279036 31.93611425 33 43 C31.8721408 43.95177992 30.7621691 44.92604673 29.6875 45.9375 C25.93009126 48.82109276 23.66241784 48.15683974 19 48 C18.8047876 47.37246826 18.6095752 46.74493652 18.40844727 46.09838867 C14.12908461 32.47614381 9.29754084 19.56433324 2.87988281 6.80712891 C1.79693961 4.58294866 0.8678999 2.31592236 0 0 Z " fill="#B0D97C" transform="translate(67,415)"/>
<path d="M0 0 C4.82415835 3.84145943 7.33120791 7.32244555 8.2578125 13.47265625 C8.65817912 17.50543999 7.98527233 18.68525668 6.3203125 22.84765625 C-9.8496875 22.84765625 -26.0196875 22.84765625 -42.6796875 22.84765625 C-44.6596875 18.88765625 -46.6396875 14.92765625 -48.6796875 10.84765625 C-51.72697696 6.76299166 -54.40559738 3.92365762 -58.5546875 1.03515625 C-59.5859375 0.31328125 -60.6171875 -0.40859375 -61.6796875 -1.15234375 C-61.6796875 -1.81234375 -61.6796875 -2.47234375 -61.6796875 -3.15234375 C-59.78636216 -3.97067097 -57.88991017 -4.78176643 -55.9921875 -5.58984375 C-54.93644531 -6.04230469 -53.88070312 -6.49476563 -52.79296875 -6.9609375 C-35.95647497 -13.40401229 -14.56339858 -9.99906812 0 0 Z " fill="#CACFD7" transform="translate(173.6796875,472.15234375)"/>
<path d="M0 0 C6.03973326 5.66616049 12.58482862 15.69305977 13.5 24 C12.59227816 32.92593147 5.23708843 41.04971508 0 48 C-6.84087022 47.1034757 -11.50893218 44.55839398 -16.3125 39.625 C-21.26979705 31.91364903 -22.22456798 25.17405511 -21 16 C-18.57533896 9.13931137 -14.3395707 4.89297934 -8.34375 0.9609375 C-5.1054983 -0.3667457 -3.47214252 -0.73967948 0 0 Z " fill="#F7D26D" transform="translate(294,414)"/>
<path d="M0 0 C4.10669786 2.42877467 7.62813018 5.19317021 10.71875 8.86328125 C10.71875 9.85328125 10.71875 10.84328125 10.71875 11.86328125 C-9.08125 11.86328125 -28.88125 11.86328125 -49.28125 11.86328125 C-38.97288663 -5.31732437 -17.43621986 -8.68825339 0 0 Z " fill="#A8B0BB" transform="translate(101.28125,483.13671875)"/>
<path d="M0 0 C4.10703441 0.85563217 5.55401113 2.24378009 8 5.625 C8.63127485 9.62307408 8.67917484 11.63235985 6.375 15 C3.41546447 17.02494536 1.5948199 17.625 -2 17.625 C-4.74716387 15.85460551 -6.53145922 14.56208156 -8 11.625 C-8.54035146 7.57236402 -8.34199395 6.08769769 -5.875 2.75 C-3 0.625 -3 0.625 0 0 Z " fill="#090804" transform="translate(388,420.375)"/>
<path d="M0 0 C2.11130276 1.61048211 2.89153752 2.5092073 3.46875 5.12109375 C3.52426701 9.23629217 3.54853806 11.30186066 0.9375 14.625 C-2.94881638 16.44412682 -4.9198368 16.26114135 -9 15 C-11.5 12.875 -11.5 12.875 -13 10 C-13.07481382 5.73561227 -12.64839572 3.76281849 -9.875 0.5 C-6.08386986 -1.47798094 -4.07202027 -1.13111674 0 0 Z " fill="#090909" transform="translate(112,265)"/>
</svg>
