<?xml version="1.0" encoding="UTF-8"?>
<svg version="1.1" xmlns="http://www.w3.org/2000/svg" width="512" height="512">
<path d="M0 0 C7.27690816 4.81637087 12.44722913 11.97827882 14.640625 20.484375 C15.85005729 28.950401 15.23617995 35.81466363 11.6796875 43.625 C10.76189502 45.9386258 10.76189502 45.9386258 11.71383667 47.89056396 C13.19870653 50.32589851 14.87488885 52.11466942 16.89892578 54.12597656 C17.6996048 54.92650452 18.50028381 55.72703247 19.32522583 56.55181885 C20.18985443 57.40612488 21.05448303 58.26043091 21.9453125 59.140625 C22.8303244 60.02280701 23.7153363 60.90498901 24.62716675 61.81390381 C26.97450131 64.15194543 29.32606785 66.48555874 31.67980957 68.81713867 C34.08313927 71.19996526 36.48077767 73.58850348 38.87890625 75.9765625 C43.58071467 80.65631862 48.28818664 85.33031867 53 90 C53.61787384 89.79118698 54.23574768 89.58237396 54.87234497 89.36723328 C55.68291351 89.09482315 56.49348206 88.82241302 57.32861328 88.54174805 C58.13211212 88.27106003 58.93561096 88.00037201 59.76345825 87.72148132 C69.88836698 84.4553082 79.48279144 85.35710646 89 90 C96.26279429 94.13401267 100.99566015 100.08524887 104.140625 107.796875 C106.40614021 116.24106806 106.22546396 126.7563349 102.4609375 134.69921875 C99.53348099 139.30957139 95.83142787 143.13582488 92 147 C91.42121094 147.61617187 90.84242188 148.23234375 90.24609375 148.8671875 C85.25937332 154.08221561 79.6428313 158.52109474 74 163 C72.54980469 164.175625 72.54980469 164.175625 71.0703125 165.375 C47.53001474 184.06348067 12.37158042 206.60435619 -19 206 C-19.01417969 206.58523437 -19.02835937 207.17046875 -19.04296875 207.7734375 C-21.35515662 249.39281916 -51.20052419 289.10353731 -79 318 C-79.5480127 318.56992676 -80.09602539 319.13985352 -80.66064453 319.72705078 C-88.04793362 327.36175117 -95.59183556 334.48157949 -104 341 C-105.43666016 342.16208984 -105.43666016 342.16208984 -106.90234375 343.34765625 C-129.66825216 361.46277379 -166.28844237 386.08965238 -197 384 C-197.02578125 384.53625 -197.0515625 385.0725 -197.078125 385.625 C-200.21722005 429.00158616 -230.98536419 471.36871824 -261.5625 500.5 C-269.63322152 507.32032805 -277.78459354 508.84268451 -288.15625 508.37890625 C-296.99490351 507.50761622 -304.28737835 503.88695072 -310 497 C-315.76710865 487.41328126 -318.90878276 478.39630209 -316.36328125 467.19921875 C-315.4317525 464.13198993 -314.45616949 461.09085675 -313.2190094 458.13238525 C-312.74976208 455.86919014 -312.74976208 455.86919014 -314.47422791 453.92449951 C-315.59674706 452.81863495 -315.59674706 452.81863495 -316.74194336 451.69042969 C-317.58289047 450.84986023 -318.42383759 450.00929077 -319.29026794 449.14324951 C-320.21412796 448.24519592 -321.13798798 447.34714233 -322.08984375 446.421875 C-323.490317 445.03201385 -323.490317 445.03201385 -324.91908264 443.61407471 C-327.40216722 441.15008667 -329.89989871 438.70147883 -332.40093994 436.2557373 C-334.95010823 433.75770427 -337.48519143 431.24546772 -340.02148438 428.734375 C-345.00060061 423.808893 -349.99532871 418.8995101 -355 414 C-355.92681076 414.31321953 -355.92681076 414.31321953 -356.87234497 414.63276672 C-357.68291351 414.90517685 -358.49348206 415.17758698 -359.32861328 415.45825195 C-360.13211212 415.72893997 -360.93561096 415.99962799 -361.76345825 416.27851868 C-371.88836698 419.5446918 -381.48279144 418.64289354 -391 414 C-398.26279429 409.86598733 -402.99566015 403.91475113 -406.140625 396.203125 C-408.40614021 387.75893194 -408.22546396 377.2436651 -404.4609375 369.30078125 C-401.53348099 364.69042861 -397.83142787 360.86417512 -394 357 C-393.42121094 356.38382812 -392.84242188 355.76765625 -392.24609375 355.1328125 C-387.25937332 349.91778439 -381.6428313 345.47890526 -376 341 C-374.54980469 339.824375 -374.54980469 339.824375 -373.0703125 338.625 C-348.17107019 318.8576626 -315.5443742 299.53149996 -283 298 C-282.98582031 297.41476562 -282.97164063 296.82953125 -282.95703125 296.2265625 C-281.4918881 269.85398584 -267.51523004 243.26026324 -252.625 222 C-252.22031494 221.41806885 -251.81562988 220.8361377 -251.39868164 220.23657227 C-249.2505965 217.28312298 -247.51243423 215.17561967 -244 214 C-240.57411097 213.79025169 -238.2677722 213.9107426 -235 215 C-234.11248047 213.91332031 -234.11248047 213.91332031 -233.20703125 212.8046875 C-229.15900123 207.85195909 -225.10802001 202.90312066 -221 198 C-221.350625 197.34 -221.70125 196.68 -222.0625 196 C-223.29534981 192.05488059 -223.11905887 188.96229733 -222 185 C-220.4375 182.5625 -220.4375 182.5625 -218 181 C-213.84592507 180.12898429 -211.19922413 179.69254791 -207.08984375 180.74609375 C-203.8966553 181.3113473 -203.8966553 181.3113473 -201.18359375 179.3046875 C-200.27738281 178.50289062 -199.37117187 177.70109375 -198.4375 176.875 C-197.52871094 176.08867187 -196.61992187 175.30234375 -195.68359375 174.4921875 C-194.79800781 173.66976562 -193.91242188 172.84734375 -193 172 C-192.05511719 171.13375 -191.11023438 170.2675 -190.13671875 169.375 C-189.43160156 168.59125 -188.72648438 167.8075 -188 167 C-188.26224651 164.98944339 -188.60235737 162.98821313 -189 161 C-187.17508484 155.067317 -184.61967419 152.36128094 -179.3125 149.125 C-178.65113037 148.70500732 -177.98976074 148.28501465 -177.30834961 147.85229492 C-175.22039227 146.54200645 -173.11488984 145.26629274 -171 144 C-170.33677734 143.59958496 -169.67355469 143.19916992 -168.99023438 142.78662109 C-150.76614771 131.88551683 -126.65062572 119.23538682 -105 120 C-104.97421875 119.46375 -104.9484375 118.9275 -104.921875 118.375 C-101.78277995 74.99841384 -71.01463581 32.63128176 -40.4375 3.5 C-29.39692181 -5.83006608 -12.58859969 -7.60749909 0 0 Z M-5 63 C-6.60531856 64.78671049 -8.15592505 66.58895176 -9.6875 68.4375 C-10.13722168 68.97793945 -10.58694336 69.51837891 -11.05029297 70.07519531 C-14.69471554 74.51131471 -17.96915348 79.12107633 -21 84 C-19.6238464 87.09179136 -18.04841555 89.19638753 -15.65185547 91.57519531 C-14.97130096 92.25559875 -14.29074646 92.9360022 -13.58956909 93.63702393 C-12.85618317 94.36008728 -12.12279724 95.08315063 -11.3671875 95.828125 C-10.61535187 96.57713074 -9.86351624 97.32613647 -9.08889771 98.09783936 C-6.68892099 100.4866302 -4.28207991 102.86836897 -1.875 105.25 C-0.24563648 106.86933169 1.38327534 108.48911802 3.01171875 110.109375 C7.00258806 114.07820505 10.99911415 118.04126899 15 122 C19.21035405 120.40975677 22.35237376 118.43286694 25.9375 115.6875 C26.98292969 114.88828125 28.02835937 114.0890625 29.10546875 113.265625 C32.12633105 110.9011174 35.0933581 108.50294163 38 106 C33.4429043 100.53697293 28.60996409 95.46362071 23.57421875 90.44140625 C22.78602249 89.65225327 21.99782623 88.86310028 21.18574524 88.05003357 C19.53220354 86.39581525 17.87741391 84.74284351 16.22143555 83.09106445 C13.67445048 80.54947814 11.1328997 78.00254411 8.59179688 75.45507812 C6.98209176 73.84603304 5.37207689 72.23729777 3.76171875 70.62890625 C2.99824631 69.86340958 2.23477386 69.0979129 1.44816589 68.30921936 C0.7468605 67.61106613 0.04555511 66.9129129 -0.67700195 66.19360352 C-1.29622025 65.57518082 -1.91543854 64.95675812 -2.55342102 64.31959534 C-3.79679143 62.88767722 -3.79679143 62.88767722 -5 63 Z M-32 105 C-37.22720543 114.55316855 -40.34309886 125.00449839 -40 136 C-39.37221079 138.29944246 -39.37221079 138.29944246 -38 140 C-26.84787823 142.78803044 -15.16553031 138.61430754 -5 134 C-5 130.22104463 -6.36881329 129.28055454 -8.9384613 126.69599915 C-9.50404251 126.14276474 -10.06962372 125.58953033 -10.65234375 125.01953125 C-11.22706924 124.44667892 -11.80179474 123.8738266 -12.39393616 123.28361511 C-13.61029054 122.07398576 -14.83023861 120.86796103 -16.0534668 119.6652832 C-17.93344817 117.81648462 -19.8025219 115.95720061 -21.66992188 114.09570312 C-22.85094099 112.92385246 -24.03256135 111.75260737 -25.21484375 110.58203125 C-25.77840073 110.02272415 -26.3419577 109.46341705 -26.92259216 108.88716125 C-29.10785578 106.21783232 -29.10785578 106.21783232 -32 105 Z M-124 194 C-122.34505714 198.26705487 -119.15086959 201.1371993 -115.96875 204.296875 C-115.37703003 204.89050842 -114.78531006 205.48414185 -114.17565918 206.09576416 C-112.92734419 207.34543718 -111.67651177 208.59259992 -110.42333984 209.83740234 C-108.49992003 211.75007952 -106.58743901 213.67323119 -104.67578125 215.59765625 C-103.46157861 216.81053798 -102.24675607 218.02279952 -101.03125 219.234375 C-100.45725464 219.81241882 -99.88325928 220.39046265 -99.29187012 220.98602295 C-96.63967594 224.01083869 -96.63967594 224.01083869 -93 225 C-88.00923212 213.46793441 -83.33660041 201.82058286 -84 189 C-85.41666667 186.41666667 -85.41666667 186.41666667 -88 185 C-100.82058286 184.33660041 -112.46793441 189.00923212 -124 194 Z M-164 222 C-162.55419034 225.31613882 -160.75170208 227.49185728 -158.19287109 230.03417969 C-157.41221283 230.81468689 -156.63155457 231.59519409 -155.82723999 232.39935303 C-154.98448517 233.23178528 -154.14173035 234.06421753 -153.2734375 234.921875 C-152.41062164 235.78186096 -151.54780579 236.64184692 -150.65884399 237.52789307 C-147.90221971 240.2733231 -145.13872201 243.0117169 -142.375 245.75 C-140.50475143 247.61021783 -138.63495411 249.47088946 -136.765625 251.33203125 C-132.1823064 255.89329945 -127.59332522 260.44881011 -123 265 C-119.02499463 263.19475509 -116.71372648 260.65531762 -114 257.3125 C-113.57460938 256.80783203 -113.14921875 256.30316406 -112.7109375 255.78320312 C-109.65117853 252.07113357 -107.35158317 248.19699179 -105 244 C-110.38999634 238.58474423 -115.78383413 233.17333746 -121.18041992 227.76464844 C-123.0175808 225.92244444 -124.85384513 224.07934591 -126.68920898 222.23535156 C-129.32042596 219.59206804 -131.95480184 216.95196981 -134.58984375 214.3125 C-135.41588608 213.48129639 -136.24192841 212.65009277 -137.09300232 211.79370117 C-137.85371536 211.0329126 -138.61442841 210.27212402 -139.39819336 209.48828125 C-140.07103867 208.81321533 -140.74388397 208.13814941 -141.43711853 207.44262695 C-145.7161989 203.49279659 -160.29057567 218.60696774 -164 222 Z M-182.91796875 240.8359375 C-188.08277393 246.61411886 -192.72286178 252.53615768 -197 259 C-192.69372744 264.14829744 -188.17688069 268.95752072 -183.4140625 273.68359375 C-182.36138687 274.73414696 -182.36138687 274.73414696 -181.28744507 275.80592346 C-179.06898864 278.01883027 -176.84706185 280.22821416 -174.625 282.4375 C-173.11044534 283.94703314 -171.59612015 285.45679657 -170.08203125 286.96679688 C-166.39066901 290.64719702 -162.69645931 294.32471957 -159 298 C-153.94062836 295.17069904 -149.49363986 292.23416379 -145.0625 288.5 C-144.47404297 288.02691406 -143.88558594 287.55382812 -143.27929688 287.06640625 C-141.37892291 285.51988443 -141.37892291 285.51988443 -139 283 C-138.59907713 279.11551996 -138.59907713 279.11551996 -140.50509644 277.00042725 C-141.20965973 276.29871399 -141.91422302 275.59700073 -142.64013672 274.87402344 C-143.43451141 274.07349548 -144.22888611 273.27296753 -145.04733276 272.44818115 C-145.91600983 271.59387512 -146.78468689 270.73956909 -147.6796875 269.859375 C-148.56278595 268.97719299 -149.4458844 268.09501099 -150.35574341 267.18609619 C-152.2259515 265.32193535 -154.09946212 263.46206219 -155.97998047 261.60839844 C-158.39359569 259.22881224 -160.79378482 256.83622123 -163.1896801 254.43880844 C-165.47244459 252.15671745 -167.76366194 249.88316814 -170.0546875 247.609375 C-170.9193161 246.74697205 -171.7839447 245.88456909 -172.67477417 244.99603271 C-173.47545319 244.2081134 -174.2761322 243.42019409 -175.10107422 242.60839844 C-175.8072287 241.90986755 -176.51338318 241.21133667 -177.24093628 240.49163818 C-179.83321791 238.29345388 -180.47330018 238.49582705 -182.91796875 240.8359375 Z M-209 279 C-216.5326339 296.36468109 -216.5326339 296.36468109 -218 315 C-216.52545668 317.55794527 -216.52545668 317.55794527 -214 319 C-202.44627468 320.56823418 -188.08408303 315.52223594 -178 310 C-179.65494286 305.73294513 -182.84913041 302.8628007 -186.03125 299.703125 C-186.62296997 299.10949158 -187.21468994 298.51585815 -187.82434082 297.90423584 C-189.07265581 296.65456282 -190.32348823 295.40740008 -191.57666016 294.16259766 C-193.50007997 292.24992048 -195.41256099 290.32676881 -197.32421875 288.40234375 C-198.53842139 287.18946202 -199.75324393 285.97720048 -200.96875 284.765625 C-201.54274536 284.18758118 -202.11674072 283.60953735 -202.70812988 283.01397705 C-205.36032406 279.98916131 -205.36032406 279.98916131 -209 279 Z M-297 370 C-297.32927853 373.22776192 -297.32927853 373.22776192 -294.61328125 375.72729492 C-293.52068881 376.81941176 -292.4198246 377.90329204 -291.3125 378.98046875 C-290.73540283 379.55332108 -290.15830566 380.1261734 -289.5637207 380.71638489 C-287.71605624 382.54723565 -285.85824193 384.36739185 -284 386.1875 C-282.74671407 387.42574262 -281.49410099 388.66466668 -280.2421875 389.90429688 C-277.16921472 392.94416468 -274.08709758 395.97448016 -271 399 C-264.33852768 392.68165656 -262.79704759 381.81657261 -262 373 C-261.95727919 370.00479662 -262.23630613 367.94567635 -263 365 C-270.65123372 358.44179966 -289.18426689 366.37717783 -297 370 Z M-325.6875 386.625 C-326.63326904 387.3063501 -326.63326904 387.3063501 -327.59814453 388.00146484 C-331.91934414 391.14161842 -336.03653406 394.414007 -340 398 C-335.43852453 403.47313966 -330.59258679 408.53954809 -325.5390625 413.55859375 C-324.74849457 414.34774673 -323.95792664 415.13689972 -323.1434021 415.94996643 C-320.63962374 418.44818661 -318.13237525 420.94289044 -315.625 423.4375 C-313.91773752 425.13974208 -312.21070391 426.84221373 -310.50390625 428.54492188 C-306.33858102 432.69927363 -302.17040781 436.85075081 -298 441 C-294.59374553 437.62696694 -291.40994696 434.21285608 -288.375 430.5 C-287.61960937 429.5821875 -286.86421875 428.664375 -286.0859375 427.71875 C-283.23542502 424.04628098 -283.23542502 424.04628098 -281 420 C-282.18067115 416.85708527 -283.96689618 414.7806135 -286.31640625 412.42480469 C-286.99050537 411.74440125 -287.66460449 411.0639978 -288.35913086 410.36297607 C-289.08624268 409.63991272 -289.81335449 408.91684937 -290.5625 408.171875 C-291.30959229 407.42286926 -292.05668457 406.67386353 -292.82641602 405.90216064 C-294.40427919 404.32293796 -295.98466499 402.74623226 -297.56738281 401.171875 C-299.99777965 398.75221054 -302.41730061 396.32203811 -304.8359375 393.890625 C-306.36915052 392.35873303 -307.90298352 390.82746128 -309.4375 389.296875 C-310.16461182 388.56571472 -310.89172363 387.83455444 -311.64086914 387.08123779 C-312.31496826 386.41344299 -312.98906738 385.74564819 -313.68359375 385.05761719 C-314.27712646 384.46567566 -314.87065918 383.87373413 -315.48217773 383.26385498 C-319.18890014 380.17735422 -322.51493685 384.31760673 -325.6875 386.625 Z " fill="#65DDF4" transform="translate(407,4)"/>
<path d="M0 0 C7.27690816 4.81637087 12.44722913 11.97827882 14.640625 20.484375 C15.85005729 28.950401 15.23617995 35.81466363 11.6796875 43.625 C10.76189502 45.9386258 10.76189502 45.9386258 11.71383667 47.89056396 C13.19870653 50.32589851 14.87488885 52.11466942 16.89892578 54.12597656 C17.6996048 54.92650452 18.50028381 55.72703247 19.32522583 56.55181885 C20.18985443 57.40612488 21.05448303 58.26043091 21.9453125 59.140625 C22.8303244 60.02280701 23.7153363 60.90498901 24.62716675 61.81390381 C26.97450131 64.15194543 29.32606785 66.48555874 31.67980957 68.81713867 C34.08313927 71.19996526 36.48077767 73.58850348 38.87890625 75.9765625 C43.58071467 80.65631862 48.28818664 85.33031867 53 90 C53.61787384 89.79118698 54.23574768 89.58237396 54.87234497 89.36723328 C55.68291351 89.09482315 56.49348206 88.82241302 57.32861328 88.54174805 C58.13211212 88.27106003 58.93561096 88.00037201 59.76345825 87.72148132 C69.88836698 84.4553082 79.48279144 85.35710646 89 90 C96.26279429 94.13401267 100.99566015 100.08524887 104.140625 107.796875 C106.40614021 116.24106806 106.22546396 126.7563349 102.4609375 134.69921875 C99.53348099 139.30957139 95.83142787 143.13582488 92 147 C91.42121094 147.61617187 90.84242188 148.23234375 90.24609375 148.8671875 C85.25937332 154.08221561 79.6428313 158.52109474 74 163 C72.54980469 164.175625 72.54980469 164.175625 71.0703125 165.375 C47.53001474 184.06348067 12.37158042 206.60435619 -19 206 C-19.01417969 206.58523437 -19.02835937 207.17046875 -19.04296875 207.7734375 C-21.35515662 249.39281916 -51.20052419 289.10353731 -79 318 C-79.5480127 318.56992676 -80.09602539 319.13985352 -80.66064453 319.72705078 C-88.04793362 327.36175117 -95.59183556 334.48157949 -104 341 C-105.43666016 342.16208984 -105.43666016 342.16208984 -106.90234375 343.34765625 C-129.66825216 361.46277379 -166.28844237 386.08965238 -197 384 C-197.02578125 384.53625 -197.0515625 385.0725 -197.078125 385.625 C-200.21722005 429.00158616 -230.98536419 471.36871824 -261.5625 500.5 C-269.63322152 507.32032805 -277.78459354 508.84268451 -288.15625 508.37890625 C-296.99490351 507.50761622 -304.28737835 503.88695072 -310 497 C-315.76710865 487.41328126 -318.90878276 478.39630209 -316.36328125 467.19921875 C-315.4317525 464.13198993 -314.45616949 461.09085675 -313.2190094 458.13238525 C-312.74976208 455.86919014 -312.74976208 455.86919014 -314.47422791 453.92449951 C-315.59674706 452.81863495 -315.59674706 452.81863495 -316.74194336 451.69042969 C-317.58289047 450.84986023 -318.42383759 450.00929077 -319.29026794 449.14324951 C-320.21412796 448.24519592 -321.13798798 447.34714233 -322.08984375 446.421875 C-323.490317 445.03201385 -323.490317 445.03201385 -324.91908264 443.61407471 C-327.40216722 441.15008667 -329.89989871 438.70147883 -332.40093994 436.2557373 C-334.95010823 433.75770427 -337.48519143 431.24546772 -340.02148438 428.734375 C-345.00060061 423.808893 -349.99532871 418.8995101 -355 414 C-355.92681076 414.31321953 -355.92681076 414.31321953 -356.87234497 414.63276672 C-357.68291351 414.90517685 -358.49348206 415.17758698 -359.32861328 415.45825195 C-360.13211212 415.72893997 -360.93561096 415.99962799 -361.76345825 416.27851868 C-371.88836698 419.5446918 -381.48279144 418.64289354 -391 414 C-398.26279429 409.86598733 -402.99566015 403.91475113 -406.140625 396.203125 C-408.40614021 387.75893194 -408.22546396 377.2436651 -404.4609375 369.30078125 C-401.53348099 364.69042861 -397.83142787 360.86417512 -394 357 C-393.42121094 356.38382812 -392.84242188 355.76765625 -392.24609375 355.1328125 C-387.25937332 349.91778439 -381.6428313 345.47890526 -376 341 C-374.54980469 339.824375 -374.54980469 339.824375 -373.0703125 338.625 C-348.17107019 318.8576626 -315.5443742 299.53149996 -283 298 C-282.98582031 297.41476562 -282.97164063 296.82953125 -282.95703125 296.2265625 C-281.4918881 269.85398584 -267.51523004 243.26026324 -252.625 222 C-252.22031494 221.41806885 -251.81562988 220.8361377 -251.39868164 220.23657227 C-249.24540973 217.27599158 -247.50381182 215.20895986 -244 214 C-240.97895814 213.54027624 -238.96174492 213.39974621 -236.31640625 215.05078125 C-234.11440343 216.84089865 -232.28016349 218.43967302 -231 221 C-230.61797801 228.51309905 -233.69383357 232.99364843 -237.85400391 238.93310547 C-246.69732425 251.61321031 -252.90823807 265.44632328 -258 280 C-258.33902344 280.96035156 -258.67804688 281.92070312 -259.02734375 282.91015625 C-261.0949279 289.56551419 -261.65933007 296.34807164 -262.09106445 303.27709961 C-262.50457225 308.53238803 -263.45771015 311.86204781 -267 316 C-270.41473948 318.54416854 -274.44686781 318.46258414 -278.5625 318.8125 C-314.48226529 322.59495719 -347.12642461 342.58820853 -373 367 C-374.45383077 368.25523392 -375.91197424 369.50549539 -377.375 370.75 C-380.84353356 373.7700767 -383.92184163 376.84368326 -386 381 C-386.27443762 385.75691878 -386.11038091 389.67874386 -384 394 C-379.91896382 396.72069078 -374.74270525 396.66549505 -370 396 C-365.53209156 393.76604578 -362.45911789 390.50216673 -359.01953125 386.97265625 C-336.226822 364.70898474 -302.41413131 342.6875 -269.59423828 342.6875 C-262.20616763 342.82662909 -255.67267475 343.87619361 -249.8828125 348.80078125 C-242.88559589 356.27706041 -241.41548028 363.7013942 -241.73046875 373.703125 C-243.58953683 407.76308839 -265.74479808 437.86002398 -288.28295898 461.94189453 C-293.86054582 467.5400419 -293.86054582 467.5400419 -295.3125 474.9375 C-295.13593521 480.23568873 -295.13593521 480.23568873 -293 485 C-289.11033704 487.33379778 -285.45402636 487.39070407 -281 487 C-271.02948088 483.60578073 -264.30154966 472.89082938 -258 465 C-257.34128906 464.20851563 -256.68257812 463.41703125 -256.00390625 462.6015625 C-236.60084791 439.09926648 -219.77684139 409.08211183 -217.85791016 378.21435547 C-217.46250096 373.14881242 -216.37783383 370.00514583 -213 366 C-210.0910005 364.2242918 -207.65463323 363.68686891 -204.28125 363.39453125 C-184.37720043 361.40012705 -167.50179867 355.5317346 -150 346 C-149.09991211 345.51877686 -149.09991211 345.51877686 -148.18164062 345.02783203 C-122.01256148 330.98014478 -98.46554858 310.12264461 -80 287 C-79.34128906 286.20851563 -78.68257813 285.41703125 -78.00390625 284.6015625 C-60.15982512 262.98760507 -43.48324526 235.03575573 -40.52734375 206.7109375 C-40.44790527 205.95329102 -40.3684668 205.19564453 -40.28662109 204.41503906 C-40.14145639 202.93176577 -40.0143033 201.44657406 -39.90869141 199.95996094 C-39.46096053 194.9608871 -38.21343118 191.85151858 -35 188 C-31.43935817 185.27715625 -26.94824828 185.48116515 -22.625 185.125 C8.61894427 182.0498704 38.23513929 164.7299444 62 145 C62.91773193 144.24468994 62.91773193 144.24468994 63.85400391 143.47412109 C75.98129932 134.31432226 75.98129932 134.31432226 84 122 C84.24747001 117.54553988 84.335339 113.89223166 82 110 C78.36013997 107.61134186 73.94149995 107.27171502 69.66015625 107.37890625 C64.20961037 108.65150066 60.82816199 113.15552482 57 117 C31.52617094 140.29058319 -1.35339826 162.49998389 -37.21875 161.375 C-44.32401994 160.67034513 -49.52554446 157.87707768 -54.4375 152.75 C-61.00664563 144.00354547 -61.02544672 133.51497328 -60 123 C-56.26625659 101.90540448 -45.68591131 82.01756234 -33 65 C-32.36771484 64.15139404 -32.36771484 64.15139404 -31.72265625 63.28564453 C-26.19264089 55.93211891 -20.35425172 48.98015344 -13.97143555 42.34960938 C-9.94422292 38.12782892 -6.54879914 34.56016058 -6.6875 28.5 C-6.83500047 24.95408868 -6.98650143 22.02024786 -9 19 C-13.30230054 16.89887648 -17.2635641 16.49252472 -22 17 C-31.55734894 21.88034839 -38.52623675 31.7131889 -45 40 C-45.70479492 40.8981543 -45.70479492 40.8981543 -46.42382812 41.81445312 C-65.29231613 65.99662224 -82.75304518 95.42127685 -84.5 126.75 C-84.79674647 131.73258026 -85.60226116 134.3110264 -89 138 C-92.81870704 140.63004088 -97.21303816 140.4806117 -101.6875 140.8125 C-126.98686102 143.16419006 -150.65448179 155.08077877 -171.1875 169.625 C-173.72158494 171.33222421 -175.07340069 172.01614815 -178.125 172.6875 C-182.1826638 171.71718909 -185.10460622 170.01438257 -188 167 C-189.4799275 163.21796305 -189.1504345 161.46801845 -187.91015625 157.609375 C-186.06310267 153.50157104 -183.07489387 151.41928376 -179.3125 149.125 C-178.65113037 148.70500732 -177.98976074 148.28501465 -177.30834961 147.85229492 C-175.22039227 146.54200645 -173.11488984 145.26629274 -171 144 C-170.33677734 143.59958496 -169.67355469 143.19916992 -168.99023438 142.78662109 C-150.76614771 131.88551683 -126.65062572 119.23538682 -105 120 C-104.97421875 119.46375 -104.9484375 118.9275 -104.921875 118.375 C-101.78277995 74.99841384 -71.01463581 32.63128176 -40.4375 3.5 C-29.39692181 -5.83006608 -12.58859969 -7.60749909 0 0 Z M-5 63 C-6.60531856 64.78671049 -8.15592505 66.58895176 -9.6875 68.4375 C-10.13722168 68.97793945 -10.58694336 69.51837891 -11.05029297 70.07519531 C-14.69471554 74.51131471 -17.96915348 79.12107633 -21 84 C-19.6238464 87.09179136 -18.04841555 89.19638753 -15.65185547 91.57519531 C-14.97130096 92.25559875 -14.29074646 92.9360022 -13.58956909 93.63702393 C-12.85618317 94.36008728 -12.12279724 95.08315063 -11.3671875 95.828125 C-10.61535187 96.57713074 -9.86351624 97.32613647 -9.08889771 98.09783936 C-6.68892099 100.4866302 -4.28207991 102.86836897 -1.875 105.25 C-0.24563648 106.86933169 1.38327534 108.48911802 3.01171875 110.109375 C7.00258806 114.07820505 10.99911415 118.04126899 15 122 C19.21035405 120.40975677 22.35237376 118.43286694 25.9375 115.6875 C26.98292969 114.88828125 28.02835937 114.0890625 29.10546875 113.265625 C32.12633105 110.9011174 35.0933581 108.50294163 38 106 C33.4429043 100.53697293 28.60996409 95.46362071 23.57421875 90.44140625 C22.78602249 89.65225327 21.99782623 88.86310028 21.18574524 88.05003357 C19.53220354 86.39581525 17.87741391 84.74284351 16.22143555 83.09106445 C13.67445048 80.54947814 11.1328997 78.00254411 8.59179688 75.45507812 C6.98209176 73.84603304 5.37207689 72.23729777 3.76171875 70.62890625 C2.99824631 69.86340958 2.23477386 69.0979129 1.44816589 68.30921936 C0.7468605 67.61106613 0.04555511 66.9129129 -0.67700195 66.19360352 C-1.29622025 65.57518082 -1.91543854 64.95675812 -2.55342102 64.31959534 C-3.79679143 62.88767722 -3.79679143 62.88767722 -5 63 Z M-32 105 C-37.22720543 114.55316855 -40.34309886 125.00449839 -40 136 C-39.37221079 138.29944246 -39.37221079 138.29944246 -38 140 C-26.84787823 142.78803044 -15.16553031 138.61430754 -5 134 C-5 130.22104463 -6.36881329 129.28055454 -8.9384613 126.69599915 C-9.50404251 126.14276474 -10.06962372 125.58953033 -10.65234375 125.01953125 C-11.22706924 124.44667892 -11.80179474 123.8738266 -12.39393616 123.28361511 C-13.61029054 122.07398576 -14.83023861 120.86796103 -16.0534668 119.6652832 C-17.93344817 117.81648462 -19.8025219 115.95720061 -21.66992188 114.09570312 C-22.85094099 112.92385246 -24.03256135 111.75260737 -25.21484375 110.58203125 C-25.77840073 110.02272415 -26.3419577 109.46341705 -26.92259216 108.88716125 C-29.10785578 106.21783232 -29.10785578 106.21783232 -32 105 Z M-297 370 C-297.32927853 373.22776192 -297.32927853 373.22776192 -294.61328125 375.72729492 C-293.52068881 376.81941176 -292.4198246 377.90329204 -291.3125 378.98046875 C-290.73540283 379.55332108 -290.15830566 380.1261734 -289.5637207 380.71638489 C-287.71605624 382.54723565 -285.85824193 384.36739185 -284 386.1875 C-282.74671407 387.42574262 -281.49410099 388.66466668 -280.2421875 389.90429688 C-277.16921472 392.94416468 -274.08709758 395.97448016 -271 399 C-264.33852768 392.68165656 -262.79704759 381.81657261 -262 373 C-261.95727919 370.00479662 -262.23630613 367.94567635 -263 365 C-270.65123372 358.44179966 -289.18426689 366.37717783 -297 370 Z M-325.6875 386.625 C-326.63326904 387.3063501 -326.63326904 387.3063501 -327.59814453 388.00146484 C-331.91934414 391.14161842 -336.03653406 394.414007 -340 398 C-335.43852453 403.47313966 -330.59258679 408.53954809 -325.5390625 413.55859375 C-324.74849457 414.34774673 -323.95792664 415.13689972 -323.1434021 415.94996643 C-320.63962374 418.44818661 -318.13237525 420.94289044 -315.625 423.4375 C-313.91773752 425.13974208 -312.21070391 426.84221373 -310.50390625 428.54492188 C-306.33858102 432.69927363 -302.17040781 436.85075081 -298 441 C-294.59374553 437.62696694 -291.40994696 434.21285608 -288.375 430.5 C-287.61960937 429.5821875 -286.86421875 428.664375 -286.0859375 427.71875 C-283.23542502 424.04628098 -283.23542502 424.04628098 -281 420 C-282.18067115 416.85708527 -283.96689618 414.7806135 -286.31640625 412.42480469 C-286.99050537 411.74440125 -287.66460449 411.0639978 -288.35913086 410.36297607 C-289.08624268 409.63991272 -289.81335449 408.91684937 -290.5625 408.171875 C-291.30959229 407.42286926 -292.05668457 406.67386353 -292.82641602 405.90216064 C-294.40427919 404.32293796 -295.98466499 402.74623226 -297.56738281 401.171875 C-299.99777965 398.75221054 -302.41730061 396.32203811 -304.8359375 393.890625 C-306.36915052 392.35873303 -307.90298352 390.82746128 -309.4375 389.296875 C-310.16461182 388.56571472 -310.89172363 387.83455444 -311.64086914 387.08123779 C-312.31496826 386.41344299 -312.98906738 385.74564819 -313.68359375 385.05761719 C-314.27712646 384.46567566 -314.87065918 383.87373413 -315.48217773 383.26385498 C-319.18890014 380.17735422 -322.51493685 384.31760673 -325.6875 386.625 Z " fill="#000101" transform="translate(407,4)"/>
<path d="M0 0 C0.64839844 0.37253906 1.29679688 0.74507813 1.96484375 1.12890625 C3.54265625 2.02609375 3.54265625 2.02609375 5.15234375 2.94140625 C12.87678403 8.94930425 19.21333025 16.1505869 20.96484375 26.12890625 C21.82038024 39.49491069 20.88744103 50.44879005 11.94921875 61.125 C4.20574731 68.94468671 -5.80221313 72.98828387 -16.72265625 73.37890625 C-21.45719871 73.35767512 -25.3825234 72.30943132 -29.80859375 70.6875 C-32.39044897 70.03977141 -33.54155336 70.2665764 -36.03515625 71.12890625 C-38.08679627 73.12556579 -39.96842172 75.10692893 -41.84765625 77.25390625 C-42.9168334 78.44633148 -43.98713856 79.63774629 -45.05859375 80.828125 C-45.82768066 81.68736572 -45.82768066 81.68736572 -46.61230469 82.56396484 C-48.33854381 84.46259092 -50.13626207 86.2745062 -51.97265625 88.06640625 C-52.49601563 88.58976562 -53.019375 89.113125 -53.55859375 89.65234375 C-54.57427217 90.66802217 -55.60103289 91.6726999 -56.63671875 92.66796875 C-58.30989796 94.32104346 -58.30989796 94.32104346 -60.03515625 97.12890625 C-59.3186894 100.03618007 -59.3186894 100.03618007 -58.03515625 103.12890625 C-52.8426505 117.55042768 -52.47802126 130.01219755 -58.66015625 144.19140625 C-64.50098008 155.00692414 -74.21616505 163.01754783 -85.89453125 166.5859375 C-97.64992831 169.56768967 -107.71987467 168.23605656 -119.03515625 164.12890625 C-120.02515625 163.79890625 -121.01515625 163.46890625 -122.03515625 163.12890625 C-127.29997359 168.29838485 -132.4357293 173.49240558 -137.23046875 179.1015625 C-140.65458913 182.94813929 -144.35765955 186.5264605 -148.03515625 190.12890625 C-147.83019531 190.72058594 -147.62523437 191.31226563 -147.4140625 191.921875 C-147.14464844 192.71207031 -146.87523437 193.50226563 -146.59765625 194.31640625 C-146.33082031 195.09371094 -146.06398438 195.87101563 -145.7890625 196.671875 C-142.45792313 207.52828257 -142.83540399 218.97087628 -148.03515625 229.12890625 C-153.90300366 238.85228452 -162.47611761 245.64264927 -173.53515625 248.37890625 C-183.63638908 250.28902012 -193.93670154 249.00553612 -202.78515625 243.50390625 C-211.45691892 237.12992461 -217.96129138 228.84387472 -220.03515625 218.12890625 C-220.91876963 205.94662994 -219.59343808 195.62420654 -211.6640625 185.90625 C-203.94467929 177.48342179 -195.48954454 173.11338983 -184.03515625 172.12890625 C-179.50050754 172.18519844 -174.99025828 172.31792589 -170.765625 174.0703125 C-168.18539287 175.10705442 -166.8085741 175.54196848 -164.03515625 175.12890625 C-159.44541023 171.64599282 -155.76990164 167.49271897 -152.03515625 163.12890625 C-151.00841797 161.97068359 -151.00841797 161.97068359 -149.9609375 160.7890625 C-148.84232551 159.51962642 -147.73338236 158.24156968 -146.63671875 156.953125 C-143.92239914 153.86144876 -140.98306017 150.99616843 -138.03515625 148.12890625 C-138.37289062 147.43925781 -138.710625 146.74960938 -139.05859375 146.0390625 C-145.8158957 131.80185695 -146.37887676 120.33192804 -142.03515625 105.12890625 C-141.39518146 103.45180921 -140.73746916 101.78086836 -140.03515625 100.12890625 C-149.93715048 90.02352705 -149.93715048 90.02352705 -160.4140625 80.52734375 C-162.7496793 78.51252251 -164.88864531 76.34249566 -167.03515625 74.12890625 C-167.6384375 74.33386719 -168.24171875 74.53882812 -168.86328125 74.75 C-169.6625 75.01941406 -170.46171875 75.28882812 -171.28515625 75.56640625 C-172.0740625 75.83324219 -172.86296875 76.10007812 -173.67578125 76.375 C-184.48749316 79.82973576 -195.79574302 79.052539 -206.03515625 74.12890625 C-214.4944489 68.9803383 -220.91933058 61.56426504 -224.3359375 52.22265625 C-226.87708771 40.9791313 -226.1928539 29.04482312 -220.03515625 19.12890625 C-214.14138378 10.68517508 -206.87982792 5.72245076 -197.12109375 2.49609375 C-185.55976366 0.46095325 -174.45840007 2.10948514 -164.78515625 8.87890625 C-156.07194714 16.02088093 -150.90713373 23.91470155 -149.03515625 35.12890625 C-148.48447526 41.14403709 -149.24316504 45.99011362 -151.03515625 51.75390625 C-152.25082159 56.27622432 -152.25082159 56.27622432 -150.734375 60.48828125 C-148.62470014 62.60205257 -146.43877142 64.35864958 -144.03515625 66.12890625 C-142.69216571 67.28444305 -141.35845986 68.4508755 -140.03515625 69.62890625 C-139.37902344 70.18964844 -138.72289062 70.75039062 -138.046875 71.328125 C-135.20105577 73.87554765 -132.59703344 76.63838943 -129.9921875 79.4296875 C-127.72055146 81.4020661 -125.94752721 82.36700115 -123.03515625 83.12890625 C-120.87000393 82.58505038 -120.87000393 82.58505038 -118.84765625 81.37890625 C-104.4653045 74.33060142 -90.59542232 77.17496957 -76.03515625 82.12890625 C-75.40351563 81.43667969 -74.771875 80.74445313 -74.12109375 80.03125 C-73.69586426 79.56702637 -73.27063477 79.10280273 -72.83251953 78.62451172 C-71.87105015 77.57128522 -70.9137911 76.51420211 -69.96044922 75.45361328 C-67.10236478 72.29544361 -64.17336707 69.27511145 -61.08203125 66.34375 C-54.08268723 60.25853936 -54.08268723 60.25853936 -50.78125 52.12890625 C-51.59221182 49.52141179 -52.66982792 47.48292062 -54.03515625 45.12890625 C-56.90594459 34.08605785 -54.76240783 23.67644984 -49.28515625 13.87890625 C-39.19575481 -1.92287689 -17.01751056 -8.34876159 0 0 Z " fill="#000000" transform="translate(225.03515625,2.87109375)"/>
<path d="M0 0 C11.38704667 8.20839653 17.46895507 19.30523902 20 33 C21.34627618 46.2944773 17.99205943 58.80552037 10.09765625 69.6015625 C1.01959868 80.46896596 -11.64797445 85.41094886 -24.484375 90.51953125 C-25.95358257 91.10980402 -27.42267605 91.70036085 -28.8916626 92.29118347 C-31.95148153 93.51886008 -35.01426806 94.73875741 -38.07910156 95.95385742 C-41.96392008 97.49547464 -45.83771968 99.06293388 -49.70934677 100.63733387 C-52.73462428 101.8627646 -55.76671614 103.07058708 -58.80084991 104.27390099 C-60.23029191 104.84385801 -61.65738851 105.41974151 -63.08177948 106.0022068 C-78.74025629 112.38755881 -93.77287468 115.13704447 -110.1875 109.3125 C-121.88780221 104.22052848 -131.18623824 94.4801126 -136.03515625 82.7578125 C-140.78153483 69.19124053 -139.80074977 55.956759 -133.875 42.875 C-125.7420625 27.72923017 -112.37712268 21.37811088 -97.125 15.359375 C-95.58972419 14.74568059 -94.05473566 14.13126704 -92.52001953 13.51617432 C-89.31863821 12.23569316 -86.11455406 10.96232014 -82.90820312 9.69433594 C-78.81849201 8.07662074 -74.73508169 6.44366395 -70.6534729 4.80562973 C-67.48982908 3.53748724 -64.32345693 2.2762799 -61.15618896 1.01721954 C-59.65012031 0.41784955 -58.14477299 -0.18333654 -56.64019775 -0.78644562 C-37.07953001 -8.61349363 -18.87744666 -11.71809087 0 0 Z " fill="#010101" transform="translate(381,384)"/>
<path d="M0 0 C1.34323148 0.98666457 2.67813109 1.98489392 4 3 C4.86625 3.5775 5.7325 4.155 6.625 4.75 C14.02047646 11.75624086 18.64451209 21.45332425 23.4375 30.3125 C24.12613434 31.57567152 24.81535565 32.8385232 25.50512695 34.10107422 C26.57786751 36.06495129 27.65008559 38.02909738 28.72001648 39.99450684 C31.26237313 44.66273532 33.83430095 49.31373486 36.421875 53.95703125 C37.14403718 55.25541043 37.86612468 56.55383115 38.58813477 57.85229492 C39.6229163 59.71317432 40.65866113 61.57346576 41.69845581 63.43154907 C51.03822166 80.13188272 58.46013035 95.01489283 53.0234375 114.5 C50.62750784 121.17768783 47.71698651 126.70805743 43 132 C42.52304687 132.59167969 42.04609375 133.18335938 41.5546875 133.79296875 C33.95019974 142.44832793 21.74545237 147.27233524 10.46484375 148.2109375 C-3.85923393 148.74680228 -16.62747717 144.08680923 -27.25 134.4375 C-31.66611627 129.65262453 -34.64580707 124.09458611 -37.70361328 118.39648438 C-39.79798992 114.52484576 -41.95429526 110.68789441 -44.1003418 106.84472656 C-46.03797764 103.36938331 -47.96514899 99.88833552 -49.890625 96.40625 C-52.34468819 91.96904399 -54.81660642 87.54257045 -57.30993652 83.12730408 C-58.77543464 80.52952002 -60.23315803 77.92741648 -61.68994141 75.32473755 C-62.38728734 74.08324257 -63.08804429 72.84365633 -63.79248047 71.60617065 C-72.275888 56.69421749 -76.28650675 43.05521117 -72 26 C-67.12108735 12.69356047 -59.17913645 2.89012216 -46.30859375 -3.29296875 C-31.25678005 -9.50660868 -13.85625044 -8.9940077 0 0 Z " fill="#010000" transform="translate(451,276)"/>
<path d="M0 0 C3 2.5 3 2.5 5 5 C5.556875 5.639375 6.11375 6.27875 6.6875 6.9375 C9.8916565 11.97260307 10.35911412 17.16191384 10.3125 23 C10.30686035 23.74693115 10.3012207 24.4938623 10.29541016 25.26342773 C9.62192002 56.60739176 -9.93129168 85.35914724 -30 108 C-30.77214844 108.88300781 -31.54429687 109.76601563 -32.33984375 110.67578125 C-40.87932338 120.32584347 -49.87553656 129.02647129 -60 137 C-60.96292969 137.79148437 -61.92585938 138.58296875 -62.91796875 139.3984375 C-85.6579359 157.67111072 -115.14169062 172.79689196 -145 170 C-150.88336917 168.55661343 -155.20925098 165.76551305 -159 161 C-165.96494418 148.95891006 -165.26074973 135.65809683 -161.97460938 122.45092773 C-159.61428729 113.89672057 -155.96470797 105.91520551 -152 98 C-151.65839844 97.31550781 -151.31679687 96.63101563 -150.96484375 95.92578125 C-145.23015297 84.65264386 -137.93944205 74.80912337 -130 65 C-129.52804199 64.41089844 -129.05608398 63.82179688 -128.56982422 63.21484375 C-118.34865554 50.51481147 -106.92881039 38.94919051 -94 29 C-92.79808596 28.04568767 -91.5962692 27.09125282 -90.39453125 26.13671875 C-68.08877307 8.66056178 -28.65795412 -15.67311119 0 0 Z M-50 25 C-48.34505714 29.26705487 -45.15086959 32.1371993 -41.96875 35.296875 C-41.37703003 35.89050842 -40.78531006 36.48414185 -40.17565918 37.09576416 C-38.92734419 38.34543718 -37.67651177 39.59259992 -36.42333984 40.83740234 C-34.49992003 42.75007952 -32.58743901 44.67323119 -30.67578125 46.59765625 C-29.46157861 47.81053798 -28.24675607 49.02279952 -27.03125 50.234375 C-26.45725464 50.81241882 -25.88325928 51.39046265 -25.29187012 51.98602295 C-22.63967594 55.01083869 -22.63967594 55.01083869 -19 56 C-14.00923212 44.46793441 -9.33660041 32.82058286 -10 20 C-11.41666667 17.41666667 -11.41666667 17.41666667 -14 16 C-26.82058286 15.33660041 -38.46793441 20.00923212 -50 25 Z M-90 53 C-88.55419034 56.31613882 -86.75170208 58.49185728 -84.19287109 61.03417969 C-83.41221283 61.81468689 -82.63155457 62.59519409 -81.82723999 63.39935303 C-80.98448517 64.23178528 -80.14173035 65.06421753 -79.2734375 65.921875 C-78.41062164 66.78186096 -77.54780579 67.64184692 -76.65884399 68.52789307 C-73.90221971 71.2733231 -71.13872201 74.0117169 -68.375 76.75 C-66.50475143 78.61021783 -64.63495411 80.47088946 -62.765625 82.33203125 C-58.1823064 86.89329945 -53.59332522 91.44881011 -49 96 C-45.02499463 94.19475509 -42.71372648 91.65531762 -40 88.3125 C-39.57460938 87.80783203 -39.14921875 87.30316406 -38.7109375 86.78320312 C-35.65117853 83.07113357 -33.35158317 79.19699179 -31 75 C-36.38999634 69.58474423 -41.78383413 64.17333746 -47.18041992 58.76464844 C-49.0175808 56.92244444 -50.85384513 55.07934591 -52.68920898 53.23535156 C-55.32042596 50.59206804 -57.95480184 47.95196981 -60.58984375 45.3125 C-61.41588608 44.48129639 -62.24192841 43.65009277 -63.09300232 42.79370117 C-63.85371536 42.0329126 -64.61442841 41.27212402 -65.39819336 40.48828125 C-66.07103867 39.81321533 -66.74388397 39.13814941 -67.43711853 38.44262695 C-71.7161989 34.49279659 -86.29057567 49.60696774 -90 53 Z M-108.91796875 71.8359375 C-114.08277393 77.61411886 -118.72286178 83.53615768 -123 90 C-118.69372744 95.14829744 -114.17688069 99.95752072 -109.4140625 104.68359375 C-108.36138687 105.73414696 -108.36138687 105.73414696 -107.28744507 106.80592346 C-105.06898864 109.01883027 -102.84706185 111.22821416 -100.625 113.4375 C-99.11044534 114.94703314 -97.59612015 116.45679657 -96.08203125 117.96679688 C-92.39066901 121.64719702 -88.69645931 125.32471957 -85 129 C-79.94062836 126.17069904 -75.49363986 123.23416379 -71.0625 119.5 C-70.47404297 119.02691406 -69.88558594 118.55382812 -69.27929688 118.06640625 C-67.37892291 116.51988443 -67.37892291 116.51988443 -65 114 C-64.59907713 110.11551996 -64.59907713 110.11551996 -66.50509644 108.00042725 C-67.20965973 107.29871399 -67.91422302 106.59700073 -68.64013672 105.87402344 C-69.43451141 105.07349548 -70.22888611 104.27296753 -71.04733276 103.44818115 C-71.91600983 102.59387512 -72.78468689 101.73956909 -73.6796875 100.859375 C-74.56278595 99.97719299 -75.4458844 99.09501099 -76.35574341 98.18609619 C-78.2259515 96.32193535 -80.09946212 94.46206219 -81.97998047 92.60839844 C-84.39359569 90.22881224 -86.79378482 87.83622123 -89.1896801 85.43880844 C-91.47244459 83.15671745 -93.76366194 80.88316814 -96.0546875 78.609375 C-96.9193161 77.74697205 -97.7839447 76.88456909 -98.67477417 75.99603271 C-99.47545319 75.2081134 -100.2761322 74.42019409 -101.10107422 73.60839844 C-101.8072287 72.90986755 -102.51338318 72.21133667 -103.24093628 71.49163818 C-105.83321791 69.29345388 -106.47330018 69.49582705 -108.91796875 71.8359375 Z M-135 110 C-142.5326339 127.36468109 -142.5326339 127.36468109 -144 146 C-142.52545668 148.55794527 -142.52545668 148.55794527 -140 150 C-128.44627468 151.56823418 -114.08408303 146.52223594 -104 141 C-105.65494286 136.73294513 -108.84913041 133.8628007 -112.03125 130.703125 C-112.62296997 130.10949158 -113.21468994 129.51585815 -113.82434082 128.90423584 C-115.07265581 127.65456282 -116.32348823 126.40740008 -117.57666016 125.16259766 C-119.50007997 123.24992048 -121.41256099 121.32676881 -123.32421875 119.40234375 C-124.53842139 118.18946202 -125.75324393 116.97720048 -126.96875 115.765625 C-127.54274536 115.18758118 -128.11674072 114.60953735 -128.70812988 114.01397705 C-131.36032406 110.98916131 -131.36032406 110.98916131 -135 110 Z " fill="#000101" transform="translate(333,173)"/>
<path d="M0 0 C2.73741175 6.77574383 5.46013769 13.55725076 8.17260742 20.34301758 C9.09759694 22.65199808 10.02597257 24.95962503 10.95776367 27.26586914 C12.29452277 30.57610868 13.61913192 33.89098382 14.94140625 37.20703125 C15.57255089 38.75871758 15.57255089 38.75871758 16.21644592 40.3417511 C16.59691574 41.3025206 16.97738556 42.2632901 17.36938477 43.25317383 C17.70913834 44.09922684 18.04889191 44.94527985 18.39894104 45.81697083 C19 48 19 48 18 51 C15.82275391 52.15087891 15.82275391 52.15087891 12.9765625 53.2265625 C11.955625 53.6184375 10.9346875 54.0103125 9.8828125 54.4140625 C8.80773437 54.81367188 7.73265625 55.21328125 6.625 55.625 C5.55765625 56.03234375 4.4903125 56.4396875 3.390625 56.859375 C-5.41441399 60.20839487 -13.31950071 63.01924696 -22.765625 60.1640625 C-30.20049079 56.76591832 -34.69002884 51.72575993 -38.9375 44.875 C-41.6121747 37.52385003 -41.16725391 28.54576677 -37.9375 21.5 C-33.93344218 13.84240793 -26.74549435 10.00888499 -19.0625 6.8125 C-18.30259766 6.48314453 -17.54269531 6.15378906 -16.75976562 5.81445312 C-3.2235338 0 -3.2235338 0 0 0 Z " fill="#FC7977" transform="translate(303,415)"/>
<path d="M0 0 C6.71153971 4.79407692 10.55144286 10.51054763 14.4375 17.6875 C14.96537109 18.62400391 15.49324219 19.56050781 16.03710938 20.52539062 C20.17930529 27.97496248 20.17930529 27.97496248 21 32 C9.2854885 38.66711183 -2.4490834 45.29932845 -14.25 51.8125 C-15.65016357 52.59415527 -15.65016357 52.59415527 -17.07861328 53.39160156 C-17.94470215 53.86694336 -18.81079102 54.34228516 -19.703125 54.83203125 C-20.46270508 55.25202393 -21.22228516 55.6720166 -22.00488281 56.10473633 C-24 57 -24 57 -27 57 C-28.60520934 53.95888251 -30.20897836 50.91700767 -31.8125 47.875 C-32.26431641 47.0190625 -32.71613281 46.163125 -33.18164062 45.28125 C-34.45922131 42.85664433 -35.73090898 40.42905806 -37 38 C-37.58136719 36.88882813 -38.16273438 35.77765625 -38.76171875 34.6328125 C-41.75276923 28.27329193 -42.23236514 21.09385687 -40.19921875 14.33984375 C-36.73584813 6.63949739 -30.87558464 0.40043157 -23.0625 -3 C-14.72443177 -5.53119928 -7.4161562 -4.3721288 0 0 Z " fill="#C9F2F9" transform="translate(439,293)"/>
<path d="M0 0 C2.9545653 2.74062082 4.9158267 5.30341232 6.76171875 8.87890625 C7.24060547 9.79994141 7.71949219 10.72097656 8.21289062 11.66992188 C8.69951172 12.62447266 9.18613281 13.57902344 9.6875 14.5625 C10.18572266 15.52091797 10.68394531 16.47933594 11.19726562 17.46679688 C15.49356547 25.78541272 17.79198677 33.06954515 15.3515625 42.5078125 C12.35772834 49.85166211 7.67397232 56.1230404 0.375 59.5 C-7.53819216 62.18182652 -15.76294059 62.42278863 -23.4375 58.9375 C-31.66277737 54.68896543 -36.04637952 46.00030078 -40.4375 38.25 C-40.99115234 37.30511719 -41.54480469 36.36023438 -42.11523438 35.38671875 C-42.63279297 34.48050781 -43.15035156 33.57429688 -43.68359375 32.640625 C-44.15337646 31.82110352 -44.62315918 31.00158203 -45.10717773 30.15722656 C-46 28 -46 28 -45 25 C-42.47827148 23.33349609 -42.47827148 23.33349609 -39.12109375 21.5234375 C-38.52125671 21.19642853 -37.92141968 20.86941956 -37.30340576 20.53250122 C-35.35266077 19.47134094 -33.39520895 18.42324748 -31.4375 17.375 C-30.10728179 16.65400305 -28.77761 15.93199706 -27.44848633 15.20898438 C-24.83014157 13.78528014 -22.2097777 12.36541103 -19.58789062 10.94824219 C-15.09364917 8.51408336 -10.63491307 6.01856119 -6.1875 3.5 C-5.53773193 3.13310059 -4.88796387 2.76620117 -4.21850586 2.38818359 C-2.8116419 1.5933519 -1.40568117 0.79692161 0 0 Z " fill="#FC7977" transform="translate(469,342)"/>
<path d="M0 0 C6.12737027 4.07330865 11.92193624 9.9098845 14.0625 17.0625 C14.86081162 25.35194512 15.0758678 33.08208164 10.0625 40.0625 C9.485 40.949375 8.9075 41.83625 8.3125 42.75 C2.68749669 48.53125341 -4.80245081 51.51196865 -12.1875 54.4375 C-13.07179688 54.80488281 -13.95609375 55.17226563 -14.8671875 55.55078125 C-15.72054688 55.89238281 -16.57390625 56.23398437 -17.453125 56.5859375 C-18.60216309 57.0487915 -18.60216309 57.0487915 -19.77441406 57.52099609 C-22.34524217 58.1645736 -23.48675532 58.05225973 -25.9375 57.0625 C-27.13983154 55.17140198 -27.13983154 55.17140198 -28.13574219 52.66625977 C-28.70588043 51.26459312 -28.70588043 51.26459312 -29.28753662 49.83460999 C-29.68249329 48.81797775 -30.07744995 47.80134552 -30.484375 46.75390625 C-30.90044006 45.71685043 -31.31650513 44.67979462 -31.74517822 43.61131287 C-33.07380082 40.28811614 -34.3803434 36.95669033 -35.6875 33.625 C-36.5832966 31.38162639 -37.48041559 29.13878034 -38.37890625 26.89648438 C-39.22773548 24.76609199 -40.07543043 22.63524723 -40.921875 20.50390625 C-41.52645538 18.98199425 -41.52645538 18.98199425 -42.14324951 17.42933655 C-42.51073303 16.49173996 -42.87821655 15.55414337 -43.25683594 14.58813477 C-43.58230408 13.76064224 -43.90777222 12.93314972 -44.24310303 12.08058167 C-44.9375 10.0625 -44.9375 10.0625 -44.9375 8.0625 C-13.00953277 -6.18665808 -13.00953277 -6.18665808 0 0 Z " fill="#CAF3F9" transform="translate(365.9375,398.9375)"/>
<path d="M0 0 C5.36789917 3.57859945 8.90805515 7.83053553 11 14 C12.29725843 22.95526787 11.35594581 30.58624344 6 38 C1.60277687 43.00123729 -3.69982806 45.59803021 -10.20703125 46.390625 C-18.6527611 46.79323834 -24.53254312 45.59612967 -31 40 C-37.11656245 33.40625892 -38.47615745 26.96553891 -38.30859375 18.22265625 C-37.62205905 11.05314831 -34.03409403 6.27992233 -28.8359375 1.4765625 C-20.7952296 -4.9902196 -8.87710346 -4.92729114 0 0 Z " fill="#FCCB68" transform="translate(139,104)"/>
<path d="M0 0 C4.52049994 2.45774754 7.55699234 5.73898468 9.875 10.375 C10.60048568 17.54660434 10.25818689 22.57023898 5.875 28.375 C0.29978468 33.41924243 -3.44423441 33.78842648 -10.8515625 33.71484375 C-16.35349347 33.14364089 -18.96279532 30.92562468 -22.4296875 26.8359375 C-25.70658012 22.06749375 -26.13606207 16.9929884 -25.125 11.375 C-22.84817566 5.72653791 -19.49600309 2.29402342 -14.125 -0.625 C-9.07076102 -2.30974633 -4.84044468 -2.20519314 0 0 Z " fill="#FAE1B0" transform="translate(45.125,26.625)"/>
<path d="M0 0 C5.03709367 2.96409981 8.83525779 6.38467963 10.72265625 12.046875 C11.11289816 17.9005036 10.7197159 21.82619044 7.72265625 27.046875 C3.26026334 31.73080514 -0.4365224 34.1649253 -7.02734375 34.359375 C-13.03824029 34.27188014 -16.43792083 32.63406492 -20.81640625 28.64453125 C-24.69840754 24.20950743 -25.02426238 19.74215849 -24.7578125 13.98828125 C-23.89482938 8.7051407 -21.69797762 5.20947175 -17.73828125 1.671875 C-12.45016791 -1.93707439 -5.89135156 -2.46567715 0 0 Z " fill="#FBE2B1" transform="translate(215.27734375,20.953125)"/>
<path d="M0 0 C4.455135 2.55052338 7.67461209 5.29024071 9.7265625 10.078125 C10.45254389 16.00697304 10.62279479 21.18607905 8.0390625 26.640625 C3.05340601 31.89577643 0.05982402 33.85955047 -7.0859375 34.328125 C-11.96016967 34.23752589 -16.18788156 33.09901254 -19.78515625 29.61328125 C-24.48630846 24.10390803 -24.62886282 20.37141484 -24.54296875 13.28125 C-24.11584388 8.20527324 -22.34901408 5.86675551 -18.578125 2.6171875 C-12.84523236 -1.58383909 -6.693576 -2.71423357 0 0 Z " fill="#FBE3B1" transform="translate(50.2734375,196.921875)"/>
<path d="M0 0 C1.875 1.3125 1.875 1.3125 3 3 C3.4125 3.5775 3.825 4.155 4.25 4.75 C5.39650267 8.18950801 4.91579436 10.51998144 4 14 C1.4118176 17.50165855 -0.27111465 18.77470816 -4.4375 20.0625 C-8.88069934 19.98454913 -10.66145471 18.87270176 -14 16 C-16.15471967 13.37686301 -16.11116084 11.26991934 -15.875 8 C-15.28221882 4.21043459 -14.15919916 2.32294056 -11 0 C-7.08438377 -1.30520541 -3.98438089 -0.94191431 0 0 Z " fill="#010404" transform="translate(200,185)"/>
</svg>
